<svg xmlns="http://www.w3.org/2000/svg" width="2718" height="869" viewBox="0 0 2718 869">
  <defs>
    <style>
      .cls-1 {
        fill: #31bfa4;
      }

      .cls-1, .cls-2, .cls-3 {
        fill-rule: evenodd;
      }

      .cls-2 {
        fill: #f2f2f2;
      }

      .cls-3 {
        fill: #e98254;
      }
    </style>
  </defs>
  <path id="relleno_verde" data-name="relleno verde" class="cls-1" d="M2143,317c38.01-.694,62.95,8.121,90,16q-3.495,25.5-7,51l-25-5c-20.66-4.748-53.91-8.91-70,3-18.62,13.785-49.02,129.371-13,143,19.54,7.395,77.13-6.06,87,1-2.98,11.853-1.07,40.042-9,48-11.19,6.839-25.1,6.471-41,9-108.36,17.237-126.68-65.694-106-160,9.52-43.428,24.82-83.212,62-99Q2127.005,320.5,2143,317Zm-554,2-97,264h-60q-8.505-82.492-17-165h-1q-33,82.493-66,165h-59q-9.495-131.986-19-264h60q5.505,81.991,11,164v-2q30.495-80.992,61-162h54q6.495,81.991,13,164h1q28.995-81.991,58-164h61Zm173,0q17.505,131.986,35,264h-61q-2.505-24-5-48h-76q-9.495,24-19,48h-60v-3q57-130.486,114-261h72Zm260,57c-11.33-.259-57.97-2.51-63,2q-15.495,102.489-31,205l-59-1q15-102.99,30-206h-63q4.5-28.5,9-57l185,1Q2026,348,2022,376Zm258-57h59q-7.5,51.995-15,104l79-1q7.5-51.495,15-103l59,1q-19.5,131.487-39,263l-59-1v-1q7.5-50.495,15-101h-78v2q-7.5,50.495-15,101l-60-1v-1Q2260.5,450.013,2280,319ZM1725,478q-4.5-48.995-9-98h-1q-18.495,48.995-37,98h47Z"/>
  <path id="relleno_blanco" data-name="relleno blanco" class="cls-2" d="M1232,454q-3.495,25.5-7,51H1121q3.495-25.5,7-51h104Z"/>
  <path id="relleno_naranja" data-name="relleno naranja" class="cls-3" d="M466,379c-19.543-.285-92.808-3.91-100,5-7.541,9.341-8.8,33.584-10,48l86,3v1q-4,24.5-8,49l-87,5-13,93-60-1v-1l7-48q9-56.994,18-114,4.5-28.5,9-57c13.4-37.831,57.105-50.667,113-42l52,5Zm49-60h59q-11,74.993-22,150c-4.486,24.358-5.968,52.087,16,58,15.91,4.282,35.211-1.542,42-10,16.919-21.08,35.218-158.316,37-198h59q-8,54.995-16,110c-17.767,90.455-10.117,159.764-124,156l-34-6C454.419,548.636,508.991,393.92,515,319ZM880,476l-87,3c-1.2,10.352-8.747,33-2,42,5.188,6.922,80.363,4.335,97,4l-7,54c-43.4,2.64-122.807,19.491-146-12-18.24-24.766-3.893-76.824,2-107,16.992-87,3.349-158.818,125-140l56,5q-4,26.5-8,53c-29.389-.4-81.117-6.54-100,6-2.7,6.585-12.169,30.844-6,38l82,4Q883,451,880,476Zm89-157h59q-10,71.493-20,143c-2.79,13.961-11.8,40.875-6,56,6.39,12.73,67.59,8.416,89,8q-4.5,28.5-9,57c-42.86.646-114.115,8.735-133-16-13.871-18.168-10.155-53.95-5-80Q956.5,403.009,969,319Z"/>
</svg>
