<?xml version="1.0" encoding="UTF-8" standalone="no"?>
<!-- Created with Inkscape (http://www.inkscape.org/) -->

<svg
   xmlns:dc="http://purl.org/dc/elements/1.1/"
   xmlns:cc="http://creativecommons.org/ns#"
   xmlns:rdf="http://www.w3.org/1999/02/22-rdf-syntax-ns#"
   xmlns:svg="http://www.w3.org/2000/svg"
   xmlns="http://www.w3.org/2000/svg"
   xmlns:sodipodi="http://sodipodi.sourceforge.net/DTD/sodipodi-0.dtd"
   xmlns:inkscape="http://www.inkscape.org/namespaces/inkscape"
   version="1.1"
   id="svg2"
   xml:space="preserve"
   width="4096"
   height="4096"
   viewBox="0 0 4096 4096"
   sodipodi:docname="bp-logo.svg"
   inkscape:export-filename="G:\Users\suitedoalex\sites\bp-logo-0.png"
   inkscape:export-xdpi="96"
   inkscape:export-ydpi="96"
   inkscape:version="0.92.2 (5c3e80d, 2017-08-06)"><metadata
     id="metadata8"><rdf:RDF><cc:Work
         rdf:about=""><dc:format>image/svg+xml</dc:format><dc:type
           rdf:resource="http://purl.org/dc/dcmitype/StillImage" /><dc:title></dc:title></cc:Work></rdf:RDF></metadata><defs
     id="defs6"><clipPath
       clipPathUnits="userSpaceOnUse"
       id="clipPath18"><path
         d="M 0.32,722.835 H 609.449 V 0.001 H 0.32 Z"
         id="path16"
         inkscape:connector-curvature="0" /></clipPath><clipPath
       clipPathUnits="userSpaceOnUse"
       id="clipPath32"><path
         d="M 0,0 H 609.449 V 722.835 H 0 Z"
         id="path30"
         inkscape:connector-curvature="0" /></clipPath></defs><sodipodi:namedview
     pagecolor="#ffffff"
     bordercolor="#666666"
     borderopacity="1"
     objecttolerance="10"
     gridtolerance="10"
     guidetolerance="10"
     inkscape:pageopacity="0"
     inkscape:pageshadow="2"
     inkscape:window-width="1600"
     inkscape:window-height="837"
     id="namedview4"
     showgrid="false"
     inkscape:zoom="0.061217288"
     inkscape:cx="300.06024"
     inkscape:cy="1236.6668"
     inkscape:window-x="-8"
     inkscape:window-y="-8"
     inkscape:window-maximized="1"
     inkscape:current-layer="g28" /><g
     id="g10"
     inkscape:groupmode="layer"
     inkscape:label="bp-logo"
     transform="matrix(1.3333333,0,0,-1.3333333,0,4096)"><g
       id="g26"
       transform="matrix(33.499778,0,0,33.499778,-16751.583,-20006.966)"><g
         id="g28"
         clip-path="url(#clipPath32)"><g
           id="g34"
           transform="matrix(0.85925539,0,0,0.85925539,549.36757,654.97306)"
           inkscape:export-filename="G:\Users\suitedoalex\sites\bp-logo-6.png"
           inkscape:export-xdpi="8.0226994"
           inkscape:export-ydpi="8.0226994"><path
             d="M 0,0 C -1.542,3.666 -3.453,6.456 -4.208,7.582 -4.966,6.456 -6.878,3.666 -8.425,0 -6.903,-1.636 -5.41,-3.565 -4.208,-5.742 -3.021,-3.565 -1.516,-1.636 0,0"
             style="fill:#00953f;fill-opacity:1;fill-rule:nonzero;stroke:none"
             id="path36"
             inkscape:connector-curvature="0" /></g><g
           id="g38"
           transform="matrix(0.85925539,0,0,0.85925539,542.12843,613.96484)"
           inkscape:export-filename="G:\Users\suitedoalex\sites\bp-logo-6.png"
           inkscape:export-xdpi="8.0226994"
           inkscape:export-ydpi="8.0226994"><path
             d="M 0,0 C 1.547,-3.666 3.456,-6.462 4.217,-7.585 4.972,-6.462 6.883,-3.666 8.422,0 6.909,1.643 5.407,3.563 4.217,5.744 3.015,3.563 1.522,1.643 0,0"
             style="fill:#00953f;fill-opacity:1;fill-rule:nonzero;stroke:none"
             id="path40"
             inkscape:connector-curvature="0" /></g><g
           id="g42"
           transform="matrix(0.85925539,0,0,0.85925539,542.12843,654.97306)"
           inkscape:export-filename="G:\Users\suitedoalex\sites\bp-logo-6.png"
           inkscape:export-xdpi="8.0226994"
           inkscape:export-ydpi="8.0226994"><path
             d="M 0,0 C -2.712,2.911 -5.454,4.882 -6.549,5.692 -6.881,4.367 -7.72,1.084 -7.911,-2.88 -5.926,-3.905 -3.857,-5.205 -1.99,-6.828 -1.617,-4.377 -0.862,-2.054 0,0"
             style="fill:#00953f;fill-opacity:1;fill-rule:nonzero;stroke:none"
             id="path44"
             inkscape:connector-curvature="0" /></g><g
           id="g46"
           transform="matrix(0.85925539,0,0,0.85925539,549.36757,613.96484)"
           inkscape:export-filename="G:\Users\suitedoalex\sites\bp-logo-6.png"
           inkscape:export-xdpi="8.0226994"
           inkscape:export-ydpi="8.0226994"><path
             d="M 0,0 C 2.709,-2.915 5.455,-4.879 6.552,-5.685 6.878,-4.371 7.706,-1.094 7.911,2.886 5.929,3.906 3.869,5.192 1.996,6.831 1.614,4.372 0.87,2.05 0,0"
             style="fill:#00953f;fill-opacity:1;fill-rule:nonzero;stroke:none"
             id="path48"
             inkscape:connector-curvature="0" /></g><g
           id="g50"
           transform="matrix(0.85925539,0,0,0.85925539,535.33095,652.49747)"
           inkscape:export-filename="G:\Users\suitedoalex\sites\bp-logo-6.png"
           inkscape:export-xdpi="8.0226994"
           inkscape:export-ydpi="8.0226994"><path
             d="m 0,0 c -3.546,1.81 -6.81,2.723 -8.113,3.113 0.157,-1.356 0.491,-4.723 1.656,-8.524 2.212,-0.271 4.61,-0.792 6.915,-1.688 C -0.022,-4.664 -0.118,-2.221 0,0"
             style="fill:#00953f;fill-opacity:1;fill-rule:nonzero;stroke:none"
             id="path52"
             inkscape:connector-curvature="0" /></g><g
           id="g54"
           transform="matrix(0.85925539,0,0,0.85925539,556.16506,616.44543)"
           inkscape:export-filename="G:\Users\suitedoalex\sites\bp-logo-6.png"
           inkscape:export-xdpi="8.0226994"
           inkscape:export-ydpi="8.0226994"><path
             d="M 0,0 C 3.546,-1.83 6.805,-2.733 8.116,-3.123 7.962,-1.764 7.625,1.603 6.46,5.404 4.242,5.676 1.853,6.183 -0.466,7.091 0.031,4.653 0.118,2.22 0,0"
             style="fill:#00953f;fill-opacity:1;fill-rule:nonzero;stroke:none"
             id="path56"
             inkscape:connector-curvature="0" /></g><g
           id="g58"
           transform="matrix(0.85925539,0,0,0.85925539,532.25051,642.25368)"
           inkscape:export-filename="G:\Users\suitedoalex\sites\bp-logo-6.png"
           inkscape:export-xdpi="8.0226994"
           inkscape:export-ydpi="8.0226994"><path
             d="m 0,0 c -1.291,2.121 -2.209,4.383 -2.872,6.511 -3.941,0.491 -7.324,0.248 -8.683,0.151 0.607,-1.211 2.083,-4.267 4.478,-7.438 C -4.913,-0.285 -2.49,0.052 0,0"
             style="fill:#00953f;fill-opacity:1;fill-rule:nonzero;stroke:none"
             id="path60"
             inkscape:connector-curvature="0" /></g><g
           id="g62"
           transform="matrix(0.85925539,0,0,0.85925539,559.25261,626.68749)"
           inkscape:export-filename="G:\Users\suitedoalex\sites\bp-logo-6.png"
           inkscape:export-xdpi="8.0226994"
           inkscape:export-ydpi="8.0226994"><path
             d="M 0,0 C 1.289,-2.132 2.204,-4.387 2.866,-6.517 6.819,-7.01 10.188,-6.755 11.547,-6.672 10.94,-5.451 9.48,-2.405 7.074,0.771 4.899,0.27 2.476,-0.056 0,0"
             style="fill:#00953f;fill-opacity:1;fill-rule:nonzero;stroke:none"
             id="path64"
             inkscape:connector-curvature="0" /></g><g
           id="g66"
           transform="matrix(0.85925539,0,0,0.85925539,526.16948,641.58783)"
           inkscape:export-filename="G:\Users\suitedoalex\sites\bp-logo-6.png"
           inkscape:export-xdpi="8.0226994"
           inkscape:export-ydpi="8.0226994"><path
             d="m 0,0 c -3.885,-0.888 -6.971,-2.282 -8.214,-2.829 0.982,-0.945 3.413,-3.304 6.743,-5.457 1.87,1.208 4.031,2.348 6.395,3.152 C 2.978,-3.587 1.342,-1.778 0,0"
             style="fill:#00953f;fill-opacity:1;fill-rule:nonzero;stroke:none"
             id="path68"
             inkscape:connector-curvature="0" /></g><g
           id="g70"
           transform="matrix(0.85925539,0,0,0.85925539,566.58559,634.46908)"
           inkscape:export-filename="G:\Users\suitedoalex\sites\bp-logo-6.png"
           inkscape:export-xdpi="8.0226994"
           inkscape:export-ydpi="8.0226994"><path
             d="m 0,0 c -1.867,-1.21 -4.028,-2.352 -6.381,-3.146 1.934,-1.554 3.566,-3.366 4.921,-5.14 3.877,0.88 6.968,2.281 8.214,2.823 C 5.772,-4.513 3.346,-2.164 0,0"
             style="fill:#00953f;fill-opacity:1;fill-rule:nonzero;stroke:none"
             id="path72"
             inkscape:connector-curvature="0" /></g><g
           id="g74"
           transform="matrix(0.85925539,0,0,0.85925539,530.40036,631.76509)"
           inkscape:export-filename="G:\Users\suitedoalex\sites\bp-logo-6.png"
           inkscape:export-xdpi="8.0226994"
           inkscape:export-ydpi="8.0226994"><path
             d="m 0,0 c -2.364,0.796 -4.525,1.937 -6.395,3.146 -3.332,-2.164 -5.761,-4.512 -6.746,-5.461 1.246,-0.543 4.332,-1.943 8.217,-2.823 C -3.582,-3.366 -1.945,-1.554 0,0"
             style="fill:#00953f;fill-opacity:1;fill-rule:nonzero;stroke:none"
             id="path76"
             inkscape:connector-curvature="0" /></g><g
           id="g78"
           transform="matrix(0.85925539,0,0,0.85925539,561.10276,637.17651)"
           inkscape:export-filename="G:\Users\suitedoalex\sites\bp-logo-6.png"
           inkscape:export-xdpi="8.0226994"
           inkscape:export-ydpi="8.0226994"><path
             d="M 0,0 C 2.353,-0.804 4.514,-1.944 6.381,-3.15 9.727,-1 12.153,1.36 13.135,2.305 11.889,2.852 8.798,4.246 4.921,5.134 3.565,3.356 1.934,1.547 0,0"
             style="fill:#00953f;fill-opacity:1;fill-rule:nonzero;stroke:none"
             id="path80"
             inkscape:connector-curvature="0" /></g><g
           id="g82"
           transform="matrix(0.85925539,0,0,0.85925539,526.16948,627.35007)"
           inkscape:export-filename="G:\Users\suitedoalex\sites\bp-logo-6.png"
           inkscape:export-xdpi="8.0226994"
           inkscape:export-ydpi="8.0226994"><path
             d="m 0,0 c -2.395,-3.176 -3.871,-6.222 -4.478,-7.444 1.362,-0.082 4.742,-0.337 8.683,0.156 0.663,2.13 1.578,4.384 2.872,6.517 C 4.587,-0.827 2.164,-0.501 0,0"
             style="fill:#00953f;fill-opacity:1;fill-rule:nonzero;stroke:none"
             id="path84"
             inkscape:connector-curvature="0" /></g><g
           id="g86"
           transform="matrix(0.85925539,0,0,0.85925539,565.33134,641.58783)"
           inkscape:export-filename="G:\Users\suitedoalex\sites\bp-logo-6.png"
           inkscape:export-xdpi="8.0226994"
           inkscape:export-ydpi="8.0226994"><path
             d="M 0,0 C 2.406,3.171 3.866,6.226 4.469,7.435 3.113,7.533 -0.255,7.777 -4.211,7.286 -4.87,5.158 -5.786,2.896 -7.074,0.775 -4.598,0.826 -2.175,0.49 0,0"
             style="fill:#00953f;fill-opacity:1;fill-rule:nonzero;stroke:none"
             id="path88"
             inkscape:connector-curvature="0" /></g><g
           id="g90"
           transform="matrix(0.85925539,0,0,0.85925539,535.72655,622.53874)"
           inkscape:export-filename="G:\Users\suitedoalex\sites\bp-logo-6.png"
           inkscape:export-xdpi="8.0226994"
           inkscape:export-ydpi="8.0226994"><path
             d="m 0,0 c -2.308,-0.909 -4.705,-1.414 -6.917,-1.688 -1.165,-3.801 -1.499,-7.168 -1.657,-8.526 1.303,0.389 4.568,1.294 8.114,3.123 C -0.578,-4.872 -0.483,-2.439 0,0"
             style="fill:#00953f;fill-opacity:1;fill-rule:nonzero;stroke:none"
             id="path92"
             inkscape:connector-curvature="0" /></g><g
           id="g94"
           transform="matrix(0.85925539,0,0,0.85925539,555.75974,646.39743)"
           inkscape:export-filename="G:\Users\suitedoalex\sites\bp-logo-6.png"
           inkscape:export-xdpi="8.0226994"
           inkscape:export-ydpi="8.0226994"><path
             d="M 0,0 C 2.325,0.896 4.714,1.417 6.929,1.689 8.096,5.49 8.433,8.856 8.587,10.212 7.277,9.822 4.017,8.91 0.472,7.099 0.589,4.877 0.503,2.435 0,0"
             style="fill:#00953f;fill-opacity:1;fill-rule:nonzero;stroke:none"
             id="path96"
             inkscape:connector-curvature="0" /></g><g
           id="g98"
           transform="matrix(0.85925539,0,0,0.85925539,535.33095,616.44543)"
           inkscape:export-filename="G:\Users\suitedoalex\sites\bp-logo-6.png"
           inkscape:export-xdpi="8.0226994"
           inkscape:export-ydpi="8.0226994"><path
             d="m 0,0 c 0.191,-3.981 1.03,-7.259 1.362,-8.573 1.094,0.807 3.837,2.771 6.549,5.687 C 7.049,-0.836 6.294,1.489 5.921,3.945 4.054,2.306 1.985,1.02 0,0"
             style="fill:#00953f;fill-opacity:1;fill-rule:nonzero;stroke:none"
             id="path100"
             inkscape:connector-curvature="0" /></g><g
           id="g102"
           transform="matrix(0.85925539,0,0,0.85925539,556.16506,652.49747)"
           inkscape:export-filename="G:\Users\suitedoalex\sites\bp-logo-6.png"
           inkscape:export-xdpi="8.0226994"
           inkscape:export-ydpi="8.0226994"><path
             d="M 0,0 C -0.205,3.966 -1.033,7.247 -1.359,8.574 -2.456,7.764 -5.202,5.792 -7.911,2.88 -7.055,0.829 -6.297,-1.496 -5.915,-3.947 -4.042,-2.325 -1.982,-1.022 0,0"
             style="fill:#00953f;fill-opacity:1;fill-rule:nonzero;stroke:none"
             id="path104"
             inkscape:connector-curvature="0" /></g><g
           id="g106"
           transform="matrix(0.85925539,0,0,0.85925539,543.89428,644.97683)"
           inkscape:export-filename="G:\Users\suitedoalex\sites\bp-logo-6.png"
           inkscape:export-xdpi="8.0226994"
           inkscape:export-ydpi="8.0226994"><path
             d="M 0,0 C 0.393,2.124 1.179,4.09 2.161,5.892 0.96,8.069 -0.533,9.999 -2.055,11.634 -2.917,9.581 -3.672,7.256 -4.045,4.806 -2.504,3.449 -1.101,1.854 0,0"
             style="fill:#85bc1f;fill-opacity:1;fill-rule:nonzero;stroke:none"
             id="path108"
             inkscape:connector-curvature="0" /></g><g
           id="g110"
           transform="matrix(0.85925539,0,0,0.85925539,547.60188,623.96417)"
           inkscape:export-filename="G:\Users\suitedoalex\sites\bp-logo-6.png"
           inkscape:export-xdpi="8.0226994"
           inkscape:export-ydpi="8.0226994"><path
             d="m 0,0 c -0.399,-2.128 -1.171,-4.098 -2.153,-5.893 1.19,-2.182 2.692,-4.101 4.208,-5.744 0.87,2.05 1.614,4.372 1.993,6.83 C 2.51,-3.454 1.1,-1.861 0,0"
             style="fill:#85bc1f;fill-opacity:1;fill-rule:nonzero;stroke:none"
             id="path112"
             inkscape:connector-curvature="0" /></g><g
           id="g114"
           transform="matrix(0.85925539,0,0,0.85925539,535.72655,646.39743)"
           inkscape:export-filename="G:\Users\suitedoalex\sites\bp-logo-6.png"
           inkscape:export-xdpi="8.0226994"
           inkscape:export-ydpi="8.0226994"><path
             d="M 0,0 C 1.912,-0.756 3.776,-1.758 5.452,-3.142 5.087,-0.994 5.146,1.125 5.46,3.152 3.596,4.775 1.524,6.076 -0.46,7.099 -0.578,4.877 -0.483,2.435 0,0"
             style="fill:#85bc1f;fill-opacity:1;fill-rule:nonzero;stroke:none"
             id="path116"
             inkscape:connector-curvature="0" /></g><g
           id="g118"
           transform="matrix(0.85925539,0,0,0.85925539,555.76456,622.53874)"
           inkscape:export-filename="G:\Users\suitedoalex\sites\bp-logo-6.png"
           inkscape:export-xdpi="8.0226994"
           inkscape:export-ydpi="8.0226994"><path
             d="m 0,0 c -1.912,0.748 -3.77,1.77 -5.441,3.131 0.348,-2.124 0.301,-4.249 -0.008,-6.277 1.873,-1.64 3.933,-2.927 5.915,-3.945 C 0.584,-4.872 0.497,-2.439 0,0"
             style="fill:#85bc1f;fill-opacity:1;fill-rule:nonzero;stroke:none"
             id="path120"
             inkscape:connector-curvature="0" /></g><g
           id="g122"
           transform="matrix(0.85925539,0,0,0.85925539,537.57188,641.32938)"
           inkscape:export-filename="G:\Users\suitedoalex\sites\bp-logo-6.png"
           inkscape:export-xdpi="8.0226994"
           inkscape:export-ydpi="8.0226994"><path
             d="m 0,0 c -1.075,1.873 -1.735,3.883 -2.148,5.897 -2.31,0.897 -4.705,1.418 -6.917,1.69 0.663,-2.128 1.581,-4.39 2.872,-6.511 C -4.141,1.03 -2.049,0.717 0,0"
             style="fill:#85bc1f;fill-opacity:1;fill-rule:nonzero;stroke:none"
             id="path124"
             inkscape:connector-curvature="0" /></g><g
           id="g126"
           transform="matrix(0.85925539,0,0,0.85925539,553.9267,627.61343)"
           inkscape:export-filename="G:\Users\suitedoalex\sites\bp-logo-6.png"
           inkscape:export-xdpi="8.0226994"
           inkscape:export-ydpi="8.0226994"><path
             d="M 0,0 C 1.061,-1.885 1.737,-3.894 2.136,-5.906 4.458,-6.815 6.847,-7.321 9.065,-7.595 8.402,-5.464 7.487,-3.209 6.198,-1.077 4.146,-1.041 2.038,-0.725 0,0"
             style="fill:#85bc1f;fill-opacity:1;fill-rule:nonzero;stroke:none"
             id="path128"
             inkscape:connector-curvature="0" /></g><g
           id="g130"
           transform="matrix(0.85925539,0,0,0.85925539,530.40036,637.17651)"
           inkscape:export-filename="G:\Users\suitedoalex\sites\bp-logo-6.png"
           inkscape:export-xdpi="8.0226994"
           inkscape:export-ydpi="8.0226994"><path
             d="M 0,0 C 1.934,0.651 4.023,1.073 6.173,1.102 4.548,2.5 3.217,4.162 2.153,5.909 -0.337,5.959 -2.76,5.623 -4.924,5.134 -3.582,3.356 -1.945,1.547 0,0"
             style="fill:#85bc1f;fill-opacity:1;fill-rule:nonzero;stroke:none"
             id="path132"
             inkscape:connector-curvature="0" /></g><g
           id="g134"
           transform="matrix(0.85925539,0,0,0.85925539,561.10276,631.76509)"
           inkscape:export-filename="G:\Users\suitedoalex\sites\bp-logo-6.png"
           inkscape:export-xdpi="8.0226994"
           inkscape:export-ydpi="8.0226994"><path
             d="m 0,0 c -1.957,-0.651 -4.029,-1.077 -6.193,-1.103 1.651,-1.406 2.965,-3.056 4.04,-4.806 2.476,-0.056 4.899,0.27 7.074,0.771 C 3.565,-3.366 1.934,-1.554 0,0"
             style="fill:#85bc1f;fill-opacity:1;fill-rule:nonzero;stroke:none"
             id="path136"
             inkscape:connector-curvature="0" /></g><g
           id="g138"
           transform="matrix(0.85925539,0,0,0.85925539,535.07282,634.46899)"
           inkscape:export-filename="G:\Users\suitedoalex\sites\bp-logo-6.png"
           inkscape:export-xdpi="8.0226994"
           inkscape:export-ydpi="8.0226994"><path
             d="M 0,0 C -2.024,0.758 -3.835,1.862 -5.438,3.15 -7.801,2.348 -9.963,1.207 -11.833,0 -9.963,-1.21 -7.801,-2.352 -5.438,-3.146 -3.835,-1.868 -2.024,-0.763 0,0"
             style="fill:#85bc1f;fill-opacity:1;fill-rule:nonzero;stroke:none"
             id="path140"
             inkscape:connector-curvature="0" /></g><g
           id="g142"
           transform="matrix(0.85925539,0,0,0.85925539,556.42558,634.46899)"
           inkscape:export-filename="G:\Users\suitedoalex\sites\bp-logo-6.png"
           inkscape:export-xdpi="8.0226994"
           inkscape:export-ydpi="8.0226994"><path
             d="M 0,0 C 2.033,-0.763 3.832,-1.868 5.443,-3.146 7.796,-2.352 9.957,-1.21 11.824,0 9.957,1.207 7.796,2.348 5.443,3.15 3.832,1.862 2.033,0.758 0,0"
             style="fill:#85bc1f;fill-opacity:1;fill-rule:nonzero;stroke:none"
             id="path144"
             inkscape:connector-curvature="0" /></g><g
           id="g146"
           transform="matrix(0.85925539,0,0,0.85925539,532.25051,626.68749)"
           inkscape:export-filename="G:\Users\suitedoalex\sites\bp-logo-6.png"
           inkscape:export-xdpi="8.0226994"
           inkscape:export-ydpi="8.0226994"><path
             d="M 0,0 C 1.064,1.751 2.395,3.402 4.02,4.808 1.87,4.834 -0.219,5.259 -2.153,5.909 -4.099,4.357 -5.735,2.543 -7.077,0.771 -4.913,0.27 -2.49,-0.056 0,0"
             style="fill:#85bc1f;fill-opacity:1;fill-rule:nonzero;stroke:none"
             id="path148"
             inkscape:connector-curvature="0" /></g><g
           id="g150"
           transform="matrix(0.85925539,0,0,0.85925539,559.25261,642.25368)"
           inkscape:export-filename="G:\Users\suitedoalex\sites\bp-logo-6.png"
           inkscape:export-xdpi="8.0226994"
           inkscape:export-ydpi="8.0226994"><path
             d="m 0,0 c -1.075,-1.746 -2.389,-3.409 -4.04,-4.808 2.165,-0.029 4.237,-0.451 6.193,-1.101 1.934,1.546 3.566,3.356 4.921,5.133 C 4.899,-0.285 2.476,0.052 0,0"
             style="fill:#85bc1f;fill-opacity:1;fill-rule:nonzero;stroke:none"
             id="path152"
             inkscape:connector-curvature="0" /></g><g
           id="g154"
           transform="matrix(0.85925539,0,0,0.85925539,537.57188,627.61343)"
           inkscape:export-filename="G:\Users\suitedoalex\sites\bp-logo-6.png"
           inkscape:export-xdpi="8.0226994"
           inkscape:export-ydpi="8.0226994"><path
             d="m 0,0 c -2.049,-0.725 -4.141,-1.041 -6.193,-1.077 -1.291,-2.132 -2.209,-4.387 -2.872,-6.518 2.212,0.274 4.607,0.78 6.917,1.689 C -1.735,-3.894 -1.075,-1.885 0,0"
             style="fill:#85bc1f;fill-opacity:1;fill-rule:nonzero;stroke:none"
             id="path156"
             inkscape:connector-curvature="0" /></g><g
           id="g158"
           transform="matrix(0.85925539,0,0,0.85925539,553.9267,641.32938)"
           inkscape:export-filename="G:\Users\suitedoalex\sites\bp-logo-6.png"
           inkscape:export-xdpi="8.0226994"
           inkscape:export-ydpi="8.0226994"><path
             d="M 0,0 C 2.038,0.717 4.146,1.03 6.198,1.076 7.487,3.197 8.402,5.459 9.065,7.587 6.847,7.315 4.458,6.794 2.13,5.897 1.737,3.883 1.061,1.873 0,0"
             style="fill:#85bc1f;fill-opacity:1;fill-rule:nonzero;stroke:none"
             id="path160"
             inkscape:connector-curvature="0" /></g><g
           id="g162"
           transform="matrix(0.85925539,0,0,0.85925539,543.89428,623.96417)"
           inkscape:export-filename="G:\Users\suitedoalex\sites\bp-logo-6.png"
           inkscape:export-xdpi="8.0226994"
           inkscape:export-ydpi="8.0226994"><path
             d="m 0,0 c -1.101,-1.861 -2.504,-3.454 -4.045,-4.807 0.373,-2.455 1.128,-4.78 1.99,-6.83 1.522,1.643 3.015,3.562 4.216,5.744 C 1.179,-4.098 0.393,-2.128 0,0"
             style="fill:#85bc1f;fill-opacity:1;fill-rule:nonzero;stroke:none"
             id="path164"
             inkscape:connector-curvature="0" /></g><g
           id="g166"
           transform="matrix(0.85925539,0,0,0.85925539,540.41104,625.22891)"
           inkscape:export-filename="G:\Users\suitedoalex\sites\bp-logo-6.png"
           inkscape:export-xdpi="8.0226994"
           inkscape:export-ydpi="8.0226994"><path
             d="m 0,0 c -1.676,-1.36 -3.537,-2.383 -5.452,-3.131 -0.483,-2.439 -0.578,-4.872 -0.46,-7.092 1.985,1.02 4.056,2.306 5.92,3.945 C -0.306,-4.249 -0.365,-2.124 0,0"
             style="fill:#85bc1f;fill-opacity:1;fill-rule:nonzero;stroke:none"
             id="path168"
             inkscape:connector-curvature="0" /></g><g
           id="g170"
           transform="matrix(0.85925539,0,0,0.85925539,547.60188,644.98465)"
           inkscape:export-filename="G:\Users\suitedoalex\sites\bp-logo-6.png"
           inkscape:export-xdpi="8.0226994"
           inkscape:export-ydpi="8.0226994"><path
             d="M 0,0 C 1.1,1.844 2.51,3.441 4.048,4.796 3.669,7.247 2.911,9.572 2.055,11.625 0.539,9.99 -0.963,8.058 -2.153,5.882 -1.171,4.079 -0.399,2.115 0,0"
             style="fill:#85bc1f;fill-opacity:1;fill-rule:nonzero;stroke:none"
             id="path172"
             inkscape:connector-curvature="0" /></g><g
           id="g174"
           transform="matrix(0.85925539,0,0,0.85925539,551.08969,643.69782)"
           inkscape:export-filename="G:\Users\suitedoalex\sites\bp-logo-6.png"
           inkscape:export-xdpi="8.0226994"
           inkscape:export-ydpi="8.0226994"><path
             d="M 0,0 C 1.67,1.384 3.529,2.385 5.432,3.142 5.938,5.577 6.025,8.018 5.907,10.241 3.925,9.217 1.864,7.917 -0.008,6.294 0.301,4.266 0.348,2.148 0,0"
             style="fill:#85bc1f;fill-opacity:1;fill-rule:nonzero;stroke:none"
             id="path176"
             inkscape:connector-curvature="0" /></g><g
           id="g178"
           transform="matrix(0.85925539,0,0,0.85925539,543.9039,639.53886)"
           inkscape:export-filename="G:\Users\suitedoalex\sites\bp-logo-6.png"
           inkscape:export-xdpi="8.0226994"
           inkscape:export-ydpi="8.0226994"><path
             d="M 0,0 C -0.43,2.223 -0.39,4.344 -0.011,6.329 -1.112,8.182 -2.515,9.779 -4.057,11.134 -4.371,9.105 -4.43,6.989 -4.065,4.841 -2.51,3.572 -1.112,1.974 0,0"
             style="fill:#fce500;fill-opacity:1;fill-rule:nonzero;stroke:none"
             id="path180"
             inkscape:connector-curvature="0" /></g><g
           id="g182"
           transform="matrix(0.85925539,0,0,0.85925539,547.58968,629.39922)"
           inkscape:export-filename="G:\Users\suitedoalex\sites\bp-logo-6.png"
           inkscape:export-xdpi="8.0226994"
           inkscape:export-ydpi="8.0226994"><path
             d="m 0,0 c 0.427,-2.224 0.39,-4.345 0.014,-6.325 1.101,-1.862 2.51,-3.454 4.051,-4.805 0.309,2.027 0.356,4.153 0.008,6.277 C 2.512,-3.576 1.115,-1.982 0,0"
             style="fill:#fce500;fill-opacity:1;fill-rule:nonzero;stroke:none"
             id="path184"
             inkscape:connector-curvature="0" /></g><g
           id="g186"
           transform="matrix(0.85925539,0,0,0.85925539,540.41104,643.69782)"
           inkscape:export-filename="G:\Users\suitedoalex\sites\bp-logo-6.png"
           inkscape:export-xdpi="8.0226994"
           inkscape:export-ydpi="8.0226994"><path
             d="m 0,0 c -1.676,1.384 -3.54,2.385 -5.452,3.142 0.413,-2.016 1.072,-4.025 2.148,-5.898 1.903,-0.672 3.753,-1.696 5.48,-3.18 C 1.013,-3.986 0.323,-1.986 0,0"
             style="fill:#fce500;fill-opacity:1;fill-rule:nonzero;stroke:none"
             id="path188"
             inkscape:connector-curvature="0" /></g><g
           id="g190"
           transform="matrix(0.85925539,0,0,0.85925539,551.08969,625.22891)"
           inkscape:export-filename="G:\Users\suitedoalex\sites\bp-logo-6.png"
           inkscape:export-xdpi="8.0226994"
           inkscape:export-ydpi="8.0226994"><path
             d="M 0,0 C 1.67,-1.36 3.529,-2.383 5.441,-3.131 5.039,-1.121 4.365,0.891 3.302,2.776 1.404,3.448 -0.463,4.459 -2.175,5.942 -1.025,3.99 -0.331,1.992 0,0"
             style="fill:#fce500;fill-opacity:1;fill-rule:nonzero;stroke:none"
             id="path192"
             inkscape:connector-curvature="0" /></g><g
           id="g194"
           transform="matrix(0.85925539,0,0,0.85925539,541.07206,637.16809)"
           inkscape:export-filename="G:\Users\suitedoalex\sites\bp-logo-6.png"
           inkscape:export-xdpi="8.0226994"
           inkscape:export-ydpi="8.0226994"><path
             d="M 0,0 C -1.757,1.429 -3.085,3.07 -4.073,4.844 -6.123,5.56 -8.214,5.873 -10.266,5.919 -9.202,4.171 -7.875,2.51 -6.249,1.111 -4.217,1.126 -2.12,0.806 0,0"
             style="fill:#fce500;fill-opacity:1;fill-rule:nonzero;stroke:none"
             id="path196"
             inkscape:connector-curvature="0" /></g><g
           id="g198"
           transform="matrix(0.85925539,0,0,0.85925539,550.42643,631.77609)"
           inkscape:export-filename="G:\Users\suitedoalex\sites\bp-logo-6.png"
           inkscape:export-xdpi="8.0226994"
           inkscape:export-ydpi="8.0226994"><path
             d="M 0,0 C 1.749,-1.439 3.082,-3.096 4.074,-4.845 6.112,-5.57 8.22,-5.887 10.272,-5.922 9.197,-4.171 7.883,-2.52 6.232,-1.114 4.211,-1.138 2.125,-0.81 0,0"
             style="fill:#fce500;fill-opacity:1;fill-rule:nonzero;stroke:none"
             id="path200"
             inkscape:connector-curvature="0" /></g><g
           id="g202"
           transform="matrix(0.85925539,0,0,0.85925539,540.43518,635.39682)"
           inkscape:export-filename="G:\Users\suitedoalex\sites\bp-logo-6.png"
           inkscape:export-xdpi="8.0226994"
           inkscape:export-ydpi="8.0226994"><path
             d="M 0,0 C -2.151,0.752 -3.956,1.851 -5.505,3.172 -7.656,3.143 -9.744,2.723 -11.678,2.071 -10.075,0.782 -8.265,-0.322 -6.241,-1.08 -4.354,-0.359 -2.282,0.03 0,0"
             style="fill:#fce500;fill-opacity:1;fill-rule:nonzero;stroke:none"
             id="path204"
             inkscape:connector-curvature="0" /></g><g
           id="g206"
           transform="matrix(0.85925539,0,0,0.85925539,551.06313,633.53336)"
           inkscape:export-filename="G:\Users\suitedoalex\sites\bp-logo-6.png"
           inkscape:export-xdpi="8.0226994"
           inkscape:export-ydpi="8.0226994"><path
             d="m 0,0 c 2.148,-0.751 3.956,-1.843 5.491,-3.161 2.165,0.026 4.237,0.452 6.193,1.103 C 10.073,-0.778 8.273,0.326 6.241,1.088 4.346,0.385 2.266,-0.033 0,0"
             style="fill:#fce500;fill-opacity:1;fill-rule:nonzero;stroke:none"
             id="path208"
             inkscape:connector-curvature="0" /></g><g
           id="g210"
           transform="matrix(0.85925539,0,0,0.85925539,535.07282,634.46899)"
           inkscape:export-filename="G:\Users\suitedoalex\sites\bp-logo-6.png"
           inkscape:export-xdpi="8.0226994"
           inkscape:export-ydpi="8.0226994"><path
             d="m 0,0 c -2.024,-0.763 -3.835,-1.868 -5.438,-3.146 1.934,-0.652 4.023,-1.077 6.174,-1.103 1.549,1.318 3.354,2.408 5.505,3.158 C 3.958,-1.122 1.886,-0.704 0,0"
             style="fill:#fce500;fill-opacity:1;fill-rule:nonzero;stroke:none"
             id="path212"
             inkscape:connector-curvature="0" /></g><g
           id="g214"
           transform="matrix(0.85925539,0,0,0.85925539,556.42558,634.46899)"
           inkscape:export-filename="G:\Users\suitedoalex\sites\bp-logo-6.png"
           inkscape:export-xdpi="8.0226994"
           inkscape:export-ydpi="8.0226994"><path
             d="M 0,0 C 2.033,0.758 3.832,1.862 5.443,3.15 3.487,3.801 1.415,4.223 -0.75,4.252 -2.285,2.931 -4.093,1.832 -6.241,1.08 -3.975,1.11 -1.892,0.719 0,0"
             style="fill:#fce500;fill-opacity:1;fill-rule:nonzero;stroke:none"
             id="path216"
             inkscape:connector-curvature="0" /></g><g
           id="g218"
           transform="matrix(0.85925539,0,0,0.85925539,541.07206,631.77609)"
           inkscape:export-filename="G:\Users\suitedoalex\sites\bp-logo-6.png"
           inkscape:export-xdpi="8.0226994"
           inkscape:export-ydpi="8.0226994"><path
             d="m 0,0 c -2.12,-0.81 -4.217,-1.138 -6.249,-1.114 -1.626,-1.406 -2.953,-3.057 -4.017,-4.808 2.052,0.035 4.143,0.352 6.193,1.077 C -3.085,-3.096 -1.757,-1.439 0,0"
             style="fill:#fce500;fill-opacity:1;fill-rule:nonzero;stroke:none"
             id="path220"
             inkscape:connector-curvature="0" /></g><g
           id="g222"
           transform="matrix(0.85925539,0,0,0.85925539,550.41912,637.16809)"
           inkscape:export-filename="G:\Users\suitedoalex\sites\bp-logo-6.png"
           inkscape:export-xdpi="8.0226994"
           inkscape:export-ydpi="8.0226994"><path
             d="M 0,0 C 2.131,0.806 4.219,1.126 6.241,1.111 7.891,2.51 9.205,4.171 10.28,5.919 8.228,5.873 6.12,5.56 4.082,4.844 3.088,3.07 1.757,1.429 0,0"
             style="fill:#fce500;fill-opacity:1;fill-rule:nonzero;stroke:none"
             id="path224"
             inkscape:connector-curvature="0" /></g><g
           id="g226"
           transform="matrix(0.85925539,0,0,0.85925539,543.89428,623.96417)"
           inkscape:export-filename="G:\Users\suitedoalex\sites\bp-logo-6.png"
           inkscape:export-xdpi="8.0226994"
           inkscape:export-ydpi="8.0226994"><path
             d="M 0,0 C 0.393,-2.128 1.179,-4.098 2.161,-5.893 3.144,-4.098 3.916,-2.128 4.315,0 3.282,1.729 2.527,3.709 2.161,5.952 1.785,3.709 1.027,1.729 0,0"
             style="fill:#fce500;fill-opacity:1;fill-rule:nonzero;stroke:none"
             id="path228"
             inkscape:connector-curvature="0" /></g><g
           id="g230"
           transform="matrix(0.85925539,0,0,0.85925539,543.9039,629.39922)"
           inkscape:export-filename="G:\Users\suitedoalex\sites\bp-logo-6.png"
           inkscape:export-xdpi="8.0226994"
           inkscape:export-ydpi="8.0226994"><path
             d="m 0,0 c -1.112,-1.982 -2.51,-3.576 -4.065,-4.853 -0.365,-2.124 -0.306,-4.25 0.008,-6.277 1.542,1.351 2.945,2.943 4.046,4.805 C -0.39,-4.345 -0.43,-2.224 0,0"
             style="fill:#fce500;fill-opacity:1;fill-rule:nonzero;stroke:none"
             id="path232"
             inkscape:connector-curvature="0" /></g><g
           id="g234"
           transform="matrix(0.85925539,0,0,0.85925539,537.57188,627.61343)"
           inkscape:export-filename="G:\Users\suitedoalex\sites\bp-logo-6.png"
           inkscape:export-xdpi="8.0226994"
           inkscape:export-ydpi="8.0226994"><path
             d="m 0,0 c -1.075,-1.885 -1.735,-3.894 -2.148,-5.906 1.915,0.747 3.776,1.771 5.452,3.13 C 3.627,-0.783 4.318,1.215 5.48,3.168 3.753,1.684 1.903,0.672 0,0"
             style="fill:#fce500;fill-opacity:1;fill-rule:nonzero;stroke:none"
             id="path236"
             inkscape:connector-curvature="0" /></g><g
           id="g238"
           transform="matrix(0.85925539,0,0,0.85925539,547.60188,644.98465)"
           inkscape:export-filename="G:\Users\suitedoalex\sites\bp-logo-6.png"
           inkscape:export-xdpi="8.0226994"
           inkscape:export-ydpi="8.0226994"><path
             d="m 0,0 c -0.399,2.115 -1.171,4.079 -2.153,5.882 -0.983,-1.803 -1.769,-3.767 -2.162,-5.89 1.027,-1.75 1.785,-3.73 2.162,-5.954 C -1.788,-3.738 -1.033,-1.758 0,0"
             style="fill:#fce500;fill-opacity:1;fill-rule:nonzero;stroke:none"
             id="path240"
             inkscape:connector-curvature="0" /></g><g
           id="g242"
           transform="matrix(0.85925539,0,0,0.85925539,547.58968,639.53886)"
           inkscape:export-filename="G:\Users\suitedoalex\sites\bp-logo-6.png"
           inkscape:export-xdpi="8.0226994"
           inkscape:export-ydpi="8.0226994"><path
             d="M 0,0 C 1.115,1.974 2.512,3.572 4.073,4.841 4.421,6.989 4.374,9.105 4.065,11.134 2.524,9.779 1.115,8.182 0.014,6.339 0.39,4.344 0.427,2.223 0,0"
             style="fill:#fce500;fill-opacity:1;fill-rule:nonzero;stroke:none"
             id="path244"
             inkscape:connector-curvature="0" /></g><g
           id="g246"
           transform="matrix(0.85925539,0,0,0.85925539,553.9267,641.32938)"
           inkscape:export-filename="G:\Users\suitedoalex\sites\bp-logo-6.png"
           inkscape:export-xdpi="8.0226994"
           inkscape:export-ydpi="8.0226994"><path
             d="M 0,0 C 1.061,1.873 1.737,3.883 2.13,5.897 0.227,5.142 -1.634,4.14 -3.302,2.756 -3.633,0.77 -4.329,-1.229 -5.477,-3.18 -3.765,-1.696 -1.898,-0.67 0,0"
             style="fill:#fce500;fill-opacity:1;fill-rule:nonzero;stroke:none"
             id="path248"
             inkscape:connector-curvature="0" /></g><g
           id="g250"
           transform="matrix(0.85925539,0,0,0.85925539,543.9039,639.53886)"
           inkscape:export-filename="G:\Users\suitedoalex\sites\bp-logo-6.png"
           inkscape:export-xdpi="8.0226994"
           inkscape:export-ydpi="8.0226994"><path
             d="m 0,0 c -1.112,1.974 -2.51,3.572 -4.065,4.841 0.323,-1.988 1.013,-3.986 2.176,-5.938 -1.727,1.486 -3.577,2.51 -5.48,3.181 0.988,-1.773 2.316,-3.415 4.073,-4.842 -2.119,0.804 -4.216,1.125 -6.249,1.111 1.553,-1.322 3.358,-2.421 5.508,-3.173 -2.282,0.031 -4.354,-0.36 -6.241,-1.08 1.887,-0.704 3.959,-1.122 6.241,-1.092 -2.15,-0.749 -3.955,-1.839 -5.508,-3.157 2.033,-0.022 4.13,0.304 6.249,1.114 -1.757,-1.437 -3.085,-3.096 -4.073,-4.844 1.903,0.673 3.753,1.685 5.48,3.168 -1.163,-1.953 -1.853,-3.95 -2.176,-5.944 1.555,1.278 2.953,2.872 4.065,4.855 -0.43,-2.225 -0.39,-4.346 -0.011,-6.326 1.027,1.729 1.785,3.71 2.161,5.952 0.365,-2.242 1.121,-4.223 2.154,-5.952 0.376,1.98 0.41,4.101 -0.014,6.326 1.114,-1.983 2.512,-3.577 4.073,-4.855 -0.332,1.994 -1.027,3.991 -2.176,5.944 1.713,-1.483 3.58,-2.495 5.478,-3.168 -0.992,1.748 -2.325,3.407 -4.074,4.844 2.125,-0.81 4.211,-1.136 6.232,-1.114 -1.536,1.318 -3.343,2.408 -5.491,3.16 2.265,-0.033 4.346,0.385 6.241,1.089 -1.895,0.72 -3.976,1.111 -6.241,1.08 2.148,0.752 3.955,1.851 5.491,3.173 -2.021,0.014 -4.107,-0.307 -6.243,-1.111 1.76,1.427 3.093,3.069 4.085,4.842 C 9.767,1.413 7.9,0.389 6.187,-1.097 7.336,0.855 8.031,2.853 8.363,4.841 6.802,3.572 5.404,1.974 4.29,0 4.714,2.223 4.68,4.344 4.304,6.339 3.271,4.579 2.515,2.601 2.15,0.375 1.774,2.601 1.016,4.579 -0.011,6.329 -0.39,4.344 -0.43,2.223 0,0"
             style="fill:#fcfefe;fill-opacity:1;fill-rule:nonzero;stroke:none"
             id="path252"
             inkscape:connector-curvature="0" /></g><g
           id="g254"
           transform="matrix(0.85925539,0,0,0.85925539,553.43838,678.70836)"
           style="fill:#009900;fill-opacity:1"
           inkscape:export-filename="G:\Users\suitedoalex\sites\bp-logo-6.png"
           inkscape:export-xdpi="8.0226994"
           inkscape:export-ydpi="8.0226994"><path
             d="m 0,0 h 2.02 v -6.148 l 0.529,0.535 c 0.769,0.746 1.791,1.124 3.061,1.14 0.635,0 1.229,-0.104 1.784,-0.314 0.516,-0.203 0.952,-0.489 1.312,-0.864 1.022,-1.093 1.542,-2.63 1.558,-4.615 -0.016,-1.686 -0.398,-3.031 -1.144,-4.041 -0.904,-1.204 -2.128,-1.812 -3.667,-1.82 -0.643,-0.007 -1.24,0.107 -1.783,0.344 -0.478,0.195 -0.903,0.474 -1.267,0.838 l -0.383,0.401 v -1.262 H 0 Z m 2.02,-10.38 c -0.023,-2.814 0.992,-4.225 3.039,-4.233 1.098,-0.007 1.914,0.455 2.442,1.392 0.425,0.749 0.643,1.709 0.65,2.875 0.008,0.891 -0.141,1.721 -0.448,2.481 -0.485,1.231 -1.35,1.855 -2.59,1.878 -1.083,0 -1.914,-0.486 -2.499,-1.461 C 2.212,-8.121 2.013,-9.1 2.02,-10.38 m 12.571,4.656 c 0.781,0.826 1.83,1.243 3.154,1.251 0.643,0 1.259,-0.123 1.848,-0.371 0.532,-0.226 0.98,-0.528 1.347,-0.91 0.987,-1.032 1.477,-2.527 1.47,-4.489 0,-1.969 -0.486,-3.464 -1.458,-4.481 -0.41,-0.447 -0.911,-0.795 -1.497,-1.039 -0.589,-0.241 -1.209,-0.364 -1.867,-0.364 -1.332,0.008 -2.377,0.409 -3.142,1.201 l -0.28,0.313 v -5.276 h -2.02 v 15.095 h 2.02 V -6.24 Z m -0.47,-4.698 c -0.008,-0.868 0.114,-1.641 0.367,-2.313 0.436,-1.251 1.32,-1.878 2.652,-1.878 0.448,-0.007 0.85,0.069 1.198,0.226 1.301,0.524 1.952,1.915 1.959,4.179 0.008,0.814 -0.13,1.594 -0.413,2.336 -0.456,1.258 -1.332,1.885 -2.629,1.885 -1.129,0.015 -1.971,-0.471 -2.53,-1.461 -0.394,-0.711 -0.597,-1.701 -0.604,-2.974"
             style="fill:#009900;fill-opacity:1;fill-rule:nonzero;stroke:none"
             id="path256"
             inkscape:connector-curvature="0" /></g><g
           id="g258"
           transform="matrix(0.85925539,0,0,0.85925539,572.21113,629.94707)"
           inkscape:export-filename="G:\Users\suitedoalex\sites\bp-logo-6.png"
           inkscape:export-xdpi="8.0226994"
           inkscape:export-ydpi="8.0226994"><path
             d="M 0,0 V -0.291 C 0.074,-0.258 0.143,-0.228 0.207,-0.2 0.144,-0.139 0.075,-0.072 0,0"
             style="fill:#8ac798;fill-opacity:1;fill-rule:nonzero;stroke:none"
             id="path260"
             inkscape:connector-curvature="0" /></g><g
           id="g262"
           transform="matrix(0.85925539,0,0,0.85925539,572.21113,639.2352)"
           inkscape:export-filename="G:\Users\suitedoalex\sites\bp-logo-6.png"
           inkscape:export-xdpi="8.0226994"
           inkscape:export-ydpi="8.0226994"><path
             d="m 0,0 v -0.291 c 0.075,0.072 0.144,0.139 0.207,0.2 C 0.143,-0.063 0.074,-0.033 0,0"
             style="fill:#8ac798;fill-opacity:1;fill-rule:nonzero;stroke:none"
             id="path264"
             inkscape:connector-curvature="0" /></g></g></g></g></svg>