<?xml version="1.0" encoding="utf-8"?>
<!-- Generator: Adobe Illustrator 18.0.0, SVG Export Plug-In . SVG Version: 6.00 Build 0)  -->
<!DOCTYPE svg PUBLIC "-//W3C//DTD SVG 1.1//EN" "http://www.w3.org/Graphics/SVG/1.1/DTD/svg11.dtd">
<svg version="1.1" id="Capa_1" xmlns="http://www.w3.org/2000/svg" xmlns:xlink="http://www.w3.org/1999/xlink" x="0px" y="0px"
	 viewBox="0 0 180 49" enable-background="new 0 0 180 49" xml:space="preserve">
<title>logo</title>
<desc>Created with Sketch.</desc>
<g>
	<path fill="#D52B1E" d="M18,25.1l-9.7,0c-0.8,0-1.5,0.2-2.1,0.7c-0.3,0.3-5,4-5.6,4.6c-1,0.8-0.5,1.3,0.2,1.3l14.1,0
		c1,0,1.1,0.5,1,1.1l-2.9,14.5c-0.2,0.9,0.6,1,1,0.6l5.3-4.3c0.7-0.5,1.8-1.3,2.1-2.7c0,0,1.4-7.2,2.1-10.1
		C24,27.3,21.4,25.1,18,25.1z"/>
	<path fill="#D52B1E" d="M49.4,25.1l-16.6,0c-3,0-6.4,2.5-6.9,4.8l-1.6,8c-0.2,0.9,0.5,1.1,1.3,0.6l7.7-6.2c0.4-0.3,1-0.6,1.5-0.6
		l7.1,0c0.8,0,1.5-0.2,2.1-0.7c0.3-0.3,5-4,5.6-4.6C50.6,25.6,50,25.1,49.4,25.1z"/>
	<path fill="#D52B1E" d="M27.5,10.2c0.2-0.9-0.5-1.1-1.3-0.6l-7.7,6.3c-0.4,0.3-1,0.6-1.5,0.6H10c-0.8,0-1.5,0.2-2.1,0.7
		c-0.3,0.3-5,4-5.6,4.6c-1,0.8-0.5,1.3,0.2,1.3L19,23c3,0,6.4-2.5,6.9-4.8L27.5,10.2z"/>
	<path fill="#D52B1E" d="M51.1,16.4l-14.1,0c-1,0-1.1-0.5-1-1l2.9-14.5c0.2-0.9-0.6-1-1-0.6l-5.7,4.6c-0.6,0.5-1.5,1.3-1.7,2.7
		c-0.6,3.1-1.4,6.8-2,9.8c-0.7,3.5,2,5.7,5.3,5.7l9.7,0c0.8,0,1.5-0.2,2.1-0.7c0.3-0.3,5-4,5.6-4.6C52.2,16.9,51.7,16.4,51.1,16.4z"
		/>
	<path fill="#D52B1E" d="M105.5,16.4l1-5.2H87.4l-4.1,20.4c-0.6,2.8,1.1,5.2,4.1,5.2h14l1-5.2H90.7c-1.1,0-1.5-0.9-1.3-1.7
		c0.2-1,0.7-3.5,0.7-3.5h12.5l1-5.2H91.1l1-4.9L105.5,16.4z"/>
	<path fill="#D52B1E" d="M175.7,11.2h-15.4l-5.2,25.7h5.7l1.5-7.3h9.1l-1.5,7.3h5.7l4.1-20.5C180.5,13.6,178.7,11.2,175.7,11.2z
		 M173.8,18.1l-1.3,6.3h-9.1l1.6-8h7.6C173.7,16.4,173.9,17.5,173.8,18.1z"/>
	<path fill="#D52B1E" d="M77.9,11.2H67c-2.7,0-5.1,2.5-5.6,5.2l-3.1,15.3c-0.6,2.9,1.3,5.2,4,5.2l10.8,0c2.5,0,5.3-2.3,5.9-5.2
		l0.6-3h-5.7L73.6,30c-0.2,1.1-1.3,1.7-1.9,1.7h-6c-0.8,0-1.4-0.7-1.3-1.7l2.4-12.1c0,0,0.3-1.5,1.9-1.5h6c1,0,1.4,1,1.3,1.7
		l-0.3,1.3h5.7l0.6-3C82.6,13.3,80.7,11.2,77.9,11.2z"/>
	<path fill="#D52B1E" d="M150.7,11.2h-10.4c-2.9,0-5.6,2.2-6.1,5.2l-0.9,4.6c-0.5,2.5,1.2,4.2,3.5,4.5l9.3,1.6
		c0.2,0,0.8,0.3,0.7,1.1l-0.4,1.8h0c-0.2,1-1,1.7-2,1.7h-5.9c-1,0-1.4-0.8-1.3-1.7l0.3-1.4h-5.7l-0.6,3c-0.6,2.9,1.3,5.2,4,5.2
		l10.6,0c2.8,0,5.4-2.3,6-5.2l0.9-4.7c0.5-2.9-1.3-4.1-4.1-4.5l-8.5-1.4c0,0-1-0.2-0.8-1.4l0.3-1.5c0.2-1,1.2-1.7,2.2-1.7l5.6,0
		c1.2,0,1.5,1.1,1.4,1.7l-0.3,1.4h5.7l0.6-3C155.3,13.6,153.8,11.2,150.7,11.2z"/>
	<path fill="#D52B1E" d="M126,11.2h-14.9L106,36.9h5.7l1.5-7.3h9.5c2.9,0,5.4-2.7,5.9-5.2l1.6-8C130.7,13.4,129,11.2,126,11.2z
		 M124.1,18l-0.9,4.6c-0.1,0.5-0.7,1.6-1.9,1.6l-7,0l1.6-7.9h7C123.7,16.4,124.3,17.2,124.1,18z"/>
</g>
</svg>
