<svg xmlns="http://www.w3.org/2000/svg" width="9073" height="9457" viewBox="0 0 9073 9457">
  <defs>
    <style>
      .cls-1, .cls-2 {
        fill-rule: evenodd;
      }

      .cls-2 {
        fill: #e5a430;
      }
    </style>
  </defs>
  <path id="Relleno_de_color_2" data-name="Relleno de color 2" class="cls-1" d="M7621,3674h242c2.82,7.75,1,25.08,1,35V4923c-5.84,2.12-16.46,1-24,1H7621V3674ZM5629,5261V5107l9,3v1h3v1h2v1c1.67,0.33,3.33.67,5,1v1h3v1h2v1c3,0.67,6,1.33,9,2v1h2v1c2,0.33,4,.67,6,1v1h3v1h3v1c3.33,0.67,6.67,1.33,10,2v1h4v1h3v1h4v1h3v1h4v1h4v1h4v1h4v1c2.67,0.33,5.33.67,8,1v1c3,0.33,6,.67,9,1v1l20,3v1h6c5.19,1.55,12.8,2.46,18,4h7c10.36,3,24.46,1.98,35,5h12v1h16c7.39,2.06,18.95.59,28,1,4.54,0.2,12.21,2.66,18,1v-1h27v-1h12v-1h10v-1h8v-1h7c8.13-2.42,18.25-3.43,26-6,2.67-.33,5.33-0.67,8-1v-1c2.33-.33,4.67-0.67,7-1v-1h3v-1h3v-1h4v-1h2v-1h3v-1c2-.33,4-0.67,6-1v-1c1.33-.33,2.67-0.67,4-1v-1h3v-1c1.33-.33,2.67-0.67,4-1v-1h3v-1c1.33-.33,2.67-0.67,4-1v-1h2c0.33-.67.67-1.33,1-2h2v-1h2v-1h2v-1h2c0.33-.67.67-1.33,1-2,1.33-.33,2.67-0.67,4-1,0.33-.67.67-1.33,1-2h2v-1c1-.33,2-0.67,3-1,0.33-.67.67-1.33,1-2h2c0.33-.67.67-1.33,1-2,1-.33,2-0.67,3-1,1-1.33,2-2.67,3-4h2c1.33-1.67,2.67-3.33,4-5h2c1-1.33,2-2.67,3-4q4.005-3.495,8-7v-2c1.67-1.33,3.33-2.67,5-4v-2c1.33-1,2.67-2,4-3v-2c0.67-.33,1.33-0.67,2-1,0.33-1,.67-2,1-3h1v-2c0.67-.33,1.33-0.67,2-1v-2c0.67-.33,1.33-0.67,2-1v-2c0.67-.33,1.33-0.67,2-1v-2h1v-2h1v-2h1v-2h1v-2h1v-2h1c0.67-2,1.33-4,2-6h1v-3h1v-2h1v-3h1v-2h1c0.67-3,1.33-6,2-9h1v-4h1v-4h1v-4h1v-4h1v-5h1v-5h1q1.005-9,2-18v-9c1.8-6.36,1-16.98,1-25v-49c-2,.67-4,1.33-6,2v1h-2v1h-3v1h-2v1h-3v1h-2v1c-2,.33-4,0.67-6,1v1h-3v1h-3v1h-3v1c-2.33.33-4.67,0.67-7,1v1c-2.33.33-4.67,0.67-7,1v1c-3,.33-6,0.67-9,1v1c-3,.33-6,0.67-9,1v1h-4v1c-3.67.33-7.33,0.67-11,1v1q-6,.495-12,1v1h-7v1h-8v1h-8v1q-18.495,1.005-37,2c-6.19,1.73-16.65-.76-23,1-7.65,2.12-38.38,2.16-46,0h-19v-1h-13v-1h-10v-1h-8v-1l-26-3v-1h-5v-1h-5v-1h-5v-1h-5v-1q-6-1.005-12-2v-1c-2.67-.33-5.33-0.67-8-1v-1c-2.33-.33-4.67-0.67-7-1v-1c-2.33-.33-4.67-0.67-7-1v-1h-3v-1h-3v-1h-3v-1h-3v-1h-3v-1h-3v-1h-3c-18.73-8.18-38.53-15.62-55-26h-2v-1h-2v-1h-2v-1h-2c-0.33-.67-0.67-1.33-1-2-1.33-.33-2.67-0.67-4-1-0.33-.67-0.67-1.33-1-2-1.33-.33-2.67-0.67-4-1-0.33-.67-0.67-1.33-1-2-1.33-.33-2.67-0.67-4-1-0.33-.67-0.67-1.33-1-2h-2c-0.33-.67-0.67-1.33-1-2h-2v-1c-1-.33-2-0.67-3-1-0.33-.67-0.67-1.33-1-2h-2c-0.33-.67-0.67-1.33-1-2h-2c-0.67-1-1.33-2-2-3h-2c-0.33-.67-0.67-1.33-1-2h-2c-0.33-.67-0.67-1.33-1-2-1-.33-2-0.67-3-1-1-1.33-2-2.67-3-4h-2c-0.67-1-1.33-2-2-3h-2c-1.33-1.67-2.67-3.33-4-5h-2c-1.67-2-3.33-4-5-6h-2q-7.5-7.995-15-16-7.995-7.5-16-15v-2c-2-1.67-4-3.33-6-5v-2c-1.67-1.33-3.33-2.67-5-4v-2c-1.33-1-2.67-2-4-3v-2c-1-.67-2-1.33-3-2v-2c-1-.67-2-1.33-3-2v-2c-1-.67-2-1.33-3-2v-2c-0.67-.33-1.33-0.67-2-1v-2c-1-.67-2-1.33-3-2v-2c-0.67-.33-1.33-0.67-2-1v-2c-0.67-.33-1.33-0.67-2-1-0.33-1-.67-2-1-3h-1c-0.33-1.33-.67-2.67-1-4-0.67-.33-1.33-0.67-2-1-0.33-1-.67-2-1-3h-1c-0.67-2-1.33-4-2-6-0.67-.33-1.33-0.67-2-1-0.33-1.33-.67-2.67-1-4-0.67-.33-1.33-0.67-2-1v-2h-1v-2h-1v-2h-1v-2h-1v-2h-1v-2h-1c-0.33-1.33-.67-2.67-1-4h-1v-2h-1v-2h-1v-2h-1v-2h-1v-2h-1c-0.33-1.33-.67-2.67-1-4h-1v-2h-1v-3h-1v-2h-1c-0.33-1.33-.67-2.67-1-4h-1v-3h-1v-2h-1c-0.33-1.67-.67-3.33-1-5h-1c-0.33-2-.67-4-1-6h-1v-2h-1c-0.67-3-1.33-6-2-9h-1v-3h-1v-3h-1v-3h-1v-3h-1v-3h-1v-3h-1c-0.33-2.33-.67-4.67-1-7h-1c-0.33-2.67-.67-5.33-1-8h-1v-3h-1v-5h-1v-4h-1v-4h-1c-0.33-3-.67-6-1-9h-1v-5h-1c-0.33-3.67-.67-7.33-1-11h-1v-7h-1v-6h-1v-7h-1v-9h-1v-9h-1v-12h-1v-16c-1.62-5.81-1-15.56-1-23,0-11.55-1.76-27.27,1-37v-10q0.495-10.005,1-20h1v-10c2.61-9.03,2.36-21.2,5-30v-6c1.93-6.38,3.04-14.77,5-21v-5h1q1.005-6.495,2-13h1c0.33-2.67.67-5.33,1-8h1q1.005-5.505,2-11h1c0.67-3.33,1.33-6.67,2-10h1v-3h1v-3h1v-3h1c0.67-3,1.33-6,2-9h1v-2h1c0.67-3,1.33-6,2-9h1v-2h1v-3h1v-2h1v-3h1c0.33-1.33.67-2.67,1-4h1v-3h1c0.33-1.33.67-2.67,1-4h1c0.33-1.67.67-3.33,1-5h1c0.67-2,1.33-4,2-6h1v-2h1v-2h1v-2h1v-2h1v-2h1v-2h1v-2h1v-2h1v-2h1v-2c0.67-.33,1.33-0.67,2-1v-2h1v-2h1v-2h1v-2c0.67-.33,1.33-0.67,2-1v-2h1v-2c0.67-.33,1.33-0.67,2-1,0.33-1.33.67-2.67,1-4h1c0.33-1,.67-2,1-3,0.67-.33,1.33-0.67,2-1,0.33-1.33.67-2.67,1-4h1c0.33-1,.67-2,1-3,0.67-.33,1.33-0.67,2-1v-2c0.67-.33,1.33-0.67,2-1v-2c1-.67,2-1.33,3-2v-2c0.67-.33,1.33-0.67,2-1v-2c1-.67,2-1.33,3-2v-2c1-.67,2-1.33,3-2v-2c1-.67,2-1.33,3-2v-2c1.33-1,2.67-2,4-3v-2c1.67-1.33,3.33-2.67,5-4v-2c2-1.67,4-3.33,6-5v-2q5.505-4.995,11-10v-2c1.33-1,2.67-2,4-3q3.495-4.005,7-8h2q4.995-5.505,10-11h2q3-3.495,6-7h2c1-1.33,2-2.67,3-4h2c0.33-.67.67-1.33,1-2h1c0.33-.67.67-1.33,1-2h2c0.67-1,1.33-2,2-3h2c0.67-1,1.33-2,2-3h2c0.67-1,1.33-2,2-3h2c0.67-1,1.33-2,2-3h2c0.33-.67.67-1.33,1-2,1-.33,2-0.67,3-1v-1h2c0.33-.67.67-1.33,1-2h2c0.33-.67.67-1.33,1-2h2c0.33-.67.67-1.33,1-2h2c0.33-.67.67-1.33,1-2,1.33-.33,2.67-0.67,4-1,0.33-.67.67-1.33,1-2,1-.33,2-0.67,3-1v-1c2-.67,4-1.33,6-2,0.33-.67.67-1.33,1-2,2-.67,4-1.33,6-2,0.33-.67.67-1.33,1-2h2v-1h2v-1h2v-1h2v-1h2v-1h2v-1c1.33-.33,2.67-0.67,4-1v-1h2v-1h2v-1h2v-1h2v-1h2v-1c1.33-.33,2.67-0.67,4-1v-1h2v-1h3v-1h2v-1c1.33-.33,2.67-0.67,4-1v-1h3v-1h2v-1h3v-1h2v-1h3v-1h2v-1h3v-1h2v-1c2-.33,4-0.67,6-1v-1h2v-1c2-.33,4-0.67,6-1v-1h3v-1h3v-1h3v-1h3v-1h3v-1h3v-1h4v-1h3v-1h4v-1h3v-1c2.33-.33,4.67-0.67,7-1v-1c2.67-.33,5.33-0.67,8-1v-1c2.67-.33,5.33-0.67,8-1v-1q30-5.505,60-11h7v-1h8v-1h9v-1h10v-1h12v-1h15v-1h22c10.22-2.85,28.73-1,41-1,6.84,0,15.76-.48,21,1h27v1h18v1h15s0.04,0.83,2,1h10v1l38,3c6.47,1.89,15.61,2.13,22,4h7c5.2,1.55,12.81,2.44,18,4h6c11.82,3.63,26.51,5.29,38,9h5v1h4v1h4v1h4v1h3v1c2.67,0.33,5.33.67,8,1v1c2.33,0.33,4.67.67,7,1v1c3.33,0.67,6.67,1.33,10,2v1h3v1h3v1h3v1c3,0.67,6,1.33,9,2v1h2v1c3,0.67,6,1.33,9,2v1h2v1h3v1h2v1h3v1c1.33,0.33,2.67.67,4,1v1h3v1h2v1h2v1h2v1h3v1c2,0.67,4,1.33,6,2v1h2v1h2v1h2v1c1.05,0.95.15-.13,1,1h1v872c-3.34,4.07.68,14.19-1,20h-1v11h-1v9h-1v8c-2.03,6.86-2.9,16.3-5,23v5h-1q-1.005,6-2,12h-1c-0.33,2.67-.67,5.33-1,8h-1c-0.33,2.33-.67,4.67-1,7h-1v3h-1v3h-1v3h-1v3h-1c-0.67,3-1.33,6-2,9h-1v2h-1v3h-1v2h-1v3h-1c-0.33,1.33-.67,2.67-1,4h-1v3h-1v2h-1c-0.33,1.33-.67,2.67-1,4h-1v2h-1v2h-1v2h-1v2h-1v2h-1v2h-1v2h-1v2h-1v2h-1v2c-0.67.33-1.33,0.67-2,1-0.67,2-1.33,4-2,6-0.67.33-1.33,0.67-2,1v2h-1v2c-0.67.33-1.33,0.67-2,1v2c-0.67.33-1.33,0.67-2,1v2c-0.67.33-1.33,0.67-2,1v2h-1c-0.33,1-.67,2-1,3-0.67.33-1.33,0.67-2,1v2c-1,.67-2,1.33-3,2v2c-1,.67-2,1.33-3,2v2c-1,.67-2,1.33-3,2v2c-1.67,1.33-3.33,2.67-5,4v2c-2,1.67-4,3.33-6,5v2q-6.495,6-13,12-6.495,7.005-13,14h-2c-1.67,2-3.33,4-5,6h-2c-1,1.33-2,2.67-3,4h-2c-1,1.33-2,2.67-3,4-1,.33-2,0.67-3,1-0.33.67-.67,1.33-1,2h-2c-0.67,1-1.33,2-2,3h-2c-0.33.67-.67,1.33-1,2h-2c-0.33.67-.67,1.33-1,2h-2c-0.33.67-.67,1.33-1,2h-2c-0.33.67-.67,1.33-1,2h-2c-0.33.67-.67,1.33-1,2h-2c-0.33.67-.67,1.33-1,2h-2c-0.33.67-.67,1.33-1,2h-2v1h-2c-0.33.67-.67,1.33-1,2-2,.67-4,1.33-6,2-0.33.67-.67,1.33-1,2h-2v1h-2v1h-2v1h-2v1c-1.33.33-2.67,0.67-4,1-0.33.67-.67,1.33-1,2-1.33.33-2.67,0.67-4,1v1c-1.33.33-2.67,0.67-4,1v1h-3v1h-2v1h-2v1c-2,.67-4,1.33-6,2v1h-3v1c-1.33.33-2.67,0.67-4,1v1h-3v1h-2v1c-1.67.33-3.33,0.67-5,1v1h-3v1h-2v1c-3,.67-6,1.33-9,2v1h-2v1h-3v1h-3v1h-3v1h-3v1h-4v1h-3v1h-3v1c-2.33.33-4.67,0.67-7,1v1q-5.505,1.005-11,2v1c-2.67.33-5.33,0.67-8,1v1h-5v1c-3,.33-6,0.67-9,1v1h-4v1h-5v1q-26.49,4.005-53,8h-10v1h-11v1q-18,.495-36,1c-10.22,2.85-28.73,1-41,1-7.14,0-16.48.56-22-1h-14q-16.5-.495-33-1v-1q-19.995-1.005-40-2v-1h-10v-1h-10v-1h-9v-1h-8c-12.88-3.74-29.35-3.22-42-7q-6-.495-12-1c-9.22-2.81-21.07-4.14-30-7-3.33-.33-6.67-0.67-10-1-7.36-2.37-16.68-4.52-24-7-2.67-.33-5.33-0.67-8-1v-1Zm1750-385-9,3v1h-3v1h-2v1c-1.67.33-3.33,0.67-5,1v1h-3v1h-2v1c-3,.67-6,1.33-9,2v1h-2v1c-3,.67-6,1.33-9,2v1h-3v1h-3v1h-3v1h-3v1h-3v1c-3.33.67-6.67,1.33-10,2v1h-4v1h-3v1h-4v1h-4v1h-3v1h-4v1h-4v1h-4v1h-4v1c-2.67.33-5.33,0.67-8,1v1c-3,.33-6,0.67-9,1v1c-3,.33-6,0.67-9,1v1h-5v1h-5v1h-5v1h-5v1h-6v1h-5v1h-6v1h-6v1h-6v1q-6.495.495-13,1c-11.63,3.45-27.1,2.59-39,6h-9v1h-10v1h-10v1h-12v1h-13v1h-16v1q-22.995.495-46,1c-10.48,2.92-32.18,1-45,1-10.97,0-25.82,1.59-35-1h-24v-1h-16v-1h-13v-1h-11v-1q-13.995-1.005-28-2v-1h-7v-1h-7v-1h-7c-10.23-3.04-23.07-3.89-33-7h-5v-1h-4v-1h-5v-1h-4v-1h-4v-1h-4v-1h-4v-1c-2.67-.33-5.33-0.67-8-1v-1c-2.33-.33-4.67-0.67-7-1v-1h-3v-1h-3v-1h-3v-1h-4v-1h-3v-1h-3v-1h-3v-1h-3v-1h-2v-1c-2-.33-4-0.67-6-1v-1h-2v-1c-2-.33-4-0.67-6-1v-1h-2v-1h-3v-1c-1.33-.33-2.67-0.67-4-1v-1h-3v-1c-1.33-.33-2.67-0.67-4-1v-1c-1.67-.33-3.33-0.67-5-1v-1c-2-.67-4-1.33-6-2v-1h-2v-1h-2v-1h-2v-1h-2v-1h-2v-1h-2c-0.33-.67-0.67-1.33-1-2h-2v-1h-2v-1h-2v-1h-2c-0.33-.67-0.67-1.33-1-2h-2v-1h-2v-1c-1-.33-2-0.67-3-1-0.33-.67-0.67-1.33-1-2-1.33-.33-2.67-0.67-4-1-0.33-.67-0.67-1.33-1-2h-2v-1c-1-.33-2-0.67-3-1-0.33-.67-0.67-1.33-1-2h-2c-0.67-1-1.33-2-2-3h-2c-0.67-1-1.33-2-2-3h-2c-0.67-1-1.33-2-2-3h-2c-1.33-1.67-2.67-3.33-4-5h-2q-3-3.495-6-7h-2c-1.33-1.67-2.67-3.33-4-5q-4.995-4.5-10-9v-2q-3.495-3-7-6v-2c-1.33-1-2.67-2-4-3v-2c-1-.67-2-1.33-3-2v-2c-1-.67-2-1.33-3-2v-2c-0.67-.33-1.33-0.67-2-1v-2c-0.67-.33-1.33-0.67-2-1v-2c-0.67-.33-1.33-0.67-2-1v-2c-0.67-.33-1.33-0.67-2-1-0.33-1.33-.67-2.67-1-4-0.67-.33-1.33-0.67-2-1v-2h-1v-2h-1v-2h-1v-2h-1v-2h-1v-2h-1v-2h-1v-2h-1c-0.67-2-1.33-4-2-6h-1v-3h-1v-2h-1v-3h-1v-2h-1c-0.33-2-.67-4-1-6h-1v-3h-1v-3h-1v-3h-1v-4h-1v-4h-1v-4h-1v-4h-1v-5h-1v-5h-1q-1.005-12-2-24c-2.14-7.73-2.19-39.3,0-47v-10h1v-8h1v-6h1v-5h1v-5h1c0.33-2.67.67-5.33,1-8h1c0.33-2.67.67-5.33,1-8h1v-3h1v-3h1v-3h1c0.33-2,.67-4,1-6h1v-2h1v-3h1v-2h1v-3h1c0.33-1.33.67-2.67,1-4h1v-2h1v-3h1c0.33-1.33.67-2.67,1-4h1v-2c0.67-.33,1.33-0.67,2-1v-2h1v-2h1v-2h1v-2c0.67-.33,1.33-0.67,2-1,0.33-1.33.67-2.67,1-4,0.67-.33,1.33-0.67,2-1,0.33-1.33.67-2.67,1-4h1c0.33-1,.67-2,1-3,0.67-.33,1.33-0.67,2-1v-2c0.67-.33,1.33-0.67,2-1,0.33-1,.67-2,1-3,1-.67,2-1.33,3-2v-2c1-.67,2-1.33,3-2v-2c1.67-1.33,3.33-2.67,5-4v-2c2-1.67,4-3.33,6-5,0.33-1,.67-2,1-3q4.5-4.005,9-8,3-3.495,6-7h2q3.495-4.005,7-8h2c1.33-1.67,2.67-3.33,4-5,1-.33,2-0.67,3-1,0.33-.67.67-1.33,1-2h2c1-1.33,2-2.67,3-4h2c0.33-.67.67-1.33,1-2h2c0.67-1,1.33-2,2-3h2c0.33-.67.67-1.33,1-2,1-.33,2-0.67,3-1v-1h2c0.33-.67.67-1.33,1-2h2c0.33-.67.67-1.33,1-2h2c0.33-.67.67-1.33,1-2h2c0.33-.67.67-1.33,1-2,1.33-.33,2.67-0.67,4-1,0.33-.67.67-1.33,1-2,1.33-.33,2.67-0.67,4-1,0.33-.67.67-1.33,1-2,2-.67,4-1.33,6-2,0.33-.67.67-1.33,1-2h2v-1h2v-1h2v-1h2v-1c1.33-.33,2.67-0.67,4-1,0.33-.67.67-1.33,1-2,1.33-.33,2.67-0.67,4-1v-1c2-.67,4-1.33,6-2v-1h3v-1h2v-1h2v-1h2v-1c2-.67,4-1.33,6-2v-1h3v-1c1.33-.33,2.67-0.67,4-1v-1h3v-1c1.33-.33,2.67-0.67,4-1v-1h3v-1h2v-1h3v-1h2v-1c1.67-.33,3.33-0.67,5-1v-1c2-.33,4-0.67,6-1v-1h2v-1h3v-1h3v-1h3v-1h3v-1h2v-1c2-.33,4-0.67,6-1v-1h3v-1h3v-1h3v-1h4v-1h3v-1h3v-1h3v-1c3.33-.67,6.67-1.33,10-2v-1c2.33-.33,4.67-0.67,7-1v-1q5.505-1.005,11-2v-1c2.67-.33,5.33-0.67,8-1,7.32-2.5,16.64-4.63,24-7,3-.33,6-0.67,9-1,13.13-4.47,29.5-5.9,43-10h6c4.49-1.37,11.51-2.64,16-4h6v-1h6v-1h6v-1h7c12.03-3.56,27.77-3.46,40-7h8v-1q7.995-.495,16-1c10.07-2.91,23.81-2.09,34-5h9v-1h10v-1h10v-1h10v-1h11v-1h11c5.46-1.55,14.18-1.93,21-2,0.3-29.86,2.62-67.33-5-90-0.33-2.67-.67-5.33-1-8h-1c-0.67-3-1.33-6-2-9h-1v-2h-1v-3h-1c-0.67-2-1.33-4-2-6h-1v-2h-1c-0.33-1.33-.67-2.67-1-4-0.67-.33-1.33-0.67-2-1-0.33-1.33-.67-2.67-1-4-0.67-.33-1.33-0.67-2-1v-2c-0.67-.33-1.33-0.67-2-1-0.33-1-.67-2-1-3-1.33-1-2.67-2-4-3v-2q-4.5-4.005-9-8c-1.33-1.67-2.67-3.33-4-5h-2c-0.67-1-1.33-2-2-3-1-.33-2-0.67-3-1-0.33-.67-0.67-1.33-1-2h-2c-0.33-.67-0.67-1.33-1-2-1-.33-2-0.67-3-1v-1h-2c-0.33-.67-0.67-1.33-1-2h-2v-1h-2v-1h-2v-1h-2c-0.33-.67-0.67-1.33-1-2-1.67-.33-3.33-0.67-5-1v-1h-2v-1c-1.33-.33-2.67-0.67-4-1v-1q-17.505-5.505-35-11-22.5-3.495-45-7h-13v-1h-21c-7.71-2.13-30.3-2.17-38,0h-11q-12.495.495-25,1v1h-11c-9.62,2.76-22.56,2.25-32,5h-7v1h-6v1h-6v1h-6v1h-5v1c-3.67.33-7.33,0.67-11,1v1h-5v1h-4v1h-5v1h-5v1q-6,1.005-12,2v1c-2.67.33-5.33,0.67-8,1v1h-4v1h-4v1h-4v1h-3v1c-2.67.33-5.33,0.67-8,1v1h-3v1h-3v1q-8.505,1.995-17,4-22.5,8.505-45,17V4062h1v-1l13-3v-1h3v-1h4v-1h3v-1h3v-1q5.505-1.005,11-2v-1q5.505-1.005,11-2v-1l66-15h6v-1h5v-1h6c11.35-3.46,26.34-3.58,38-7h7v-1h8v-1h9v-1h9v-1h10v-1h12v-1h13v-1q19.995-.495,40-1c10.22-2.85,28.73-1,41-1,6.84,0,15.77-.49,21,1h22v1h15s0.03,0.83,2,1h10v1h9v1h9c8.44,2.46,19.77,2.53,28,5h6v1h5v1h5v1h5v1h5v1c3,0.33,6,.67,9,1v1h4v1h4v1h4v1h3v1c2.67,0.33,5.33.67,8,1v1h3v1h3v1h4v1h3v1h3v1h3v1h3v1h2v1c3,0.67,6,1.33,9,2v1c1.67,0.33,3.33.67,5,1v1h2v1h3v1c1.33,0.33,2.67.67,4,1v1h3v1c2,0.67,4,1.33,6,2v1h2v1h3v1c2,0.67,4,1.33,6,2v1c1.33,0.33,2.67.67,4,1,0.33,0.67.67,1.33,1,2h2v1h2v1h2v1h2c0.33,0.67.67,1.33,1,2,2,0.67,4,1.33,6,2v1c1,0.33,2,.67,3,1,0.33,0.67.67,1.33,1,2,1.33,0.33,2.67.67,4,1,0.33,0.67.67,1.33,1,2h2v1c1,0.33,2,.67,3,1,0.33,0.67.67,1.33,1,2h2c0.33,0.67.67,1.33,1,2,1,0.33,2,.67,3,1,0.67,1,1.33,2,2,3h2c0.67,1,1.33,2,2,3h2c1,1.33,2,2.67,3,4h2q3,3.495,6,7h2q4.005,4.5,8,9,5.505,4.995,11,10v2c2,1.67,4,3.33,6,5v2c1.33,1,2.67,2,4,3v2c1,0.67,2,1.33,3,2v2c1,0.67,2,1.33,3,2v2c0.67,0.33,1.33.67,2,1v2c1,0.67,2,1.33,3,2,0.33,1.33.67,2.67,1,4,0.67,0.33,1.33.67,2,1,0.33,1,.67,2,1,3h1c0.33,1.33.67,2.67,1,4,0.67,0.33,1.33.67,2,1v2h1v2h1v2h1v2c0.67,0.33,1.33.67,2,1,0.33,1.33.67,2.67,1,4h1c0.33,1.33.67,2.67,1,4h1v3h1v2h1c0.33,1.33.67,2.67,1,4h1v3h1c0.33,1.33.67,2.67,1,4h1c0.33,2,.67,4,1,6,24.24,55.68,21,136.79,21,217v457Zm968,404H8106V4079c1-.33,2-0.67,3-1v-1h2v-1h2v-1c1.67-.33,3.33-0.67,5-1v-1h2v-1h3v-1h2v-1h3v-1h2v-1c2-.33,4-0.67,6-1v-1h2v-1c2-.33,4-0.67,6-1v-1h2v-1c3-.67,6-1.33,9-2v-1h3v-1h3v-1h3v-1h3v-1h3v-1h3v-1h4v-1h3v-1h3v-1c2.33-.33,4.67-0.67,7-1v-1q5.505-1.005,11-2v-1c2.67-.33,5.33-0.67,8-1v-1q6-1.005,12-2v-1q33.495-6.495,67-13,7.005-.495,14-1c12.2-3.56,28.57-2.44,41-6h10v-1h12v-1h13v-1h15v-1q22.995-.495,46-1c10.49-2.92,32.17-1,45-1,7.43,0,17.2-.64,23,1q17.505,0.495,35,1v1h12v1h10v1h8v1h8c13.12,3.85,29.37,4.04,42,8,3.33,0.33,6.67.67,10,1v1h5v1h4v1h4v1h4v1h4v1c2.67,0.33,5.33.67,8,1v1c2.33,0.33,4.67.67,7,1v1c2.33,0.33,4.67.67,7,1v1c3.33,0.67,6.67,1.33,10,2v1h3v1h3v1c2,0.33,4,.67,6,1v1h2v1c3,0.67,6,1.33,9,2v1h2v1c2,0.33,4,.67,6,1v1h2v1h3v1c1.33,0.33,2.67.67,4,1v1h3v1h2v1h3v1c2,0.67,4,1.33,6,2v1h2v1h3v1c2,0.67,4,1.33,6,2v1h2v1h2v1h2v1h2v1h2v1h2v1h2v1h2c0.33,0.67.67,1.33,1,2h2v1h2v1h2v1h2c0.33,0.67.67,1.33,1,2,2,0.67,4,1.33,6,2,0.33,0.67.67,1.33,1,2,1.33,0.33,2.67.67,4,1,0.33,0.67.67,1.33,1,2h2v1h2c0.33,0.67.67,1.33,1,2h2c0.33,0.67.67,1.33,1,2h2c0.33,0.67.67,1.33,1,2h2v1c1,0.33,2,.67,3,1,0.33,0.67.67,1.33,1,2h2c0.33,0.67.67,1.33,1,2h2c0.67,1,1.33,2,2,3h2c0.67,1,1.33,2,2,3h2c0.67,1,1.33,2,2,3h2c0.67,1,1.33,2,2,3h2c1,1.33,2,2.67,3,4h2c1.33,1.67,2.67,3.33,4,5h2c1.67,2,3.33,4,5,6h2q5.505,6,11,12h2c0.33,0.67.67,1.33,1,2q3.495,3,7,6v2q6,5.505,12,11v2c1.67,1.33,3.33,2.67,5,4,0.33,1,.67,2,1,3,1.67,1.33,3.33,2.67,5,4,0.33,1,.67,2,1,3,0.67,0.33,1.33.67,2,1v2c1.33,1,2.67,2,4,3v2c1,0.67,2,1.33,3,2v2c0.67,0.33,1.33.67,2,1v2c1,0.67,2,1.33,3,2v2c0.67,0.33,1.33.67,2,1,0.33,1,.67,2,1,3h1v2c0.67,0.33,1.33.67,2,1v2c0.67,0.33,1.33.67,2,1,0.33,1,.67,2,1,3h1c0.33,1.33.67,2.67,1,4,0.67,0.33,1.33.67,2,1,0.33,1.33.67,2.67,1,4,0.67,0.33,1.33.67,2,1,0.67,2,1.33,4,2,6,0.67,0.33,1.33.67,2,1v2h1v2h1v2h1v2c0.67,0.33,1.33.67,2,1,0.67,2,1.33,4,2,6h1v2h1c0.67,2,1.33,4,2,6h1v3h1v2h1c0.67,2,1.33,4,2,6h1v3h1c0.33,1.33.67,2.67,1,4h1v3h1v2h1v3h1v2h1v3h1v2h1c0.67,3,1.33,6,2,9h1v2h1v3h1v3h1v3h1v4h1v3h1v3h1c0.33,2.33.67,4.67,1,7h1q1.005,6,2,12h1q1.005,6,2,12h1v5c2.52,8.09,3.54,18.66,6,27v7h1v8h1v8h1v10h1v12h1v18c2.01,7.23,1,19.08,1,28,0,7.43.64,17.2-1,23v18h-1v13h-1v10c-1.98,6.83-2.05,16.34-4,23q-0.495,6.495-1,13h-1c-0.33,3.67-.67,7.33-1,11h-1v5h-1c-0.33,3-.67,6-1,9h-1v4h-1v5h-1v4h-1v4h-1v3h-1c-0.33,2.67-.67,5.33-1,8q-7.5,22.005-15,44h-1v2h-1v3h-1v2h-1v3h-1v2h-1c-0.33,1.67-.67,3.33-1,5h-1v2h-1c-0.67,2-1.33,4-2,6h-1v3h-1c-0.67,2-1.33,4-2,6h-1v2h-1v2h-1c-0.67,2-1.33,4-2,6-0.67.33-1.33,0.67-2,1v2h-1v2h-1v2h-1v2h-1v2c-0.67.33-1.33,0.67-2,1-0.33,1.33-.67,2.67-1,4-0.67.33-1.33,0.67-2,1-0.33,1.33-.67,2.67-1,4-0.67.33-1.33,0.67-2,1-0.33,1.33-.67,2.67-1,4h-1c-0.33,1-.67,2-1,3-0.67.33-1.33,0.67-2,1v2c-0.67.33-1.33,0.67-2,1-0.33,1.33-.67,2.67-1,4-1,.67-2,1.33-3,2v2h-1c-0.33,1-.67,2-1,3-0.67.33-1.33,0.67-2,1v2c-0.67.33-1.33,0.67-2,1-0.33,1-.67,2-1,3-1,.67-2,1.33-3,2v2c-0.67.33-1.33,0.67-2,1-0.33,1-.67,2-1,3-1,.67-2,1.33-3,2v2c-1.33,1-2.67,2-4,3v2c-2,1.67-4,3.33-6,5v2q-3.495,3-7,6v2q-4.995,4.5-10,9-9,9.495-18,19h-2q-3,3.495-6,7h-2c-1.33,1.67-2.67,3.33-4,5h-2c-1.33,1.67-2.67,3.33-4,5h-2c-0.67,1-1.33,2-2,3-1,.33-2,0.67-3,1-0.33.67-.67,1.33-1,2h-2c-0.67,1-1.33,2-2,3-1,.33-2,0.67-3,1-0.33.67-.67,1.33-1,2h-2c-0.33.67-.67,1.33-1,2-1,.33-2,0.67-3,1v1h-2c-0.33.67-.67,1.33-1,2h-2c-0.33.67-.67,1.33-1,2h-2c-0.33.67-.67,1.33-1,2h-2c-0.33.67-.67,1.33-1,2-1,.33-2,0.67-3,1v1c-1.33.33-2.67,0.67-4,1-0.33.67-.67,1.33-1,2-1.33.33-2.67,0.67-4,1-0.33.67-.67,1.33-1,2-1.33.33-2.67,0.67-4,1-0.33.67-.67,1.33-1,2h-2v1h-2v1h-2v1h-2v1h-2c-0.33.67-.67,1.33-1,2h-2v1h-2v1h-2v1h-2v1h-2v1h-2v1h-2v1c-2,.67-4,1.33-6,2v1h-3v1h-2v1c-1.33.33-2.67,0.67-4,1v1h-3v1c-1.33.33-2.67,0.67-4,1v1h-3v1h-2v1h-3v1h-2v1h-3v1h-2v1c-2,.33-4,0.67-6,1v1h-2v1c-2,.33-4,0.67-6,1v1h-3v1h-3v1h-3v1h-3v1h-3v1h-4v1h-3v1c-2.33.33-4.67,0.67-7,1v1q-5.505,1.005-11,2v1h-5v1h-4v1h-4v1c-3,.33-6,0.67-9,1v1h-5v1c-3.67.33-7.33,0.67-11,1v1q-6,.495-12,1v1q-7.5.495-15,1v1h-8v1h-10v1h-11v1q-16.995.495-34,1h-51v-1h-19v-1h-13v-1h-12v-1h-9v-1q-11.505-1.005-23-2v-1h-7v-1h-6c-11.26-3.43-24.43-4.85-35-9v363ZM5992,4133c-3.82,3.16-20.9.25-27,2v1q-7.005.495-14,1v1h-6v1h-5v1h-5v1h-4v1h-4v1c-2.67.33-5.33,0.67-8,1v1h-3v1h-3v1h-3v1h-3v1h-3v1c-2,.33-4,0.67-6,1v1h-2v1h-3v1c-1.33.33-2.67,0.67-4,1v1h-2v1h-3v1c-2,.67-4,1.33-6,2v1c-1.33.33-2.67,0.67-4,1-0.33.67-.67,1.33-1,2-2,.67-4,1.33-6,2-0.33.67-.67,1.33-1,2-1.33.33-2.67,0.67-4,1v1c-1,.33-2,0.67-3,1-0.33.67-.67,1.33-1,2h-2c-0.33.67-.67,1.33-1,2h-2c-0.67,1-1.33,2-2,3h-2c-0.67,1-1.33,2-2,3h-2c-0.67,1-1.33,2-2,3h-2c-1.67,2-3.33,4-5,6h-2c-1.67,2-3.33,4-5,6q-5.505,4.995-11,10v2c-2,1.67-4,3.33-6,5-0.33,1-.67,2-1,3-1,.67-2,1.33-3,2v2c-1,.67-2,1.33-3,2v2c-0.67.33-1.33,0.67-2,1v2c-1,.67-2,1.33-3,2v2c-0.67.33-1.33,0.67-2,1v2c-0.67.33-1.33,0.67-2,1-0.33,1.33-.67,2.67-1,4-0.67.33-1.33,0.67-2,1-0.33,1.33-.67,2.67-1,4-0.67.33-1.33,0.67-2,1-0.67,2-1.33,4-2,6-0.67.33-1.33,0.67-2,1v2h-1v2h-1v2h-1v2h-1v2h-1c-0.67,2-1.33,4-2,6h-1c-0.33,1.67-.67,3.33-1,5h-1v2h-1v3h-1c-0.33,1.33-.67,2.67-1,4h-1c-0.33,2-.67,4-1,6h-1v2h-1c-0.67,3-1.33,6-2,9h-1v3h-1v3h-1v3h-1v3h-1v3h-1c-0.33,2.33-.67,4.67-1,7h-1v4h-1v4h-1v4h-1v4h-1v5c-2.94,9.22-4.2,21.38-7,31v7h-1v7h-1v8h-1v9h-1q-0.495,12-1,24h-1v17h-1v51c-0.01,69.42,8.68,132.63,30,181v3h1v2h1v3h1c0.67,2,1.33,4,2,6h1v2h1v2h1v2h1v2h1v2h1v2h1v2h1v2c0.67,0.33,1.33.67,2,1,0.67,2,1.33,4,2,6h1c0.33,1,.67,2,1,3,0.67,0.33,1.33.67,2,1v2c0.67,0.33,1.33.67,2,1v2h1c0.33,1,.67,2,1,3,0.67,0.33,1.33.67,2,1v2c0.67,0.33,1.33.67,2,1,0.33,1,.67,2,1,3,1,0.67,2,1.33,3,2v2c1.67,1.33,3.33,2.67,5,4v2q4.995,4.5,10,9,4.5,4.995,9,10h2c1.33,1.67,2.67,3.33,4,5h2c0.67,1,1.33,2,2,3h2c0.67,1,1.33,2,2,3h2c0.33,0.67.67,1.33,1,2,1,0.33,2,.67,3,1v1h2c0.33,0.67.67,1.33,1,2h2c0.33,0.67.67,1.33,1,2,1.33,0.33,2.67.67,4,1,0.33,0.67.67,1.33,1,2h2v1h2v1h2v1h2v1h2v1h2v1c2,0.67,4,1.33,6,2v1c1.67,0.33,3.33.67,5,1v1h2v1c2,0.33,4,.67,6,1v1h2v1q13.995,4.005,28,8h5c4.55,1.4,11.29,2.65,16,4q14.505,1.005,29,2c9.5,2.63,24.71,1,36,1,11.64,0,25.69-.34,35-3h8c4.92-1.43,12.22-2.52,17-4h5v-1h5v-1h4v-1h4v-1c2.33-.33,4.67-0.67,7-1v-1h4v-1h3v-1h3v-1h3v-1h3v-1c2-.33,4-0.67,6-1v-1h2v-1h3v-1h2v-1h3v-1c1.59-.78,8.45-3,9-4V4153c-9.45-3.71-20.05-7.65-30-11h-5v-1h-4v-1h-5v-1h-6v-1h-6v-1h-7v-1h-9v-1q-10.995-.495-22-1h-11C6017.76,4131.37,6003.02,4133.13,5992,4133Zm2355,20v647l35,9h6v1h6v1h8v1h9v1h14v1h25c20.2,0,43.11.6,59-4q9-1.005,18-2,18.495-4.995,37-10v-1h2v-1c2-.33,4-0.67,6-1v-1h2v-1h3v-1c1.33-.33,2.67-0.67,4-1v-1h3v-1c2-.67,4-1.33,6-2v-1h2v-1h2v-1h2v-1h2v-1h2v-1h2v-1h2c0.33-.67.67-1.33,1-2,1.33-.33,2.67-0.67,4-1,0.33-.67.67-1.33,1-2,1.33-.33,2.67-0.67,4-1,0.33-.67.67-1.33,1-2h2c0.33-.67.67-1.33,1-2h2c0.67-1,1.33-2,2-3h2c0.33-.67.67-1.33,1-2h2c0.67-1,1.33-2,2-3h2c1-1.33,2-2.67,3-4h2c1.33-1.67,2.67-3.33,4-5h2q4.995-5.505,10-11,4.995-4.5,10-9v-2c2-1.67,4-3.33,6-5v-2c1.33-1,2.67-2,4-3,0.33-1,.67-2,1-3,0.67-.33,1.33-0.67,2-1v-2c0.67-.33,1.33-0.67,2-1v-2h1c0.33-1,.67-2,1-3,1-.67,2-1.33,3-2,0.33-1.33.67-2.67,1-4,0.67-.33,1.33-0.67,2-1,0.33-1,.67-2,1-3h1v-2h1v-2c0.67-.33,1.33-0.67,2-1,0.33-1.33.67-2.67,1-4,0.67-.33,1.33-0.67,2-1v-2h1v-2h1v-2h1v-2h1v-2h1v-2h1v-2h1v-2h1c0.67-2,1.33-4,2-6h1v-3h1c0.33-1.33.67-2.67,1-4h1v-3h1v-2h1v-3h1v-2h1c0.33-2,.67-4,1-6h1v-2h1c0.33-2,.67-4,1-6h1v-3h1v-3h1c0.67-3.33,1.33-6.67,2-10h1c0.33-2.67.67-5.33,1-8h1v-4h1v-4h1v-4h1v-4h1v-5h1l6-36v-8h1v-9h1v-11h1q0.495-19.005,1-38c0.05-8.34,2.28-18.9,0-27v-14q-0.495-17.505-1-35h-1q-0.495-11.505-1-23h-1v-8h-1v-8h-1v-7h-1q-0.495-6.495-1-13c-2.21-7.27-3.74-16.92-6-24q-1.005-6.495-2-13h-1c-0.33-2.33-.67-4.67-1-7h-1c-0.33-2.33-.67-4.67-1-7h-1v-3h-1v-3h-1v-3h-1c-0.33-2-.67-4-1-6h-1v-2h-1c-0.33-2-.67-4-1-6h-1v-2h-1v-3h-1c-0.33-1.33-.67-2.67-1-4h-1v-3h-1c-0.67-2-1.33-4-2-6h-1v-2h-1v-2h-1v-2h-1v-2h-1v-2h-1v-2h-1v-2h-1v-2c-0.67-.33-1.33-0.67-2-1-0.33-1.33-.67-2.67-1-4-0.67-.33-1.33-0.67-2-1-0.33-1.33-.67-2.67-1-4h-1c-0.33-1-.67-2-1-3-0.67-.33-1.33-0.67-2-1v-2h-1c-0.33-1-.67-2-1-3-0.67-.33-1.33-0.67-2-1v-2c-1-.67-2-1.33-3-2v-2c-0.67-.33-1.33-0.67-2-1v-1c-0.67-.33-1.33-0.67-2-1v-2c-1.33-1-2.67-2-4-3v-2q-5.505-4.995-11-10-4.995-5.505-10-11h-2c-1-1.33-2-2.67-3-4h-2c-0.33-.67-0.67-1.33-1-2h-1c-0.33-.67-0.67-1.33-1-2h-2c-0.33-.67-0.67-1.33-1-2h-2c-0.67-1-1.33-2-2-3h-2c-0.33-.67-0.67-1.33-1-2-1-.33-2-0.67-3-1v-1c-1.33-.33-2.67-0.67-4-1-0.33-.67-0.67-1.33-1-2-2-.67-4-1.33-6-2-0.33-.67-0.67-1.33-1-2-1.33-.33-2.67-0.67-4-1v-1h-2v-1c-2-.67-4-1.33-6-2v-1h-3v-1c-1.33-.33-2.67-0.67-4-1v-1h-3v-1h-2v-1h-3v-1h-2v-1c-2-.33-4-0.67-6-1v-1h-3v-1h-3v-1h-3v-1h-4v-1h-4v-1h-4v-1h-4v-1h-4v-1h-5v-1h-5v-1h-6v-1h-7v-1h-8v-1q-19.995-1.005-40-2c-9.5,0-22.22-1.19-30,1h-17v1h-11v1h-9v1h-7v1h-7v1h-5v1h-5v1h-5v1h-5v1h-4v1h-4v1h-4ZM7152,4803V4435a58.231,58.231,0,0,0-15,2h-9v1h-9v1h-9v1h-8v1h-8v1q-7.5.495-15,1c-12.29,3.62-27.93,3.39-40,7q-6,.495-12,1-31.995,7.005-64,14v1c-2.33.33-4.67,0.67-7,1v1c-2.33.33-4.67,0.67-7,1v1h-3v1h-3v1h-4v1h-3v1h-3v1h-3v1h-3v1h-2v1c-3,.67-6,1.33-9,2v1c-1.67.33-3.33,0.67-5,1v1h-2v1h-3v1c-1.33.33-2.67,0.67-4,1v1h-3v1c-2,.67-4,1.33-6,2v1h-2v1h-2v1h-2v1h-2v1h-2v1h-2v1h-2v1h-2v1h-2c-0.33.67-.67,1.33-1,2-2,.67-4,1.33-6,2v1c-1,.33-2,0.67-3,1-0.33.67-.67,1.33-1,2-1.33.33-2.67,0.67-4,1-0.33.67-.67,1.33-1,2h-2c-0.67,1-1.33,2-2,3h-2c-0.33.67-.67,1.33-1,2h-2c-0.33.67-.67,1.33-1,2h-1c-0.33.67-.67,1.33-1,2h-2c-1.33,1.67-2.67,3.33-4,5h-2q-4.005,4.5-8,9-4.5,4.005-9,8v2c-1.67,1.33-3.33,2.67-5,4v2c-1,.67-2,1.33-3,2v2c-0.67.33-1.33,0.67-2,1-0.33,1-.67,2-1,3h-1v2c-0.67.33-1.33,0.67-2,1v2c-0.67.33-1.33,0.67-2,1v2h-1v2h-1v2h-1v2c-0.67.33-1.33,0.67-2,1-0.33,1.67-.67,3.33-1,5h-1v2h-1c-0.33,1.33-.67,2.67-1,4h-1c-0.33,1.67-.67,3.33-1,5h-1c-0.33,2-.67,4-1,6h-1v3h-1v3h-1v3h-1c-0.33,2.67-.67,5.33-1,8h-1c-0.33,3.33-.67,6.67-1,10h-1q-1.005,9-2,18v9h-1c-1.32,4.75.04,23.57,1,27v11h1v8h1v6h1v4h1v5h1c0.33,2.33.67,4.67,1,7h1v3h1v3h1v3h1v2h1v3h1c0.33,1.33.67,2.67,1,4h1l3,9c0.67,0.33,1.33.67,2,1,0.33,1.33.67,2.67,1,4,0.67,0.33,1.33.67,2,1v2h1v2c1,0.67,2,1.33,3,2v2c1,0.67,2,1.33,3,2v2c1.33,1,2.67,2,4,3v2c1.67,1.33,3.33,2.67,5,4q4.005,4.5,8,9h2c1.33,1.67,2.67,3.33,4,5,1,0.33,2,.67,3,1,0.33,0.67.67,1.33,1,2h2c0.33,0.67.67,1.33,1,2h2c0.33,0.67.67,1.33,1,2,1,0.33,2,.67,3,1v1c1.33,0.33,2.67.67,4,1,0.33,0.67.67,1.33,1,2h2v1h2v1h2v1h2v1h2v1h2v1c2,0.67,4,1.33,6,2v1h3v1h2v1c1.67,0.33,3.33.67,5,1v1q16.995,4.995,34,10h5c4.56,1.4,11.29,2.64,16,4h7v1h8v1h10v1h13c10.25,2.84,28.71,1,41,1,7.14,0,16.48.56,22-1q11.505-.495,23-1,21.495-3.495,43-7v-1h4v-1h4v-1h4v-1h4v-1h4v-1h3v-1h4v-1h3v-1h3v-1h3v-1h3C7145.17,4805.74,7148.05,4803.82,7152,4803Zm1166,551h16v1h3v1h2v1h2v1h2c2,1.67,4,3.33,6,5v2c0.67,0.33,1.33.67,2,1,1.23,2.01,3.34,11.87,2,16h-1c-0.33,1.67-.67,3.33-1,5-4.48,2.68-7,7.81-12,10h-3v1h-3v1c-6.57,2.06-20.98-2.09-24-4-0.33-.67-0.67-1.33-1-2h-2v-1c-1-.67-2-1.33-3-2v-2c-0.67-.33-1.33-0.67-2-1-1.17-1.81-.01-2.24-2-4-0.09-7.95-.15-14.33,3-19,1-.67,2-1.33,3-2,0.67-1,1.33-2,2-3h2c0.33-.67.67-1.33,1-2h2v-1c2-.33,4-0.67,6-1v-1ZM6592,5658c1.98,11.89,2.6,24.89,6,35v4h1c0.33,2.67.67,5.33,1,8a184.245,184.245,0,0,0,24,46q4.5,4.005,9,8,3,3.495,6,7h2c0.67,1,1.33,2,2,3h2c0.67,1,1.33,2,2,3h2c0.33,0.67.67,1.33,1,2,1.33,0.33,2.67.67,4,1,0.33,0.67.67,1.33,1,2,1.33,0.33,2.67.67,4,1v1c2,0.67,4,1.33,6,2v1h3v1h2v1h3v1h3v1h3v1h3v1h3v1h5c10.78,3.38,24.95,5,39,5h15v-1h14l35-6v-1c2.33-.33,4.67-0.67,7-1,4.62-1.65,9.19-4.38,15-5v29c-4.16.41-7.78,1.93-11,3h-4v1h-4v1h-5v1h-5v1h-6v1h-6v1h-8v1h-10v1h-19c-16.6,0-34.12.76-47-3q-7.995-1.005-16-2-16.5-5.505-33-11v-1c-2-.67-4-1.33-6-2v-1c-1.33-.33-2.67-0.67-4-1-0.33-.67-0.67-1.33-1-2-2-.67-4-1.33-6-2v-1c-1-.33-2-0.67-3-1-0.33-.67-0.67-1.33-1-2h-2c-0.33-.67-0.67-1.33-1-2h-2c-1-1.33-2-2.67-3-4h-2c-1.33-1.67-2.67-3.33-4-5h-2q-3.495-4.005-7-8c-1-.67-2-1.33-3-2v-2c-1.67-1.33-3.33-2.67-5-4v-2c-1-.67-2-1.33-3-2v-2c-1-.67-2-1.33-3-2v-2c-0.67-.33-1.33-0.67-2-1-0.33-1.33-.67-2.67-1-4-0.67-.33-1.33-0.67-2-1-0.67-2-1.33-4-2-6-0.67-.33-1.33-0.67-2-1v-2h-1c-0.33-1.33-.67-2.67-1-4h-1v-3h-1c-0.33-1.33-.67-2.67-1-4h-1v-3h-1v-2h-1v-3h-1v-3h-1v-3h-1v-3h-1c-0.33-2.67-.67-5.33-1-8-5.83-17.5-7-38.45-7-62,0-11.51-.57-24,2-33q1.5-11.505,3-23h1c0.33-2.67.67-5.33,1-8h1c0.33-2.33.67-4.67,1-7h1v-3h1v-3h1v-3h1c0.33-1.67.67-3.33,1-5h1c0.33-1.33.67-2.67,1-4h1v-3h1c0.67-2,1.33-4,2-6h1c0.33-1.33.67-2.67,1-4,0.67-.33,1.33-0.67,2-1,0.67-2,1.33-4,2-6,0.67-.33,1.33-0.67,2-1v-2h1c0.33-1,.67-2,1-3,0.67-.33,1.33-0.67,2-1v-2c1.33-1,2.67-2,4-3v-2c1.67-1.33,3.33-2.67,5-4v-2q4.005-3.495,8-7c1-1.33,2-2.67,3-4h2c1.33-1.67,2.67-3.33,4-5,1-.33,2-0.67,3-1,0.33-.67.67-1.33,1-2h2c0.33-.67.67-1.33,1-2,1-.33,2-0.67,3-1v-1h2c0.33-.67.67-1.33,1-2h2v-1h2v-1h2v-1h2v-1h2v-1h2v-1h2v-1c2-.67,4-1.33,6-2v-1c2-.33,4-0.67,6-1v-1h3v-1h3v-1h3v-1h3v-1h4v-1h5c11.04-3.38,24.24-4,39-4h16v1h10v1h7v1h5v1h5q12.495,4.005,25,8v1c2,0.67,4,1.33,6,2v1h2v1c2,0.67,4,1.33,6,2,41.55,26.07,62.78,72.74,63,140h-1v1Q6723.51,5642.005,6592,5658Zm621,156h-41V5560h-1v-10h-1v-5h-1v-4h-1c-0.33-2-.67-4-1-6h-1v-2h-1c-0.33-1.67-.67-3.33-1-5-0.67-.33-1.33-0.67-2-1-0.33-1.33-.67-2.67-1-4-0.67-.33-1.33-0.67-2-1v-2c-1.33-1-2.67-2-4-3-9.04-12.52-24.64-18.84-41-24h-5v-1h-5v-1h-7v-1h-13v-1c-4.75-1.32-23.57.03-27,1h-18q-16.005,2.505-32,5-12.495,4.005-25,8v311h-41V5490c1-.33,2-0.67,3-1v-1h2v-1h3v-1h2v-1h3v-1h3v-1h3v-1h3v-1c3-.67,6-1.33,9-2v-1h4v-1h4v-1h4v-1h4v-1h5c4.55-1.41,11.29-2.64,16-4h8v-1q9-.495,18-1v-1q19.5-.495,39-1c58.3-.01,99.73,12.08,123,47,0.67,0.33,1.33.67,2,1v2c0.67,0.33,1.33.67,2,1,0.33,1.33.67,2.67,1,4h1c0.67,2,1.33,4,2,6h1c10.39,23.37,7,62.98,7,96v191Zm131-156q2.505,18,5,36,4.005,12.495,8,25h1c0.33,1.33.67,2.67,1,4h1v3h1v2h1v2c0.67,0.33,1.33.67,2,1,0.67,2,1.33,4,2,6h1c0.33,1,.67,2,1,3,0.67,0.33,1.33.67,2,1v2c0.67,0.33,1.33.67,2,1v2c1,0.67,2,1.33,3,2v2c0.67,0.33,1.33.67,2,1,2.2,2.33,5,4.54,6,8,3.45,0.94,5.69,3.82,8,6,0.33,0.67.67,1.33,1,2h2c0.67,1,1.33,2,2,3h2c0.33,0.67.67,1.33,1,2h2c0.33,0.67.67,1.33,1,2,1.33,0.33,2.67.67,4,1,0.33,0.67.67,1.33,1,2,1.33,0.33,2.67.67,4,1v1c2,0.67,4,1.33,6,2v1h3v1h2v1h3v1h2v1h3v1h4v1h3v1h4v1q9,1.005,18,2v1h11c3.34,0.94,21.34,2.3,26,1v-1h14v-1h8v-1q9-1.005,18-2v-1h4v-1h4v-1h4v-1h4c4.62-1.63,9.19-4.42,15-5v29c-4.16.41-7.78,1.93-11,3h-4v1h-4v1h-5v1h-5v1h-6v1h-6v1h-8v1h-10v1h-21c-18.59,0-36.78.32-51-4-3.33-.33-6.67-0.67-10-1q-16.5-5.505-33-11v-1c-2-.67-4-1.33-6-2v-1c-1.33-.33-2.67-0.67-4-1-0.33-.67-0.67-1.33-1-2-2-.67-4-1.33-6-2-0.33-.67-0.67-1.33-1-2h-2v-1c-1-.33-2-0.67-3-1-0.33-.67-0.67-1.33-1-2h-2c-1-1.33-2-2.67-3-4h-2c-1.33-1.67-2.67-3.33-4-5h-2q-3.495-4.005-7-8c-1-.67-2-1.33-3-2v-2c-1.67-1.33-3.33-2.67-5-4v-2c-1-.67-2-1.33-3-2v-2c-1-.67-2-1.33-3-2v-2c-0.67-.33-1.33-0.67-2-1-0.33-1.33-.67-2.67-1-4-0.67-.33-1.33-0.67-2-1v-2h-1v-2h-1v-2h-1v-2c-0.67-.33-1.33-0.67-2-1v-3h-1v-2h-1c-0.67-2-1.33-4-2-6h-1c-0.33-2-.67-4-1-6h-1v-2h-1c-0.67-3.33-1.33-6.67-2-10h-1v-3h-1v-4h-1v-4h-1v-5c-4.67-15.25-5-33.91-5-54,0-10.95-.42-22.46,2-31q1.005-9.495,2-19h1v-5h1c0.33-2.67.67-5.33,1-8h1v-3h1v-3h1c0.33-2.33.67-4.67,1-7h1v-2h1c0.33-2,.67-4,1-6h1c0.33-1.33.67-2.67,1-4h1v-3h1c0.67-2,1.33-4,2-6h1c0.33-1.33.67-2.67,1-4,0.67-.33,1.33-0.67,2-1,0.67-2,1.33-4,2-6h1c0.33-1,.67-2,1-3,0.67-.33,1.33-0.67,2-1v-2c1-.67,2-1.33,3-2v-2c0.67-.33,1.33-0.67,2-1,0.33-1,.67-2,1-3,1.67-1.33,3.33-2.67,5-4v-2q4.005-3.495,8-7c0.67-1,1.33-2,2-3h2c1.67-2,3.33-4,5-6h2c0.67-1,1.33-2,2-3h2c0.33-.67.67-1.33,1-2h2c0.33-.67.67-1.33,1-2,1-.33,2-0.67,3-1v-1h2v-1h2v-1h2v-1h2v-1h2v-1h2v-1c2-.67,4-1.33,6-2v-1q12-4.005,24-8h5c11.04-3.38,24.24-4,39-4h16v1h10v1h7v1h5v1h5q12.495,4.005,25,8v1c2,0.67,4,1.33,6,2v1h2v1c2,0.67,4,1.33,6,2,41.55,26.06,62.75,72.78,63,140h-1v1Q7475.51,5642.005,7344,5658Zm506-192v29a80.26,80.26,0,0,1-18-3h-12v-1h-17v1h-12v1h-7v1h-6v1h-4v1h-4v1h-3v1h-3v1c-2,.33-4,0.67-6,1v1c-2,.67-4,1.33-6,2v1c-1,.33-2,0.67-3,1v309h-41V5490c10.52-4.48,22-9.08,33-13h4v-1h4v-1h4v-1h4v-1h5v-1h6v-1h6v-1h8v-1h9v-1h13c4.86-1.39,13.53.56,19-1C7829.97,5465.01,7841.35,5466.12,7850,5466Zm333,22v261c0,38.13,3.74,88.14-6,117-0.67,3.33-1.33,6.67-2,10-8.53,19.73-19.51,37.15-36,49-1,1.33-2,2.67-3,4h-2c-0.33.67-.67,1.33-1,2-1,.33-2,0.67-3,1v1h-2c-0.33.67-.67,1.33-1,2-1.33.33-2.67,0.67-4,1-0.33.67-.67,1.33-1,2-1.33.33-2.67,0.67-4,1v1c-2,.67-4,1.33-6,2v1h-3v1h-2v1h-3v1h-2v1c-2,.33-4,0.67-6,1v1h-4v1h-3v1q-13.995,2.505-28,5h-14v1c-5.21,1.45-20.22.06-24-1h-18v-1h-10v-1h-8c-5.11-1.47-12.17-2.5-17-4h-5v-1h-4v-1h-4v-1h-4v-1h-3v-1h-3v-1c-2-.33-4-0.67-6-1v-1c-1.5-1.68-1-5.82-1-9v-22h1c3.28,3.73,9.85,3.96,15,6v1h3v1h2v1h4v1h3v1h3v1h4v1c2.67,0.33,5.33.67,8,1v1h5v1h5v1h7v1h7v1h13c3.49,0.97,17.09,2.38,22,1v-1h11v-1q6.495-.495,13-1v-1h4v-1h4v-1h4v-1h3v-1h3c15.86-6.84,29.54-15.66,39-29,1-.67,2-1.33,3-2v-2c0.67-.33,1.33-0.67,2-1,0.33-1.33.67-2.67,1-4,0.67-.33,1.33-0.67,2-1,0.33-1.33.67-2.67,1-4h1c0.33-1.33.67-2.67,1-4h1q3.495-12,7-24v-8c2.93-10.42,1.01-29.5,1-42h-1c-2.68,3.08-6.8,3.32-11,5v1h-3v1h-3v1h-3v1h-3v1h-4v1h-4v1h-5v1q-6,.495-12,1v1h-8v1h-11v1h-34v-1h-10v-1q-6-.495-12-1-12.495-3.495-25-7v-1c-1.67-.33-3.33-0.67-5-1v-1h-2v-1h-3v-1c-1.33-.33-2.67-0.67-4-1v-1c-1.33-.33-2.67-0.67-4-1-0.33-.67-0.67-1.33-1-2-2-.67-4-1.33-6-2-0.33-.67-0.67-1.33-1-2h-2v-1c-1-.33-2-0.67-3-1-0.33-.67-0.67-1.33-1-2h-2c-1-1.33-2-2.67-3-4h-2c-1.67-2-3.33-4-5-6h-2c-1.67-2-3.33-4-5-6-0.67-.33-1.33-0.67-2-1v-2c-2-1.67-4-3.33-6-5-0.33-1-.67-2-1-3-1-.67-2-1.33-3-2v-2c-0.67-.33-1.33-0.67-2-1v-2c-0.67-.33-1.33-0.67-2-1v-2c-0.67-.33-1.33-0.67-2-1-0.33-1.33-.67-2.67-1-4-0.67-.33-1.33-0.67-2-1-0.67-2-1.33-4-2-6h-1v-2h-1c-0.67-2-1.33-4-2-6h-1v-3h-1c-0.33-1.33-.67-2.67-1-4h-1c-0.33-2-.67-4-1-6h-1v-3h-1v-3h-1v-3h-1q-1.005-6-2-12c-4.42-13.29-6-31.68-6-49v-19h1v-12h1v-8h1v-6h1v-6q4.5-16.005,9-32h1c0.33-1.67.67-3.33,1-5h1v-2h1v-3h1c0.67-2,1.33-4,2-6h1v-2h1c0.67-2,1.33-4,2-6,0.67-.33,1.33-0.67,2-1,0.33-1.33.67-2.67,1-4,0.67-.33,1.33-0.67,2-1v-2c0.67-.33,1.33-0.67,2-1v-2c0.67-.33,1.33-0.67,2-1v-2c0.67-.33,1.33-0.67,2-1v-2c1-.67,2-1.33,3-2,0.33-1,.67-2,1-3q4.005-3.495,8-7v-2c0.67-.33,1.33-0.67,2-1,0.67-1,1.33-2,2-3h2q3-3.495,6-7h2c1-1.33,2-2.67,3-4,1-.33,2-0.67,3-1,0.33-.67.67-1.33,1-2h2c0.33-.67.67-1.33,1-2,1.33-.33,2.67-0.67,4-1,0.33-.67.67-1.33,1-2,1.33-.33,2.67-0.67,4-1,0.33-.67.67-1.33,1-2,1.33-.33,2.67-0.67,4-1v-1h2v-1c2-.67,4-1.33,6-2v-1h3v-1h2v-1h3v-1h2v-1q14.505-4.005,29-8,6.495-.495,13-1c10.23-2.89,24.99-2,38-2h15v1q10.005,0.495,20,1,16.995,3.495,34,7v1h3v1h3v1h3v1c2,0.33,4,.67,6,1v1h2v1h3v1h2v1h2C8177.59,5485.37,8179.49,5487.22,8183,5488Zm532,309-9,3v1h-3v1h-2v1c-2,.33-4,0.67-6,1v1h-2v1h-3v1h-4v1h-3v1c-2.33.33-4.67,0.67-7,1v1h-4v1c-3,.33-6,0.67-9,1v1h-5v1h-6v1h-6v1h-8c-12.94,3.67-30.67,3-47,3-71.87.01-122.98-18.06-141-72v-5h-1v-5h-1v-12h-1v-7h1v-12h1v-6h1v-4h1v-4h1v-3h1v-3h1v-3h1c0.33-1.33.67-2.67,1-4h1v-2h1v-2h1v-2h1v-2h1c0.33-1,.67-2,1-3,0.67-.33,1.33-0.67,2-1v-2c0.67-.33,1.33-0.67,2-1v-2c2-1.67,4-3.33,6-5v-2c0.67-.33,1.33-0.67,2-1,1.33-1.67,2.67-3.33,4-5h2c1.33-1.67,2.67-3.33,4-5h2c0.67-1,1.33-2,2-3h2c0.67-1,1.33-2,2-3h2c0.33-.67.67-1.33,1-2,1.33-.33,2.67-0.67,4-1,0.33-.67.67-1.33,1-2h2v-1h2v-1h2v-1h2v-1h2v-1h2v-1h2v-1c2-.67,4-1.33,6-2v-1c1.67-.33,3.33-0.67,5-1v-1h2v-1c2-.33,4-0.67,6-1v-1h2v-1c2-.33,4-0.67,6-1v-1h3v-1h3v-1c2.33-.33,4.67-0.67,7-1v-1c2.33-.33,4.67-0.67,7-1v-1c2.67-.33,5.33-0.67,8-1,8.69-2.93,19.99-4.29,29-7h6c5.48-1.63,13.4-2.39,19-4h8v-1h8v-1h8v-1h10c5.33-1.52,12.22-1.92,19-2,0.18-17.44,1.73-39.87-3-53h-1v-3h-1v-2h-1v-3h-1v-2h-1v-2c-0.67-.33-1.33-0.67-2-1-0.33-1.33-.67-2.67-1-4-1-.67-2-1.33-3-2v-2q-4.005-3.495-8-7c-0.67-1-1.33-2-2-3q-25.485-18.015-69-18h-26q-15,2.505-30,5c-13.22,4.25-27.08,8.55-39,14v-27h1v-1q16.995-4.995,34-10l40-6h20c19.18,0,36.64,1.2,51,6q8.505,1.995,17,4v1h2v1h3v1c2,0.67,4,1.33,6,2v1h2v1h2v1c2,0.67,4,1.33,6,2,0.33,0.67.67,1.33,1,2h2v1c1,0.33,2,.67,3,1,0.33,0.67.67,1.33,1,2h2c1.67,2,3.33,4,5,6h2c0.33,0.67.67,1.33,1,2,1,0.67,2,1.33,3,2v2c1.67,1.33,3.33,2.67,5,4v2c1,0.67,2,1.33,3,2,0.33,1.33.67,2.67,1,4,0.67,0.33,1.33.67,2,1,0.33,1.33.67,2.67,1,4h1c0.67,2,1.33,4,2,6h1c9.83,22.44,7,60.04,7,92v178Zm-410-325h42v342h-42V5472Zm-162,309V5498c-4.48-.49-7.52-2.65-11-4h-3v-1h-4v-1h-4v-1h-5v-1h-6v-1h-9v-1h-14c-3.49-.97-17.09-2.38-22-1v1h-9q-7.995,1.005-16,2v1h-4v1h-4v1h-3v1h-4v1h-2v1c-2,.33-4,0.67-6,1v1c-2,.67-4,1.33-6,2v1h-2v1c-2,.67-4,1.33-6,2v1c-1,.33-2,0.67-3,1-0.33.67-.67,1.33-1,2h-2c-0.33.67-.67,1.33-1,2h-2c-0.67,1-1.33,2-2,3h-2c-1.33,1.67-2.67,3.33-4,5h-2c-0.33.67-.67,1.33-1,2-1.33,1-2.67,2-4,3v2c-2,1.67-4,3.33-6,5v2c-1,.67-2,1.33-3,2v2c-0.67.33-1.33,0.67-2,1-0.33,1-.67,2-1,3h-1v2c-0.67.33-1.33,0.67-2,1-0.67,2-1.33,4-2,6-0.67.33-1.33,0.67-2,1l-3,9h-1c-0.33,1.33-.67,2.67-1,4h-1c-0.33,2-.67,4-1,6h-1v2h-1v4h-1v3h-1v3h-1v4h-1v4h-1v4h-1v5h-1v6h-1v7h-1v9h-1v14h-1c-1.35,4.84.01,24.47,1,28v14h1v9q3,14.505,6,29,5.505,13.5,11,27c0.67,0.33,1.33.67,2,1,0.33,1.33.67,2.67,1,4,0.67,0.33,1.33.67,2,1v2h1c0.33,1,.67,2,1,3,0.67,0.33,1.33.67,2,1v2c1.33,1,2.67,2,4,3v2q4.005,3.495,8,7c0.67,1,1.33,2,2,3h2c1,1.33,2,2.67,3,4h2c0.33,0.67.67,1.33,1,2h2c0.33,0.67.67,1.33,1,2,1,0.33,2,.67,3,1v1c1.33,0.33,2.67.67,4,1,0.33,0.67.67,1.33,1,2h2v1h2v1h3v1c1.33,0.33,2.67.67,4,1v1h3v1h3v1h3v1h3v1h4v1h5v1h5v1h7v1h11v1c5.06,1.41,19.37.02,23-1h11v-1q9.495-1.005,19-2v-1h4v-1h4v-1h3v-1c3.33-.67,6.67-1.33,10-2v-1h2v-1h3v-1A38.407,38.407,0,0,1,8143,5781ZM6592,5637q111.495-13.995,223-28c0.66-50.25-13.68-84.88-44-104l-21-9c-2.67-.33-5.33-0.67-8-1v-1h-5v-1h-7v-1h-11c-3.19-.89-15.38-2.3-20-1v1h-10q-10.995,2.505-22,5v1h-2v1c-2,.33-4,0.67-6,1v1c-1.33.33-2.67,0.67-4,1v1c-1.33.33-2.67,0.67-4,1-0.33.67-.67,1.33-1,2-1.33.33-2.67,0.67-4,1-0.33.67-.67,1.33-1,2h-2c-0.33.67-.67,1.33-1,2h-2c-0.67,1-1.33,2-2,3h-2c-1.33,1.67-2.67,3.33-4,5q-4.995,4.5-10,9v2c-1,.67-2,1.33-3,2v2c-0.67.33-1.33,0.67-2,1v2c-0.67.33-1.33,0.67-2,1-0.33,1-.67,2-1,3h-1c-0.33,1.33-.67,2.67-1,4-0.67.33-1.33,0.67-2,1l-3,9h-1c-0.33,1.33-.67,2.67-1,4h-1v3h-1v3C6594.58,5584.65,6592.09,5608.74,6592,5637Zm752,0q111.495-13.995,223-28c0.67-50.17-13.72-84.91-44-104l-21-9c-2.67-.33-5.33-0.67-8-1v-1h-5v-1h-7v-1h-11c-3.19-.89-15.38-2.3-20-1v1h-10l-25,6v1h-2v1h-3v1c-2,.67-4,1.33-6,2v1c-1.33.33-2.67,0.67-4,1-0.33.67-.67,1.33-1,2h-2c-0.33.67-.67,1.33-1,2h-2c-0.33.67-.67,1.33-1,2h-2c-0.67,1-1.33,2-2,3h-2c-1.33,1.67-2.67,3.33-4,5q-4.995,4.5-10,9v2c-1,.67-2,1.33-3,2v2c-0.67.33-1.33,0.67-2,1v2c-0.67.33-1.33,0.67-2,1-0.33,1-.67,2-1,3h-1c-0.33,1.33-.67,2.67-1,4-0.67.33-1.33,0.67-2,1l-3,9h-1c-0.33,1.33-.67,2.67-1,4h-1c-0.33,2-.67,4-1,6h-1v3C7346.45,5587.18,7344.09,5609.93,7344,5637Zm1332,149V5613a52.153,52.153,0,0,0-13,2h-9v1h-7v1h-8c-5.59,1.64-13.52,2.36-19,4h-6c-4.7,1.41-11.44,2.58-16,4h-5v1h-4v1h-4v1h-4v1h-4v1h-4v1h-3v1h-4c-25.17,9.07-47.77,18.92-62,39-1,.67-2,1.33-3,2v2c-8.66,12.94-13,26.08-13,48q0.495,9,1,18h1c0.33,2.67.67,5.33,1,8h1v2h1v3h1c0.67,2,1.33,4,2,6h1v2c0.67,0.33,1.33.67,2,1v2c1,0.67,2,1.33,3,2,17.24,24.27,51.36,32,93,32,11.57,0,24.03.56,33-2h8v-1h6v-1h5v-1h5v-1h4v-1h4v-1c2-.33,4-0.67,6-1C8669.07,5788.79,8672.4,5786.8,8676,5786Z"/>
  <path id="Relleno_de_color_1" data-name="Relleno de color 1" class="cls-2" d="M2478,2085c11.79-.19,26.93-1.2,37,1,9.69,2.11,22.55-.84,31,1,10.9,2.38,22.51-.08,32,2,14.36,3.15,29.13,1.11,42,4q8.505,0.495,17,1c14.97,3.48,32.56,4.43,47,8q14.505,1.995,29,4c26.67,6.88,55.54,11.29,81,19,14.53,4.4,27.74,5.35,42,10,37.43,12.21,76.84,22.58,112,37,7.97,3.27,15.07,3.74,23,7,29.07,11.97,58.94,22.38,88,35,103.97,45.14,204.85,95.6,297,153,62.09,38.68,123.92,74.6,183,116,70.14,49.15,136.87,102.13,205,153,38.22,28.53,71.86,63.24,110,92,15.12,11.4,27.67,26.42,43,38,15.65,11.82,28.14,28.01,44,40q6,6.495,12,13a243.575,243.575,0,0,1,25,22q4.5,4.995,9,10c26.1,19.73,47.98,45.98,71,69,17.84,17.85,35.23,36.07,53,54,13.56,13.68,28.29,26.51,40,42q7.5,7.005,15,14c18.85,24.92,43.12,44.99,62,70,4.1,5.43,10.91,9.59,15,15,18.84,24.92,42.34,46.22,61,71,44,58.43,93.62,112.97,136,173,61.4,86.97,120.3,175.76,177,268,19.65,31.96,35.59,66.13,55,98,5.74,9.42,8.25,19.54,14,29,28.04,46.16,49.49,97.78,72,149,27.11,61.68,52.76,126.9,75,194,12,36.22,20.55,73.82,31,111,10.1,35.94,13.13,73.97,22,111q2.505,22.005,5,44c4.41,19.53,2.52,43.58,7,64v17c2.84,13.47,3.99,50.16,1,64v20c-0.22,10.79-.84,25.09-3,35v12c-3.87,17.33-1.82,36.17-6,54-3.89,16.6-3.6,34.86-8,52-11.47,44.65-16.13,90.47-30,133-28.96,88.77-55.44,174.02-91,255-96.29,219.27-220.71,409.3-354,591-36.2,49.35-78.29,94.18-115,143-15.5,20.62-35.3,38.21-51,59-4.37,5.79-11.62,10.21-16,16-15.35,20.3-34.69,36.74-50,57q-7.005,6.495-14,13c-13.45,17.78-30.29,34.29-46,50q-9,8.505-18,17c-10.74,14.21-24.52,25.52-37,38s-23.79,26.26-38,37q-13.995,14.505-28,29a273.543,273.543,0,0,0-27,24q-4.995,5.505-10,11c-28.48,21.54-51.4,49.4-80,71-5.41,4.09-9.58,10.9-15,15-28.31,21.39-52.76,47.8-81,69-21.66,16.25-41.38,35.09-63,51-50.18,36.91-98.88,76.07-150,112-68.06,47.84-139.3,91.92-211,136-24.49,15.05-50.25,25.96-75,41-16.32,9.92-34.59,19-51,29-7.69,4.68-16.3,6.33-24,11-21.41,13.01-46.78,25.78-70,36-34.75,15.29-69.21,30.93-104,46-31.76,13.75-65.05,23.91-97,37q-16.5,4.995-33,10c-57.47,21.33-120.74,33.12-184,50q-38.49,6.495-77,13-37.5,4.005-75,8c-10.63,2.33-22.34-.12-32,2-8.73,1.91-20.51-.64-28,1-7.36,1.62-20.19.26-26-1h-20c-12.4-.06-27.73-0.55-39-3h-13c-17.15-3.83-36.26-1.84-54-6-14.57-3.41-30.79-3.19-46-7-29.06-7.28-60.35-11.22-88-19-11.64-3.27-21.72-3.33-33-7-34.5-11.22-71.07-19.77-104-32-10.21-3.79-19.94-4.86-30-9-49.89-20.51-100.39-37.65-149-59a2383.692,2383.692,0,0,1-312-166c-59.64-37.63-118.02-74.05-175-114-55.85-39.15-108.57-82.37-163-123-8.66-6.47-16.34-15.53-25-22-40.62-30.37-75.75-66.61-116-97-13.03-9.84-24.04-25.2-37-35-27.41-20.73-48.68-48.35-76-69q-12.5-13.005-25-26c-16.751-12.66-30.262-29.26-45-44s-31.341-28.25-44-45l-22-21c-12.354-12.62-25.32-25.87-36-40-6.906-9.14-18.084-15.86-25-25-15.685-20.74-36.469-37.44-52-58-13.859-18.34-31.322-33.84-45-52-24.749-32.87-52.53-62.67-77-96-27.736-37.78-59.8-73.47-87-112-107.785-152.69-212.443-310.45-292-491-7.588-17.22-17.413-35.59-25-53-14.764-33.89-26.993-68.85-41-103-19.859-48.42-31.487-100.83-48-152-13.955-43.25-18.043-90.3-29-136-4.112-17.15-2.051-33.31-6-51-8.076-36.18-5.69-76.31-8-118-0.986-17.8-2.893-43.04,1-61v-18c4.1-18.56.656-38.92,5-58,7.353-32.29,6.841-66.38,15-98,16.057-62.24,27.638-123.03,47-181,82.851-248.05,203.347-461,340-656,29.093-41.52,61.184-81.43,91-122,26.234-35.69,54.633-68.69,81-104,14.754-19.76,33-37.1,48-57,20.173-26.75,47.535-49.92,68-77l10-9c16.331-21.6,37.716-38.45,54-60q11.5-10.995,23-22c19.534-25.84,46.192-47.19,69-70,20.438-20.44,39.806-43.47,63-61q4.5-4.995,9-10a234.272,234.272,0,0,1,24-21c8.39-6.34,14.6-16.65,23-23,31.33-23.7,57.48-53.27,89-77,6.75-5.08,12.25-12.92,19-18,30.66-23.09,58.21-50.35,89-73,59.75-43.95,117.99-90.14,179-133,73.51-51.64,151.5-97.36,229-145,35.56-21.86,74.4-38.32,110-60,7.68-4.68,16.01-6.84,24-11,22.35-11.62,45.08-22.46,69-33,29.61-13.05,60.75-27.9,91-41,28.51-12.35,58.46-21.31,87-33q16.5-4.995,33-10c47.41-17.6,99.65-28.65,151-43,38.52-10.77,79.75-11.81,120-21,15.58-3.56,32.1-1.73,47-5Q2440,2087.005,2478,2085Zm-447,971c-5.1,7.7-13.53,13.53-20,20l-45,45c-47.17,47.17-94.83,93.83-142,141l-540,540q-34.995,34.5-70,69-16.5,16.995-33,34c-17.84,13.48-32.3,31.29-48,47-28.71,28.72-58.74,58.02-83,91-36.21,49.23-68.171,102.27-94,162-14.417,33.34-23.613,69.97-34,107q-5,25.995-10,52-3.5,31.5-7,63v16c-2.406,11.44-3.4,43.95-1,55,2.171,10.01-.906,23.23,1,32,3.546,16.3-.6,33.21,3,49,6.648,29.15,7.133,59.25,15,87,13.688,48.27,28.335,92.59,47,135,5.959,13.54,14.475,27.66,22,40,5.1,8.36,7.855,16.83,13,25,14.67,23.31,30.8,45.94,47,68,33.07,45.05,75.83,82.83,115,122,67.17,67.16,133.83,134.83,201,202q207.75,207.75,415,416,42.495,42.99,85,86,21,20.505,42,41c9.91,13.12,22.49,23.49,34,35s21.88,24.09,35,34q7.005,7.5,14,15c10.36,9.22,21.04,19.77,32,28,49.58,37.22,100.87,75.58,161,102,43.81,19.24,89.93,33.03,140,47,28.34,7.91,59.16,7.36,89,14q22.005,1.005,44,2c13.64,2.86,57.41,2.95,71,0h19q25.995-2.505,52-5c12.07-2.83,25.25-2.72,38-6,37.45-9.63,75.22-16.56,108-30,15.94-6.54,30.71-10.29,46-17a697.406,697.406,0,0,0,119-67c75.59-52.99,136.66-121.66,201-186l238-238q188.505-188.505,377-377,58.005-58.005,116-116c40.67-40.67,81.39-81.27,115-129,38.4-54.53,63.91-111.58,91-178,8.37-20.53,10.72-41.59,17-64,36.26-129.49,22.82-324.87-22-434-28.17-68.59-60.36-128.61-101-184-14.1-19.22-31.61-35.97-46-55q-8.505-7.995-17-16c-11.84-15.66-27.23-28.23-41-42l-78-78-300-300-220-220-62-62c-6.44-6.44-17.61-21.98-26-25q-457.455,457.95-915,916c-45.58,45.58-91.18,90.61-119,154-10.38,23.66-17.53,49.41-25,76q-1.005,7.995-2,16c-4.82,19.8-11.28,69.2-6,93v18c4.59,20.39,3.51,41.6,9,61,10.18,36.01,20.3,71.88,38,101,48.12,79.15,109.47,142.47,198,181,22.74,9.9,47.59,15.89,73,23,56.22,15.73,155.16,9.02,204-7,20.25-6.64,37.8-11.01,56-19,81.75-35.88,144.23-100.76,189-174,9.74-15.93,15.38-32.93,23-51,11.11-26.34,16.58-56.42,24-88l3-30v-18c1.56-7.44,1.65-21.57,0-29v-20c-4.93-21.91-4.15-44.43-10-65-13.85-48.73-32.24-91.26-58-128-16.36-23.33-38.08-41.62-55-64-6.13-8.11-16.09-13.61-21-23h-2c-7.93,12.18-21.43,19.68-30,31-13.23,17.47-29.86,36.59-53,44-41.17,13.18-84.86-25.22-74-67,7.03-27.06,40.8-51.81,59-70q39.495-40.5,79-81,21-20.505,42-41c9.37-12.38,21.13-22.13,32-33,15.27-15.27,25.77-30.18,51-36,14.72-3.4,31.26,3.84,39,9,10.98,7.32,19.72,19.72,29,29q30.99,31.005,62,62c70.23,70.26,123.96,156.49,159,262,7.79,23.45,11.69,48.45,18,73,2.73,10.64,1.42,19.93,4,31,6.44,27.64,6.99,60.08,7,93,0,14.31,1.77,32.47-1,45v17c-2.31,10.26-.44,21.9-3,33q-4.005,25.995-8,52c-10.01,38.51-17.75,76.62-32,111-70,168.9-206.98,311.63-373,384-45.38,19.78-94.13,30.47-147,44-14.11,3.61-27.21,1.73-42,5-9.68,2.14-22.97,1.75-33,4h-19c-13.34,2.83-46.7,2.94-60,0q-21-1.005-42-2c-10.34-2.36-21.99-1.31-33-4-18.27-4.47-38.88-7.15-56-12-14.51-4.11-27.19-5.39-41-10-51.72-17.27-101.25-38.1-144-65-22.29-14.03-43.89-29.51-65-45-6.64-4.88-12.43-12.07-19-17-28.14-21.12-56.81-46.95-78-75-8.75-11.58-21.28-21.24-30-33-29.16-39.3-60.3-81-81-128-15.55-35.31-28.37-72.04-41-111-6.85-21.14-8.53-44.09-14-66-5.73-22.99-2.69-48.27-8-72v-21c-3.7-17.47-2.67-56.44,1-73,3.8-17.11.11-34.58,4-51,8.4-35.5,12.47-70.32,23-102,5.21-15.67,7.86-30.19,14-45,18.22-43.96,38.94-84.9,63-123,35.06-55.52,81.66-100.66,127-146q70.5-70.995,141-142,34.995-34.995,70-70c23.25-23.26,47.02-46.52,65-75,15.55-24.64,26.71-53.33,36-84,5.49-18.14,4.59-38.33,9-58v-31c0.01-30.77-4.38-57.8-12-81-9.25-28.16-17.68-52.27-32-75-32.8-52.05-86.02-96.02-129-139l-109-109-36-36C2041.78,3066.78,2037.24,3060.13,2031,3056Z"/>
</svg>
