<svg xmlns="http://www.w3.org/2000/svg" width="512" height="512" viewBox="0 0 512 512">
  <defs>
    <style>
      .cls-1 {
        fill: #333f50;
      }

      .cls-1, .cls-2, .cls-3 {
        fill-rule: evenodd;
      }

      .cls-2 {
        fill: #d6d6d6;
      }

      .cls-3 {
        fill: #ea8254;
      }
    </style>
  </defs>
  <path id="oscuro" class="cls-1" d="M392,225v42h1v13h1v5h1v8h1v6h1v9c3.585,12.6,5.336,41.6,1,55v4h-1v3h-1v2h-1v3l-2,1v2l-2,1v2l-2,1-3,4h-2l-1,2-4,1v1h-2v1h-3v1h-6v1l-17-1c-8.695-2.8-19.568-10-24-17l-1-4h-1v-2h-1v-4h-1v-3h-1v-7h-1q-0.5-10.5-1-21h1V318c1.72-6.179-.761-16.661,1-23h1V283h-1V264h-1v-7h-1v-6h-1v-5h-1v-3h-1v-4h-1v-2h-1l-3-9-3-2v-2c-2.154-2.988-8.1-6.518-13-7V202c10.627,0.293,16.575,5.5,22,11l3,2v2l2,1v2l2,1v2l2,1v2h1v3h1v2h1q0.5,2.5,1,5h1v4h1v4h1v5h1v5h1v7h1v17c0.555,3.325,2.339,11.2,1,16h-1v24c-1.936,6.938-1,18.38-1,27v10h1v5h1v2h1v3h1l1,4,3,2v1h2l1,2,4,1v1l7,1c1.469,0.463,6.029,1.892,9,1l9-3,6-8q0.5-3,1-6h1c1.934-5.8,1-17.521,1-25,0-9.915-.785-19.209-3-27v-9h-1q-0.5-6.5-1-13h-1v-6h-1q-0.5-28.5-1-57l-9-8v-2l-4-3v-2l-3-2v-2l-2-1v-2l-2-1v-2h-1l-1-4h-1v-3h-1v-2h-1q-1-7-2-14h1v-5h1v-4h1v-2h1v-2l2-1,1-4h1l3-4-9-5-1-2-4-1v-1h-2v-1l-6-2v-1h-3v-1h-2v-1h-3v-1h-3v-1h-3v-1h-4l-9-3a13.3,13.3,0,0,0-3-4q0.5-3.5,1-7h2l1-2,12,1v1h4v1l6,1v1h2v1h3v1h3v1l6,2v1h2v1h2v1l6,2v1l3,1,1,2,4,1,2,3h2l2,3h2l5,6h2l6,7,2,1v2l5,4v2l3,2v2l2,1v2h1l1,4h1l1,4h1v3h1v21h-1v2h-1v3h-1v2h-1v2l-2,1v2l-6,5v1h-2Zm-21-61a8.58,8.58,0,0,1-2,4h-1c-1.382,2.194-1.083,5.26-2,8h-1q1,5.5,2,11h1v3l2,1,1,4h1l1,3,2,1v2l3,2,1,3h1l4,5c4.316-1.048,4.294-3.344,6-7h1v-4h1q-0.5-2.5-1-5v-7h-1v-2l-2-1-1-4-3-2-1-3h-1v-2l-6-5C374.015,166.291,374.878,164.982,371,164ZM107,418c-1.529-8.256-.805-20.715,0-29h1l1-3,5-4v-1l4-1v-1h4c9.166-2.935,27.684-1,39-1h98c20.4,0,48.839-4.108,50,15,1.815,1.94,1.975,6.134,2,10,0.042,6.5.224,13.929-4,16H109C107.861,417.861,109,418.6,107,418Z"/>
  <path id="gris" class="cls-2" d="M151,120H265l3,4h1v87c-1.139,1.139-.4,0-1,2l-3,1c-1.7,1.487-5.805,1-9,1H150a19.35,19.35,0,0,0-3-3V124c1.139-1.139.4,0,1-2A7.49,7.49,0,0,0,151,120Z"/>
  <path id="naranja" class="cls-3" d="M297,380c-8.934-1.577-19.616-1-32-1H153c-11.143,0-24.471-.706-34,1V135q0.5-9.5,1-19h1v-2h1q1-3,2-6l2-1v-2l2-1,3-4h2l2-3,6-2V94c4.928-1.949,12.663-1,19-1h91c7.6,0,18.017-1.4,24,1v1l4,1,1,2h2l2,3h2v1l2,1v2l4,3v2h1l1,4h1v3h1v4h1v70C296.993,247.5,297.048,317.273,297,380ZM153,120v1h-3q-0.5,1-1,2h-1v2h-1v86a21.9,21.9,0,0,1,5,4h73c13.327,0,29.339,1.1,41-1,0.945-1.8,1.385-1.574,2-4,2.1-2.366,1-17.2,1-22V146c0-8.647.395-18.122-2-24a12.71,12.71,0,0,0-5-1c-2.64-2.3-22.476-1-28-1H153Z"/>
</svg>
