<svg xmlns="http://www.w3.org/2000/svg" width="8363" height="8313" viewBox="0 0 8363 8313">
  <defs>
    <style>
      .cls-1 {
        fill: #d60d31;
      }

      .cls-1, .cls-2 {
        fill-rule: evenodd;
      }

      .cls-2 {
        fill: #1150b6;
      }
    </style>
  </defs>
  <path id="d60d31" class="cls-1" d="M6616,3714c0.67,2,1.33,4,2,6h1v5h1v13h1c1.63,5.82-.79,13.43-1,18V4816c0,7.74-.7,17.91,1,24v20q0.495,7.995,1,16h-1c-0.67,3-1.33,6-2,9-0.67.33-1.33,0.67-2,1-0.33,1.33-.67,2.67-1,4-1.33,1-2.67,2-4,3v1h-2c-0.33.67-.67,1.33-1,2h-4c-2.58,2.25-8.03-.1-12,1-9.83,2.73-18.96-1.99-30-2q-57.495.495-115,1-227.475.495-455,1-775.92,3.495-1552,7-74.985.495-150,1v-1h-13v-1h-14c-10-2.89-23.12-3.16-33-6h-9v-1h-8v-1h-8v-1h-15v-1h-8v-1h-5v-1h-5v-1h-7v-1h-4v-1h-3v-1h-3v-1h-3v-1h-3v-1c-3-.33-6-0.67-9-1q-10.5-3.495-21-7h-5v-1h-4v-1h-2v-1h-4c-0.33-.67-0.67-1.33-1-2q-8.505-1.995-17-4c-0.33-.67-0.67-1.33-1-2h-3c-0.67-1-1.33-2-2-3-1.67-.33-3.33-0.67-5-1-0.33-.67-0.67-1.33-1-2h-5v-1h-4v-1h-2v-1h-4v-1h-2c-0.33-.67-0.67-1.33-1-2h-2c-0.33-.67-0.67-1.33-1-2h-2v-1h-4v-1h-2v-1c-2-.33-4-0.67-6-1v-1c-1.33-.33-2.67-0.67-4-1v-1h-2c-0.33-.67-0.67-1.33-1-2h-2c-0.67-1-1.33-2-2-3h-2v-1c-1.33-.33-2.67-0.67-4-1v-1h-3v-1h-3v-1h-2v-1h-3c-0.33-.67-0.67-1.33-1-2-2-.67-4-1.33-6-2v-1c-1-.33-2-0.67-3-1-0.33-.67-0.67-1.33-1-2-2-.67-4-1.33-6-2-0.33-.67-0.67-1.33-1-2h-3c-0.33-.67-0.67-1.33-1-2h-2v-1h-2c-1.33-1.67-2.67-3.33-4-5-1-.33-2-0.67-3-1-0.33-.67-0.67-1.33-1-2h-2v-1c-1.33-.33-2.67-0.67-4-1v-1h-4v-1h-2c-0.33-.67-0.67-1.33-1-2h-3c-0.33-.67-0.67-1.33-1-2h-2c-0.67-1-1.33-2-2-3h-1v-2h-1c-0.67-1-1.33-2-2-3h-2c-0.67-1-1.33-2-2-3h-2v-1h-2v-1h-2c-0.33-.67-0.67-1.33-1-2-2-.67-4-1.33-6-2-0.33-.67-0.67-1.33-1-2h-2c-0.33-.67-0.67-1.33-1-2h-2c-1-1.33-2-2.67-3-4h-2c-1.33-1.67-2.67-3.33-4-5h-3c-1.67-2-3.33-4-5-6h-2v-1c-1.33-1-2.67-2-4-3v-2c-5.83-1.5-7.96-7.39-14-9v-2h-2v-1q-3.495-3-7-6v-2c-0.67-.33-1.33-0.67-2-1-3.62-3.82-7.17-8.48-13-10v-2c-7.08-1.84-10.57-12.09-15-17-1.33-1-2.67-2-4-3-0.33-.67-0.67-1.33-1-2-1-.33-2-0.67-3-1v-2c-5.48-1.57-6.18-6.78-9-11-0.67-.33-1.33-0.67-2-1v-2c-0.67-.33-1.33-0.67-2-1v-2q-3.495-3-7-6v-2c-1-.67-2-1.33-3-2v-2c-1-.67-2-1.33-3-2v-3c-1-.67-2-1.33-3-2v-2c-1-.67-2-1.33-3-2-0.33-1-.67-2-1-3h-2c-0.55-2.19-2.66-5.38-4-7-0.67-.33-1.33-0.67-2-1v-3c-0.67-.33-1.33-0.67-2-1-0.33-1.33-.67-2.67-1-4-0.67-.33-1.33-0.67-2-1v-2h-1a8.263,8.263,0,0,1-2-4h-2v-2q-3.495-3-7-6c-0.33-1.33-.67-2.67-1-4-0.67-.33-1.33-0.67-2-1v-3h-1v-2h-1v-3h-1v-2h-1v-2c-0.67-.33-1.33-0.67-2-1v-2c-1-.67-2-1.33-3-2v-2c-0.67-.33-1.33-0.67-2-1v-2c-0.67-.33-1.33-0.67-2-1-0.33-1.67-.67-3.33-1-5h-1c-0.33-1.33-.67-2.67-1-4h-1c-0.33-1.67-.67-3.33-1-5-0.67-.33-1.33-0.67-2-1v-2c-1-.67-2-1.33-3-2v-2h-1c-0.33-1.33-.67-2.67-1-4h-1v-3h-1v-3h-1c-0.67-2-1.33-4-2-6h-1c-0.33-1.33-.67-2.67-1-4-0.67-.33-1.33-0.67-2-1-0.33-1.33-.67-2.67-1-4-0.67-.33-1.33-0.67-2-1v-3h-1c-0.33-1.33-.67-2.67-1-4h-1v-3h-1v-5c-0.67-.33-1.33-0.67-2-1v-3h-1c-0.33-1.33-.67-2.67-1-4h-1v-3h-1v-3h-1v-4h-1v-5h-1v-3h-1c-0.33-1.33-.67-2.67-1-4h-1v-2c-0.67-.33-1.33-0.67-2-1-0.33-1.67-.67-3.33-1-5-0.67-.33-1.33-0.67-2-1v-3h-1c-0.33-1.33-.67-2.67-1-4h-1v-3h-1c-0.33-1.33-.67-2.67-1-4h-1v-3c-0.67-.33-1.33-0.67-2-1v-2h-1q-0.495-7.005-1-14c-1.54-5.25-2.45-12.63-4-18v-10h-1v-4h-1v-3h-1v-6h-1v-8h-1v-5h-1v-4h-1v-5h-1v-6h-1v-8c-6.46-21.27-8.99-46.33-9-74v-40h1v-8h1v-6h1v-8h1v-9h1v-5h1v-6h1v-3h1q0.495-6.495,1-13h1v-4h1v-3h1c0.33-3.33.67-6.67,1-10h1v-7h1v-5h1v-4h1v-6h1v-12h1v-5h1v-6h1q0.495-7.995,1-16h1v-3h1c0.33-1.33.67-2.67,1-4h1c0.33-1.67.67-3.33,1-5h1v-3h1c0.33-1.67.67-3.33,1-5,0.67-.33,1.33-0.67,2-1,0.33-1.67.67-3.33,1-5,0.67-.33,1.33-0.67,2-1v-2h1v-2h1q1.005-5.505,2-11h1v-2h1v-5c0.67-.33,1.33-0.67,2-1v-3h1v-2h1c0.33-2,.67-4,1-6h1v-4h1v-2h1v-3h1v-3c0.67-.33,1.33-0.67,2-1,0.33-1.33.67-2.67,1-4,0.67-.33,1.33-0.67,2-1,0.33-1,.67-2,1-3h1q1.995-7.005,4-14h1c0.33-1.33.67-2.67,1-4h1v-2c0.67-.33,1.33-0.67,2-1,0.33-1.33.67-2.67,1-4,0.67-.33,1.33-0.67,2-1,0.33-1.67.67-3.33,1-5,0.67-.33,1.33-0.67,2-1,0.33-1.67.67-3.33,1-5,0.67-.33,1.33-0.67,2-1v-2h1v-2c1.67-1.33,3.33-2.67,5-4v-2h1c0.33-1.33.67-2.67,1-4h1c0.33-2,.67-4,1-6h1v-3h1v-3h1v-2c0.67-.33,1.33-0.67,2-1v-2c1-.67,2-1.33,3-2v-2c1-.67,2-1.33,3-2v-2c0.67-.33,1.33-0.67,2-1v-2c1-.67,2-1.33,3-2v-2c0.67-.33,1.33-0.67,2-1v-2c1.67-1.33,3.33-2.67,5-4v-2c0.67-.33,1.33-0.67,2-1v-1c0.67-.33,1.33-0.67,2-1v-2c0.67-.33,1.33-0.67,2-1,0.33-1,.67-2,1-3h1c0.33-1.33.67-2.67,1-4,0.67-.33,1.33-0.67,2-1v-2c1-.67,2-1.33,3-2v-2c1.33-1,2.67-2,4-3,5.15-5.18,12.16-11.77,14-20h2v-2h1q3-3.495,6-7h2c0.67-1,1.33-2,2-3h2c1.7-1.26,7.39-11.31,8-14h2c0.72-2.76.28-2.24,3-3v-2c1-.33,2-0.67,3-1,0.67-1,1.33-2,2-3h2v-1h2c0.33-.67.67-1.33,1-2q3.495-3,7-6v-2c0.67-.33,1.33-0.67,2-1v-2c1.67-1.33,3.33-2.67,5-4,0.33-.67.67-1.33,1-2h2c0.67-1,1.33-2,2-3h2c0.33-.67.67-1.33,1-2h3c0.33-.67.67-1.33,1-2h2q7.005-7.995,14-16h2c0.67-1,1.33-2,2-3,1.33-.33,2.67-0.67,4-1,0.33-.67.67-1.33,1-2h2c0.33-.67.67-1.33,1-2h2c0.67-1,1.33-2,2-3h2c1.33-1.67,2.67-3.33,4-5h2c0.33-.67.67-1.33,1-2h2c0.33-.67.67-1.33,1-2,1-.33,2-0.67,3-1,0.67-1,1.33-2,2-3h2c2.58-1.85,1.67-3.81,6-5v-2c1-.33,2-0.67,3-1v-1h2c0.33-.67.67-1.33,1-2h3c0.33-.67.67-1.33,1-2h2v-1l9-3c0.67-1,1.33-2,2-3h2c1.33-1.67,2.67-3.33,4-5h2c0.33-.67.67-1.33,1-2h2v-1c2-.67,4-1.33,6-2v-1h3v-1h2v-1h2v-1h2c0.33-.67.67-1.33,1-2h2c0.33-.67.67-1.33,1-2,1.33-.33,2.67-0.67,4-1v-1h4c0.33-.67.67-1.33,1-2h3v-1h2v-1h2v-1h2v-1h2c1-1.33,2-2.67,3-4h2c0.33-.67.67-1.33,1-2h2c0.33-.67.67-1.33,1-2,2-.33,4-0.67,6-1v-1h2v-1h4v-1c1.33-.33,2.67-0.67,4-1v-1c2-.33,4-0.67,6-1v-1h2v-1h6v-1h4v-1h3v-1h4c0.33-.67.67-1.33,1-2,1-.33,2-0.67,3-1,0.67-1,1.33-2,2-3,1.33-.33,2.67-0.67,4-1v-1h2v-1h2v-1h2v-1h2v-1h3c0.33-.67.67-1.33,1-2,1.67-.33,3.33-0.67,5-1v-1h2v-1l37-6h8v-1h3v-1h3v-1h3v-1h2v-1c2.67-.33,5.33-0.67,8-1v-1c1.33-.33,2.67-0.67,4-1v-1h3c0.67-1,1.33-2,2-3h3v-1c1.33-.33,2.67-0.67,4-1v-1h7v-1h4v-1h5v-1h6v-1h6v-1q19.995-.495,40-1c10.03-2.83,26.15-1,38-1h78q171.48,0.495,343,1,561.45,0.495,1123,1,194.475,0.495,389,1h160c6.55,0,15.05-.41,20,1h166c4.28-1.21,16.55-3.83,23-2v1h10v1h4v1h3v1C6614,3713.33,6615,3713.67,6616,3714Z"/>
  <path id="Relleno_de_color_3" data-name="Relleno de color 3" class="cls-2" d="M6620,1648a8.051,8.051,0,0,0,2,4h1v2c0.67,0.33,1.33.67,2,1v2h1v6a50.393,50.393,0,0,1,0,28v7h-1v18c3.04,10.87,1,33.71,1,47v96q-0.495,36.99-1,74h1v17q-0.495,21.495-1,43c0,13.54-.04,29.06,1,41q-0.495,42-1,84,0.495,201.48,1,403c0,11.86,1.81,27.96-1,38q0.495,24.495,1,49v176h-1v3h-1v2c-0.67.33-1.33,0.67-2,1v2c-1.33,1-2.67,2-4,3v1h-2c-0.33.67-.67,1.33-1,2h-3c-3.78,1.49-13.57,3.81-20,2v-1h-15v-1h-9v-1h-14q-84.495-.495-169-1c-40.45-.95-84.91-1-127-1h-57c-8.63-2.42-22.61-1-33-1h-80v-1H5679c-9.76-2.73-25.43-1-37-1H5295q-41.49-.495-83-1c-13.03,0-35.35,1.98-46-1H5033c-9.48-2.66-24.73-1-36-1h-72q-52.5-1.005-105-2h-54v-1h-18c-5.52-1.55-14.86-1-22-1q-46.995-.495-94-1c-6.17-1.73-16.68.77-23-1-6.37-1.79-16.97-1-25-1h-59c-27.05-2.35-57.39-2-87-2q-54-.495-108-1c-2-.33-4-0.67-6-1h-23v-1q-30-.495-60-1h-55v-1q-21.495.495-43,1v-1h-27v-1h-8q-6,.495-12,1c-5.58-1.44-14.82-1-22-1-13.89,0-29.9-1.14-41,2q-13.005.495-26,1v1h-4v1h-9v1h-6c-14.37,4.36-32.3,4.79-47,9q-38.49,1.995-77,4v1h-5v1h-7v1h-6v1h-5v1h-6v1h-3c-0.33.67-.67,1.33-1,2h-3v1c-2,.33-4,0.67-6,1v1h-2v1h-3v1h-2v1h-3v1h-2v1h-2v1c-2,.67-4,1.33-6,2v1h-6c-13.39,4.06-33.14,2.04-47,6h-13v1h-2v1c-2.67.33-5.33,0.67-8,1v1c-1.67.33-3.33,0.67-5,1v1h-2v1h-3v1h-2v1h-2c-0.33.67-.67,1.33-1,2h-2c-0.67,1-1.33,2-2,3h-3c-0.33.67-.67,1.33-1,2h-2v1h-3v1h-4v1h-4v1h-6v1h-2v1h-6v1h-12v1h-4v1h-3v1c-3,.33-6,0.67-9,1v1h-2v1c-2.33.33-4.67,0.67-7,1v1c-1.33.33-2.67,0.67-4,1-0.67,1-1.33,2-2,3h-2v1h-2c-0.33.67-.67,1.33-1,2-1.33.33-2.67,0.67-4,1v1h-4v1h-3v1h-3v1h-4v1h-2v1h-3v1c-3,.33-6,0.67-9,1v1h-7v1h-4v1h-3c-0.33.67-.67,1.33-1,2h-3v1h-2v1h-2c-0.33.67-.67,1.33-1,2h-3v1h-2v1h-2c-0.33.67-.67,1.33-1,2-1.33.33-2.67,0.67-4,1-0.33.67-.67,1.33-1,2h-2c-0.67,1-1.33,2-2,3h-3v1c-1.33.33-2.67,0.67-4,1v1c-3.33.33-6.67,0.67-10,1v1h-3v1h-3v1h-3v1h-3v1h-5v1c-1.33.33-2.67,0.67-4,1v1h-4c-0.33.67-.67,1.33-1,2-1.33.33-2.67,0.67-4,1-1.33,1.67-2.67,3.33-4,5-2,.67-4,1.33-6,2-0.33.67-.67,1.33-1,2-3,.67-6,1.33-9,2v1h-2v1l-9,3v1h-3v1c-2.33.33-4.67,0.67-7,1v1h-3v1c-1.33.33-2.67,0.67-4,1v1h-2c-1.33,1.67-2.67,3.33-4,5h-2c-0.33.67-.67,1.33-1,2-1.33.33-2.67,0.67-4,1v1h-2v1c-2,.67-4,1.33-6,2v1h-3v1h-2v1h-2c-0.33.67-.67,1.33-1,2h-3v1c-1.33.33-2.67,0.67-4,1v1c-2.33.33-4.67,0.67-7,1v1c-1.33.33-2.67,0.67-4,1-0.33.67-.67,1.33-1,2-1.33.33-2.67,0.67-4,1-1.82,6.35-13.08,11.37-19,14-1.67.33-3.33,0.67-5,1-0.33.67-.67,1.33-1,2-1.33.33-2.67,0.67-4,1v1c-1.33.33-2.67,0.67-4,1v1h-3v1h-2v1h-2c-0.33.67-.67,1.33-1,2h-2c-0.33.67-.67,1.33-1,2h-2q-3.495,4.005-7,8h-2c-0.67,1-1.33,2-2,3h-3v1c-1.33.33-2.67,0.67-4,1v1h-3v1h-3v1h-2v1h-2c-0.67,1-1.33,2-2,3h-2v1c-1,.33-2,0.67-3,1-0.33.67-.67,1.33-1,2h-2c-1,1.33-2,2.67-3,4-1.33.33-2.67,0.67-4,1-0.33.67-.67,1.33-1,2h-2v1c-1.76,1.44-2.41,2.27-5,3v2c-2,.67-4,1.33-6,2v1h-2c-0.33.67-.67,1.33-1,2h-3v1h-2v1h-2v1h-2v1h-2c-2,1.67-4,3.33-6,5v2h-1a7.735,7.735,0,0,0-2,4,7.888,7.888,0,0,0-4,2v1c-1.33.33-2.67,0.67-4,1-0.33.67-.67,1.33-1,2l-9,3v1c-2.07,1.67-3.03,3.16-6,4v2h-2c-1,1.33-2,2.67-3,4h-2c-0.67,1-1.33,2-2,3h-2c-0.67,1-1.33,2-2,3-1.33.33-2.67,0.67-4,1-0.33.67-.67,1.33-1,2h-2c-1,1.33-2,2.67-3,4h-2c-0.33.67-.67,1.33-1,2-1.33.33-2.67,0.67-4,1v1c-1,.33-2,0.67-3,1-0.33.67-.67,1.33-1,2-1.33.33-2.67,0.67-4,1v1a8.263,8.263,0,0,1-4,2v2h-1q-4.005,4.5-8,9h-2c-0.33.67-.67,1.33-1,2-2,.67-4,1.33-6,2-0.33.67-.67,1.33-1,2h-3c-0.67,1-1.33,2-2,3h-2c-0.67,1-1.33,2-2,3h-1v2c-1.33,1-2.67,2-4,3-0.33,1-.67,2-1,3h-2v2c-1,.33-2,0.67-3,1v1h-2c-0.33.67-.67,1.33-1,2-1.33.33-2.67,0.67-4,1-0.33.67-.67,1.33-1,2h-2c-0.33.67-.67,1.33-1,2-2,1.67-4,3.33-6,5v2c-1,.67-2,1.33-3,2v2h-1c-1,1.33-2,2.67-3,4h-2c-0.67,1-1.33,2-2,3-4.47,2.99-10.42,3.01-12,9h-2c-4.76,10.33-16.53,14.32-24,22q-3.495,4.995-7,10h-2v2c-1,.33-2,0.67-3,1-0.33.67-.67,1.33-1,2-1,.67-2,1.33-3,2v1h-2v1c-1.73,1.43-2.41,2.33-5,3-0.88,3.27-3.09,4.73-5,7h-1v2c-1,.67-2,1.33-3,2v1h-2v1c-1.48,1.38-1.29.52-2,3h-2q-3,3.495-6,7c-1,.33-2,0.67-3,1v2h-2c-0.72,2.76-.28,2.24-3,3-1.27,5.15-5.64,6.17-7,11h-2c-0.72,2.76-.28,2.24-3,3v2c-2.33,1.67-4.67,3.33-7,5-1,1.33-2,2.67-3,4h-1c-0.33,1.33-.67,2.67-1,4-1,.67-2,1.33-3,2v2h-1c-1.92,2.29-4.09,3.72-5,7h-2c-1,1.33-2,2.67-3,4h-2c-1.33,1.67-2.67,3.33-4,5-0.67.33-1.33,0.67-2,1v2h-1v2c-0.67.33-1.33,0.67-2,1-0.33,1.33-.67,2.67-1,4h-1c-1.9,2.33-4.09,3.69-5,7h-2c-0.67,1-1.33,2-2,3h-2c-0.67,1-1.33,2-2,3-1,.33-2,0.67-3,1v2h-2q-3.495,7.005-7,14c-2.76.72-2.24,0.28-3,3h-2c-1.99,3.45-3.13,2.92-6,5-0.67,1-1.33,2-2,3-0.67.33-1.33,0.67-2,1v2c-0.67.33-1.33,0.67-2,1-0.33,1.33-.67,2.67-1,4-0.67.33-1.33,0.67-2,1v3c-1,.67-2,1.33-3,2v2c-1.33,1-2.67,2-4,3-4.68,4.71-12.34,12.74-14,20h-2v3c-3.84,2.31-3.58,4.53-6,8-1,.67-2,1.33-3,2v2c-0.67.33-1.33,0.67-2,1v2c-1,.67-2,1.33-3,2v2c-1.67,1.33-3.33,2.67-5,4v2h-1c-1,1.33-2,2.67-3,4-1,.67-2,1.33-3,2l-3,9h-1v2c-0.67.33-1.33,0.67-2,1v2c-1,.67-2,1.33-3,2v2q-4.5,4.005-9,8-5.505,10.5-11,21h-2c-0.33,1-.67,2-1,3h-1v2c-0.67.33-1.33,0.67-2,1-0.33,1.33-.67,2.67-1,4-0.67.33-1.33,0.67-2,1-0.33,1.33-.67,2.67-1,4h-1c-0.33,1-.67,2-1,3-0.67.33-1.33,0.67-2,1v2c-1.33,1-2.67,2-4,3v2c-1,.67-2,1.33-3,2v3c-0.67.33-1.33,0.67-2,1v3h-1v2c-0.67.33-1.33,0.67-2,1-0.33,1.33-.67,2.67-1,4-0.67.33-1.33,0.67-2,1v2c-2,1.67-4,3.33-6,5v2c-1,.67-2,1.33-3,2l-3,9h-1c-0.33,1.33-.67,2.67-1,4h-1v2c-0.67.33-1.33,0.67-2,1v2h-1v2h-1v2h-1v2h-1v2c-0.67.33-1.33,0.67-2,1v3h-1v2c-0.67.33-1.33,0.67-2,1-0.33,1.67-.67,3.33-1,5-0.67.33-1.33,0.67-2,1v2c-2,1.67-4,3.33-6,5q-4.5,10.995-9,22c-0.67.33-1.33,0.67-2,1-0.33,1.33-.67,2.67-1,4-0.67.33-1.33,0.67-2,1-0.33,1.33-.67,2.67-1,4-0.67.33-1.33,0.67-2,1v3h-1v2h-1v2h-1c-0.33,1.33-.67,2.67-1,4-0.67.33-1.33,0.67-2,1-0.33,1.33-.67,2.67-1,4-0.67.33-1.33,0.67-2,1v2c-0.67.33-1.33,0.67-2,1v2h-1l-6,18c-1,.67-2,1.33-3,2-0.33,1.33-.67,2.67-1,4h-1c-0.67,2-1.33,4-2,6h-1c-0.33,2-.67,4-1,6-0.67.33-1.33,0.67-2,1-0.33,1.33-.67,2.67-1,4-0.67.33-1.33,0.67-2,1-0.33,1.33-.67,2.67-1,4h-1c-0.33,1.33-.67,2.67-1,4h-1c-0.33,2-.67,4-1,6h-1c-0.33,2-.67,4-1,6h-1v2h-1v3h-1v2c-0.67.33-1.33,0.67-2,1v3h-1c-0.33,1.33-.67,2.67-1,4h-1c-0.33,2-.67,4-1,6h-1v2h-1v3c-0.67.33-1.33,0.67-2,1-0.33,1.33-.67,2.67-1,4-0.67.33-1.33,0.67-2,1v3h-1v2h-1c-0.33,2-.67,4-1,6h-1v4h-1v2h-1c-0.33,1.67-.67,3.33-1,5-0.67.33-1.33,0.67-2,1-0.33,2-.67,4-1,6h-1v2h-1v4h-1c-0.33,1.33-.67,2.67-1,4h-1v3h-1c-0.33,1.33-.67,2.67-1,4h-1v3c-0.67.33-1.33,0.67-2,1q-2.505,10.995-5,22c-0.67.33-1.33,0.67-2,1v3h-1v2h-1c-0.33,2.67-.67,5.33-1,8h-1v2h-1v4h-1c-0.33,1.33-.67,2.67-1,4h-1v3h-1v2h-1c-0.67,3-1.33,6-2,9h-1v2h-1c-0.33,2.33-.67,4.67-1,7-0.67.33-1.33,0.67-2,1v3h-1c-0.33,1.33-.67,2.67-1,4h-1q-1.5,10.005-3,20h-1c-0.33,1.33-.67,2.67-1,4h-1q-1.005,6.495-2,13h-1v3h-1v2h-1v3h-1v3h-1v3h-1q-1.5,8.505-3,17h-1v2h-1c-0.33,2.33-.67,4.67-1,7h-1q-0.495,6-1,12h-1v6h-1v3h-1v5h-1v8h-1v3h-1v5h-1v4h-1v3h-1v4h-1v5h-1c-0.33,2.33-.67,4.67-1,7h-1v3h-1v3h-1v4h-1v6h-1v4h-1v4h-1v5h-1v3h-1v5h-1v3h-1v8h-1v7h-1v6h-1v16h-1v16h-1v11h-1v8h-1v10h-1v4h-1v6h-1q-0.495,8.505-1,17h-1v7h-1v9h-1v8h-1v6h-1v13h-1v8h-1q-0.495,9.495-1,19h-1v7h-1v14h-1q-0.495,12-1,24v11c-2.65,9.49-1,24.72-1,36v54h1v15h1v11q1.005,13.005,2,26h1v10h1v9h1v9h1v8c5.31,18.14,3.7,42.97,9,61v9h1v9h1v8h1v12h1v15h1v7h1v8h1v11h1v3h1v4h1v4h1v6h1v8h1v3h1v3h1c0.33,2.67.67,5.33,1,8h1v6h1v4h1v4h1v3h1c0.33,1.33.67,2.67,1,4h1c0.33,3.33.67,6.67,1,10h1v4h1v6h1v3h1v4h1q0.495,7.5,1,15h1v3h1l3,18h1v3h1v3h1v4h1v2h1c0.33,2.67.67,5.33,1,8h1v3h1v3h1v4h1v2h1c0.33,1.67.67,3.33,1,5h1v4h1v4h1v6h1c0.33,2.67.67,5.33,1,8h1v2h1c0.33,2,.67,4,1,6h1v5h1v3h1v3h1v3c0.67,0.33,1.33.67,2,1v3h1v2h1c0.33,2.33.67,4.67,1,7h1v2h1v3h1v3h1v2h1v2h1v2h1c0.67,2,1.33,4,2,6h1v4h1v3h1v7h1c0.33,1.33.67,2.67,1,4h1c0.67,3,1.33,6,2,9h1v2h1v3h1v4h1v3h1v2h1v3c0.67,0.33,1.33.67,2,1,0.33,1.67.67,3.33,1,5h1v2h1c0.33,2,.67,4,1,6h1v2h1v3h1v2c0.67,0.33,1.33.67,2,1,0.33,1.33.67,2.67,1,4,0.67,0.33,1.33.67,2,1v2h1v2h1q1.995,8.505,4,17c1,0.67,2,1.33,3,2v2h1c0.33,1.33.67,2.67,1,4h1v4h1c0.33,2,.67,4,1,6h1v2h1c0.33,1.67.67,3.33,1,5,0.67,0.33,1.33.67,2,1v2c0.67,0.33,1.33.67,2,1v3c0.67,0.33,1.33.67,2,1v2h1v3h1v3h1v3h1v3c0.67,0.33,1.33.67,2,1v2h1v2c0.67,0.33,1.33.67,2,1,0.33,1.33.67,2.67,1,4,0.67,0.33,1.33.67,2,1v3h1v3h1v3h1v3h1v2h1c0.9,1.39.68,1.75,1,4h2c0.33,1.33.67,2.67,1,4,0.67,0.33,1.33.67,2,1v2h1c0.67,2,1.33,4,2,6h1v3h1v3h1v2h1v2c1,0.67,2,1.33,3,2v2c0.67,0.33,1.33.67,2,1v2h1c0.33,1.33.67,2.67,1,4h1c0.33,1.67.67,3.33,1,5h1v2h1v3h1v2h1v2c0.67,0.33,1.33.67,2,1v2c0.67,0.33,1.33.67,2,1v2c1,0.67,2,1.33,3,2v2h1v2h1v2h1v2h1v2h1v2h1v2h1v2c0.67,0.33,1.33.67,2,1v2c0.67,0.33,1.33.67,2,1v2c0.67,0.33,1.33.67,2,1q1.995,6,4,12h1c0.67,2,1.33,4,2,6h1a8.4,8.4,0,0,1,2,4h2c0.33,1,.67,2,1,3,1,0.67,2,1.33,3,2v2h1v2h1v2c0.67,0.33,1.33.67,2,1,0.67,2,1.33,4,2,6,0.67,0.33,1.33.67,2,1v2h1v2c0.67,0.33,1.33.67,2,1v2c0.67,0.33,1.33.67,2,1v2c0.67,0.33,1.33.67,2,1v2h1v2h1v2h1v2c0.67,0.33,1.33.67,2,1,0.33,1.33.67,2.67,1,4h1c1.67,2.06,3.18,3.04,4,6h2c0.33,1,.67,2,1,3,0.67,0.33,1.33.67,2,1v2c0.67,0.33,1.33.67,2,1,0.33,1.67.67,3.33,1,5h1l3,9h2v2q4.5,4.005,9,8v2c1,0.67,2,1.33,3,2v3c0.67,0.33,1.33.67,2,1v2c1,0.67,2,1.33,3,2v2c1.46,2.48,3.21,3.47,4,7h2a18.617,18.617,0,0,0,3,7c1,0.67,2,1.33,3,2v2c0.67,0.33,1.33.67,2,1v2c1.33,1,2.67,2,4,3v2h1c0.67,1,1.33,2,2,3,2,1.67,4,3.33,6,5v3c0.67,0.33,1.33.67,2,1,0.33,1.67.67,3.33,1,5,0.67,0.33,1.33.67,2,1,0.67,2,1.33,4,2,6q6,4.995,12,10v2c0.67,0.33,1.33.67,2,1v2c0.67,0.33,1.33.67,2,1v3c1,0.67,2,1.33,3,2v3c0.67,0.33,1.33.67,2,1v2h1c1.33,1.67,2.67,3.33,4,5h2v1c1.49,1.38,1.28.52,2,3h2c0.33,1,.67,2,1,3,1,0.67,2,1.33,3,2v2c1,0.67,2,1.33,3,2,0.33,1,.67,2,1,3,0.67,0.33,1.33.67,2,1v2c1,0.67,2,1.33,3,2,0.33,1,.67,2,1,3h1c2.25,2.38,6.08,5.59,7,9,2.76,0.72,2.24.28,3,3h2v2q3.495,3,7,6v2q4.5,4.005,9,8v2q4.5,4.005,9,8v1h2v2c2.13,1.21,2.18,2.25,5,3,0.72,2.76.28,2.24,3,3v2c2.7,1.66,2.57,4,6,5,1.52,6.13,7.4,7.29,9,13,5.03,1.29,8.28,7.16,11,11,1,0.67,2,1.33,3,2v2h1c1.43,1.73,2.32,2.41,3,5h2c1,1.33,2,2.67,3,4h2c0.67,1,1.33,2,2,3h2c1.33,1.67,2.67,3.33,4,5,0.67,0.33,1.33.67,2,1v2c1.83,2.55,3.88,1.7,5,6,2.76,0.72,2.24.28,3,3a7.811,7.811,0,0,1,4,2v1h2c0.33,0.67.67,1.33,1,2h2c1,1.33,2,2.67,3,4h2v1c1,0.67,2,1.33,3,2,2.25,2.25,2.43,4.91,6,6,0.72,2.76.28,2.24,3,3,0.72,2.76.28,2.24,3,3v2c5.88,1.5,9.23,7.23,13,11,2,1.67,4,3.33,6,5,0.33,0.67.67,1.33,1,2h2q3.495,4.005,7,8h2q4.005,4.5,8,9h2c0.67,1,1.33,2,2,3h2c0.67,1,1.33,2,2,3,2.98,2.12,4.91,1.88,6,6,3.43,0.87,2.57,2.07,6,3v2h2v2c1,0.33,2,.67,3,1,0.33,0.67.67,1.33,1,2h2c0.33,0.67.67,1.33,1,2h2v1h2c0.33,0.67.67,1.33,1,2h2c1.33,1.67,2.67,3.33,4,5,2.97,2.15,4.89,1.87,6,6h2c1.26,4.05.46,1.19,3,3,0.33,0.67.67,1.33,1,2h2v1h2c0.33,0.67.67,1.33,1,2,1.33,0.33,2.67.67,4,1v1c1.33,0.33,2.67.67,4,1,0.33,0.67.67,1.33,1,2h2q3,3.495,6,7h1v2c1,0.33,2,.67,3,1v1h2c0.33,0.67.67,1.33,1,2h2c0.33,0.67.67,1.33,1,2,1.33,0.33,2.67.67,4,1,0.33,0.67.67,1.33,1,2h2v1h2c0.67,1,1.33,2,2,3h2c1.33,1.67,2.67,3.33,4,5h2c0.67,1,1.33,2,2,3h2c0.67,1,1.33,2,2,3h2v1c1,0.33,2,.67,3,1,0.33,0.67.67,1.33,1,2h2c0.67,1,1.33,2,2,3h2c1,1.33,2,2.67,3,4h2c0.33,0.67.67,1.33,1,2,1.67,0.33,3.33.67,5,1v1h2c0.33,0.67.67,1.33,1,2,1.33,0.33,2.67.67,4,1,0.67,1,1.33,2,2,3h2c0.33,0.67.67,1.33,1,2,1.67,1.33,3.33,2.67,5,4,0.33,0.67.67,1.33,1,2h3v1h2v1h2v1h2v1h2v1c2,0.67,4,1.33,6,2,0.33,0.67.67,1.33,1,2h2c0.33,0.67.67,1.33,1,2h2c0.33,0.67.67,1.33,1,2,1,0.33,2,.67,3,1,0.67,1,1.33,2,2,3h2c0.33,0.67.67,1.33,1,2,1,0.33,2,.67,3,1v1h2c0.33,0.67.67,1.33,1,2,1.33,0.33,2.67.67,4,1,0.33,0.67.67,1.33,1,2h2c0.67,1,1.33,2,2,3,1.33,0.33,2.67.67,4,1,0.33,0.67.67,1.33,1,2h4v1c1.33,0.33,2.67.67,4,1v1h3c0.33,0.67.67,1.33,1,2,1.33,0.33,2.67.67,4,1v1a8.35,8.35,0,0,0,4,2v2c3.09,0.68,4.65,2.73,7,4h2v1h2v1h3c0.33,0.67.67,1.33,1,2,1.67,0.33,3.33.67,5,1,0.33,0.67.67,1.33,1,2,1.33,0.33,2.67.67,4,1,0.33,0.67.67,1.33,1,2,1.33,0.33,2.67.67,4,1v1c1.33,0.33,2.67.67,4,1v1h3c0.33,0.67.67,1.33,1,2h2v1h3c0.67,1,1.33,2,2,3h2c0.67,1,1.33,2,2,3h2c0.33,0.67.67,1.33,1,2h3v1h3v1h2v1h3v1c2,0.33,4,.67,6,1v1h2v1h2c0.33,0.67.67,1.33,1,2,1.33,0.33,2.67.67,4,1,0.33,0.67.67,1.33,1,2,1.67,0.33,3.33.67,5,1,0.33,0.67.67,1.33,1,2h3v1h2v1h2c0.33,0.67.67,1.33,1,2h2c0.33,0.67.67,1.33,1,2h2c0.67,1,1.33,2,2,3h3v1h2v1h3v1h5v1h3v1h3v1h2c0.33,0.67.67,1.33,1,2,1.67,0.33,3.33.67,5,1,0.33,0.67.67,1.33,1,2,2.33,0.33,4.67.67,7,1v1c1.33,0.33,2.67.67,4,1v1h3c0.33,0.67.67,1.33,1,2,1.33,0.33,2.67.67,4,1,0.33,0.67.67,1.33,1,2h3c0.33,0.67.67,1.33,1,2h2v1h3v1h3v1h3v1h5v1c2,0.67,4,1.33,6,2v1h2v1h3v1h3v1h3v1h3v1h3c0.33,0.67.67,1.33,1,2,1.33,0.33,2.67.67,4,1v1h2v1c2,0.67,4,1.33,6,2v1h3v1h2v1c2,0.33,4,.67,6,1v1h3v1h3v1h3v1c2.67,0.33,5.33.67,8,1v1h8v1h3v1h3v1c1.33,0.33,2.67.67,4,1v1h2v1h3v1h2v1c3,0.67,6,1.33,9,2v1c1.33,0.33,2.67.67,4,1,0.33,0.67.67,1.33,1,2h2v1h3c0.33,0.67.67,1.33,1,2,2,0.33,4,.67,6,1v1h3v1h5v1h4v1h2v1h5v1h7v1c3.67,0.33,7.33.67,11,1v1h2v1q8.505,1.995,17,4v1h3v1h3v1h3v1c1.33,0.33,2.67.67,4,1v1h3v1h3v1h5c4.46,1.46,10.45,3.57,15,5q8.505,0.495,17,1v1h5v1h5v1h10v1h5v1h2v1c3,0.33,6,.67,9,1v1c2.67,0.33,5.33.67,8,1v1h4v1h3v1h3v1h4v1h2v1h6v1h1v-1h1v1h3v1h3v1c2.33,0.33,4.67.67,7,1v1h8c5.96,1.72,14.25,2.33,20,4l65,3v1h8v1h15v1h7v1h9v1h17v1h14c8.63,2.42,22.61,1,33,1,6.25,0,14.33.33,19-1q46.5-.495,93-1h73v-1h68v-1h32q33.99-.495,68-1c11.55,0,27.27,1.77,37-1h61q70.995-.495,142-1h46c7.72,0,17.92.73,24-1q33,0.495,66,1c7.22-2.02,19.09-1,28-1h234q281.475-1.005,563-2l733-6,198-3c18.72,0,33.07-2,51-2,7.6,0,19.24-.71,24,2,0.33,0.67.67,1.33,1,2,3.11,2.85,6.41,5.68,8,10,0.33,2.33.67,4.67,1,7h1v5h1v14h-1v6h-1q-0.495,10.5-1,21c1.62,5.81,1,15.56,1,23v958c0,21.32-1.41,48.01,0,66v1h1v15h1v13h-1v4h-1v3h-1c-0.33,2.67-.67,5.33-1,8h-1v2c-1.25,2.41-3.18,3.86-4,7-1,.33-2,0.67-3,1v1h-2v1h-4v1h-16v1h-18v-1h-40v1h-45c-23.03,0-48.63-.85-70,1h-51c-7.14,0-16.48-.55-22,1h-67c-5.24,1.47-14.15,1-21,1h-54v1H6059c-4.96,1.39-13.45,1-20,1h-38q-56.49.495-113,1-177.975.495-356,1l-360,3h-54v1h-27v1h-13c-12.16,0-28.68-1.9-39,1h-14c-13.05,0-33.07-2.07-44,1h-57c-9.19,2.58-24.02,1-35,1h-10c-9.71,2.73-24.53.48-36,1-5.32.24-12.32,1-19,1h-13v1h-25v1h-30v1h-96l-120,3h-64c-6.09,1.71-16.27,1-24,1q-54.495.495-109,1v1h-53q-51.99.495-104,1h-46c-5.16,1.44-14.21-.61-20,1-7.23,2.01-19.08,1-28,1h-76v-1h-6c-7.75-.05-17.89.72-24-1h-26v-1h-13q-13.5-.495-27-1v-1h-23v-1h-13v-1h-4v-1h-11c-4.99-1.45-12.04-2.48-17-4h-5v-1h-3v-1h-8v-1h-4v-1h-6v-1h-12v-1h-5v-1h-8v-1h-17a55.769,55.769,0,0,0-16-2h-11v-1h-17v-1h-9v-1h-14v-1h-8v-1h-6v-1h-10v-1h-7v-1h-3v-1h-6v-1h-7v-1h-4v-1c-2.67-.33-5.33-0.67-8-1v-1h-2v-1h-6v-1h-3v-1c-3.67-.33-7.33-0.67-11-1v-1h-3v-1h-3v-1h-8v-1h-7v-1h-6v-1h-10v-1q-9.495-.495-19-1v-1h-13v-1h-5v-1h-4v-1h-5v-1h-2v-1c-3.33-.33-6.67-0.67-10-1v-1c-2-.33-4-0.67-6-1v-1c-1.33-.33-2.67-0.67-4-1v-1h-4v-1h-2v-1c-2.67-.33-5.33-0.67-8-1v-1h-3v-1h-2v-1h-5v-1h-3v-1h-4v-1h-9v-1h-6v-1h-5v-1h-13q-9-2.505-18-5c-3.33-.33-6.67-0.67-10-1v-1h-2v-1c-2-.33-4-0.67-6-1v-1h-2v-1h-4v-1h-3v-1h-3v-1h-3v-1h-2v-1c-2-.33-4-0.67-6-1v-1c-1.33-.33-2.67-0.67-4-1v-1q-6-.495-12-1v-1h-4v-1h-4v-1h-4v-1h-5v-1q-6.495-.495-13-1v-1h-3v-1h-3v-1c-2.33-.33-4.67-0.67-7-1v-1h-4v-1h-3v-1c-2-.33-4-0.67-6-1-0.33-.67-0.67-1.33-1-2h-2v-1c-1.33-.33-2.67-0.67-4-1v-1h-4v-1h-3v-1h-3v-1h-5v-1h-2v-1c-2.67-.33-5.33-0.67-8-1v-1h-8v-1c-3.33-.33-6.67-0.67-10-1v-1h-3v-1c-1.33-.33-2.67-0.67-4-1v-1l-13-3v-1h-2v-1h-3c-0.33-.67-0.67-1.33-1-2h-2c-0.33-.67-0.67-1.33-1-2-1.67-.33-3.33-0.67-5-1v-1h-3v-1h-2v-1c-2-.33-4-0.67-6-1v-1h-2v-1h-3v-1h-3v-1h-3v-1h-10v-1h-3v-1h-4v-1h-3v-1c-1.33-.33-2.67-0.67-4-1v-1h-5v-1h-2v-1c-3-.67-6-1.33-9-2v-1c-2-.67-4-1.33-6-2-0.33-.67-0.67-1.33-1-2h-2v-1h-2v-1h-3v-1h-3v-1h-3v-1h-3v-1c-1.33-.33-2.67-0.67-4-1v-1c-1.67-.33-3.33-0.67-5-1v-1q-9.495-1.995-19-4v-1c-1.33-.33-2.67-0.67-4-1v-1h-3v-1c-1.33-.33-2.67-0.67-4-1v-1h-4v-1h-2v-1c-2-.33-4-0.67-6-1v-1h-2c-0.33-.67-0.67-1.33-1-2-2-.67-4-1.33-6-2v-1h-3v-1h-3v-1h-4v-1h-5v-1h-2v-1h-3c-0.33-.67-0.67-1.33-1-2h-2v-1h-2v-1h-3v-1c-1.33-.33-2.67-0.67-4-1v-1h-3v-1h-3v-1c-1.33-.33-2.67-0.67-4-1v-1c-1.33-.33-2.67-0.67-4-1-0.33-.67-0.67-1.33-1-2h-2v-1h-3v-1h-2v-1c-2.33-.33-4.67-0.67-7-1v-1c-1.33-.33-2.67-0.67-4-1v-1h-4c-0.33-.67-0.67-1.33-1-2-1.33-.33-2.67-0.67-4-1-0.33-.67-0.67-1.33-1-2l-13-3v-1c-1.33-.33-2.67-0.67-4-1v-1c-1.33-.33-2.67-0.67-4-1-0.33-.67-0.67-1.33-1-2-1.67-.33-3.33-0.67-5-1v-1h-2v-1h-4v-1c-2-.67-4-1.33-6-2v-1h-2v-1c-1.33-.33-2.67-0.67-4-1-0.67-1-1.33-2-2-3h-2v-1c-1.33-.33-2.67-0.67-4-1v-1h-4v-1h-2v-1h-3v-1c-1.33-.33-2.67-0.67-4-1v-1c-1.33-.33-2.67-0.67-4-1-0.33-.67-0.67-1.33-1-2h-2v-1h-3v-1h-2v-1c-3-.67-6-1.33-9-2v-1h-2c-2.6-1.35-4.49-3.19-8-4v-2c-1.67-.33-3.33-0.67-5-1-0.33-.67-0.67-1.33-1-2h-3v-1c-1.33-.33-2.67-0.67-4-1v-1h-3c-0.33-.67-0.67-1.33-1-2-1.33-.33-2.67-0.67-4-1-0.33-.67-0.67-1.33-1-2-1-.33-2-0.67-3-1v-1h-2v-1h-2v-1h-5c-0.33-.67-0.67-1.33-1-2h-4v-1h-3c-0.33-.67-0.67-1.33-1-2h-3c-0.33-.67-0.67-1.33-1-2h-2c-1-1.33-2-2.67-3-4h-3c-0.33-.67-0.67-1.33-1-2h-2v-1h-3v-1h-2v-1h-2v-1h-2v-1h-2c-0.67-1-1.33-2-2-3h-2c-0.33-.67-0.67-1.33-1-2h-3c-0.33-.67-0.67-1.33-1-2h-3v-1h-3v-1h-3v-1h-3v-1h-2v-1h-2c-0.33-.67-0.67-1.33-1-2h-2c-1.33-1.67-2.67-3.33-4-5h-2c-0.33-.67-0.67-1.33-1-2-1.33-.33-2.67-0.67-4-1v-1h-2v-1h-2v-1h-2v-1c-2-.67-4-1.33-6-2-0.67-1-1.33-2-2-3-1.67-.33-3.33-0.67-5-1-0.33-.67-0.67-1.33-1-2h-4v-1h-2v-1l-9-3c-0.33-.67-0.67-1.33-1-2h-2q-3-3.495-6-7h-2c-0.33-.67-0.67-1.33-1-2h-2v-1h-2v-1h-3c-0.33-.67-0.67-1.33-1-2h-3c-0.33-.67-0.67-1.33-1-2-2-.67-4-1.33-6-2-0.33-.67-0.67-1.33-1-2h-2v-1c-1.33-.33-2.67-0.67-4-1v-1h-3v-1c-1.33-.33-2.67-0.67-4-1v-1h-2c-0.33-.67-0.67-1.33-1-2h-2c-0.67-1-1.33-2-2-3-1-.33-2-0.67-3-1v-2c-4.18-.97-6.5-4.44-10-6h-3v-1h-3v-1c-1.33-.33-2.67-0.67-4-1v-1h-2c-0.33-.67-0.67-1.33-1-2h-2q-3.495-4.005-7-8h-2v-1h-2c-0.33-.67-0.67-1.33-1-2h-2c-0.33-.67-0.67-1.33-1-2-1.33-.33-2.67-0.67-4-1-0.67-1-1.33-2-2-3-1.33-.33-2.67-0.67-4-1-0.33-.67-0.67-1.33-1-2-1-.33-2-0.67-3-1v-1c-1.67-.33-3.33-0.67-5-1v-1h-2v-1h-2v-1h-2c-0.33-.67-0.67-1.33-1-2-3.54-2.35-6.77-2.26-8-7-4.33-1.11-3.47-3.29-6-5q-9-3.495-18-7c-1.33-1.67-2.67-3.33-4-5h-2c-1-1.33-2-2.67-3-4h-1c-0.33-.67-0.67-1.33-1-2h-2c-0.67-1-1.33-2-2-3h-2c-0.33-.67-0.67-1.33-1-2h-2v-1c-1-.33-2-0.67-3-1v-2c-1-.33-2-0.67-3-1v-1h-2c-0.33-.67-0.67-1.33-1-2h-2v-1h-2v-1h-2v-1h-2v-1h-2v-1h-2v-1c-3.62-2.06-6.85-2.45-8-7-4.76-1.26-4.22-4.67-9-6v-2c-7.52-.57-21.44-8.74-23-15a22.517,22.517,0,0,1-7-4c-0.33-.67-0.67-1.33-1-2h-2c-0.33-.67-0.67-1.33-1-2-1.33-.33-2.67-0.67-4-1-0.33-.67-0.67-1.33-1-2-1-.33-2-0.67-3-1-0.67-1-1.33-2-2-3h-2c-0.33-.67-0.67-1.33-1-2h-2c-1-1.33-2-2.67-3-4h-2v-1c-1-.33-2-0.67-3-1-0.33-.67-0.67-1.33-1-2h-2q-4.5-4.995-9-10h-2c-0.67-1-1.33-2-2-3h-3v-1c-1.33-.33-2.67-0.67-4-1v-1h-3c-0.67-1-1.33-2-2-3h-2c-1.67-2-3.33-4-5-6h-1v-2h-2v-2c-1.33-1-2.67-2-4-3v-1h-3c-0.67-1-1.33-2-2-3l-9-3c-0.33-.67-0.67-1.33-1-2-2-1.67-4-3.33-6-5v-2c-0.67-.33-1.33-0.67-2-1-1-1.33-2-2.67-3-4h-2c-0.33-.67-0.67-1.33-1-2h-2c-0.33-.67-0.67-1.33-1-2h-2c-0.33-.67-0.67-1.33-1-2-1.33-.33-2.67-0.67-4-1-0.33-.67-0.67-1.33-1-2h-2v-1a8.134,8.134,0,0,0-4-2c-0.72-2.76-.28-2.24-3-3-0.72-2.76-.28-2.24-3-3v-2c-3.27-.84-4.74-3.11-7-5v-1c-1-.33-2-0.67-3-1-0.67-1-1.33-2-2-3h-2c-1.33-1.67-2.67-3.33-4-5h-2c-0.67-1-1.33-2-2-3h-2c-0.67-1-1.33-2-2-3h-2c-0.67-1-1.33-2-2-3h-2c-0.67-1-1.33-2-2-3h-2c-0.33-1-.67-2-1-3q-3.495-3-7-6c-0.67-1-1.33-2-2-3h-2c-0.33-.67-0.67-1.33-1-2-5.29-3.4-13.22-5.24-15-12h-2c-0.87-3.43-2.07-2.57-3-6-1-.33-2-0.67-3-1v-1c-1-.33-2-0.67-3-1-0.33-.67-0.67-1.33-1-2-1.67-.33-3.33-0.67-5-1-0.33-.67-0.67-1.33-1-2h-2c-0.33-.67-0.67-1.33-1-2-2-1.67-4-3.33-6-5-0.33-1.33-.67-2.67-1-4q-4.005-3.495-8-7c-0.33-.67-0.67-1.33-1-2-2-.67-4-1.33-6-2-0.33-.67-0.67-1.33-1-2h-2c-0.33-.67-0.67-1.33-1-2-1.67-1.33-3.33-2.67-5-4v-2c-1-.67-2-1.33-3-2v-2h-1c-0.67-1-1.33-2-2-3-2.37-2.37-5.07-3.06-8-5-0.33-.67-0.67-1.33-1-2-1.33-.33-2.67-0.67-4-1-0.67-1-1.33-2-2-3q-3.495-3-7-6v-2q-4.005-3.495-8-7c-0.67-1-1.33-2-2-3h-2c-0.33-.67-0.67-1.33-1-2h-2c-1-1.33-2-2.67-3-4h-2v-1c-1-.67-2-1.33-3-2-0.33-1.33-.67-2.67-1-4-1.33-1-2.67-2-4-3-2.7-3-2.14-5.65-7-7v-2c-3.97-1.02-4.91-3.91-9-5v-2c-3.43-2.02-2.92-3.07-5-6-1-.67-2-1.33-3-2v-2q-3.495-3-7-6c-0.67-1-1.33-2-2-3h-2c-0.67-1-1.33-2-2-3h-2c-0.33-.67-0.67-1.33-1-2-1.67-1.33-3.33-2.67-5-4v-2c-0.67-.33-1.33-0.67-2-1v-2c-1.67-1.33-3.33-2.67-5-4v-2h-1c-0.67-1-1.33-2-2-3h-2c-0.33-.67-0.67-1.33-1-2-1-.33-2-0.67-3-1v-1a7.929,7.929,0,0,0-4-2c-0.72-2.76-.28-2.24-3-3a7.851,7.851,0,0,0-2-4h-1c-0.33-1.33-.67-2.67-1-4-0.67-.33-1.33-0.67-2-1v-2c-1.83-2.59-3.78-1.66-5-6-4.5-1.21-7.2-5.05-10-8-0.67-.33-1.33-0.67-2-1v-2c-1-.67-2-1.33-3-2-0.33-1.33-.67-2.67-1-4-0.67-.33-1.33-0.67-2-1v-2c-0.67-.33-1.33-0.67-2-1v-2h-1c-1-1.33-2-2.67-3-4h-2c-0.33-.67-0.67-1.33-1-2h-2c-1.67-2-3.33-4-5-6-0.67-.33-1.33-0.67-2-1v-2c-0.67-.33-1.33-0.67-2-1-0.33-1-.67-2-1-3h-1c-0.33-1.33-.67-2.67-1-4-1-.67-2-1.33-3-2v-2q-7.005-6-14-12v-2c-1.33-1-2.67-2-4-3v-2c-0.67-.33-1.33-0.67-2-1-0.33-1.33-.67-2.67-1-4q-6-5.505-12-11v-2c-1.86-2.57-3.82-1.68-5-6h-2v-2c-2.73-1.74-3.11-4.38-5-7-0.67-.33-1.33-0.67-2-1-2.17-2.3-5.08-4.56-6-8h-2v-2c-1-.67-2-1.33-3-2v-2q-3.495-3-7-6v-2q-3.495-3-7-6v-2c-1-.67-2-1.33-3-2v-2c-1-.67-2-1.33-3-2-0.33-1.33-.67-2.67-1-4-1-.67-2-1.33-3-2v-1c-0.67-.33-1.33-0.67-2-1v-2q-4.5-4.005-9-8v-2c-0.67-.33-1.33-0.67-2-1-0.33-1.33-.67-2.67-1-4h-1c-0.33-1.33-.67-2.67-1-4h-1v-3c-0.67-.33-1.33-0.67-2-1v-2q-5.505-4.995-11-10v-2c-1-.67-2-1.33-3-2v-2h-1v-2c-0.67-.33-1.33-0.67-2-1-0.67-2-1.33-4-2-6-0.67-.33-1.33-0.67-2-1v-2c-1-.67-2-1.33-3-2v-2c-1.67-1.33-3.33-2.67-5-4-0.33-1.33-.67-2.67-1-4-0.67-.33-1.33-0.67-2-1v-2c-1-.67-2-1.33-3-2-0.33-1.33-.67-2.67-1-4h-1c-1.67-2.06-3.17-3.04-4-6h-2c-0.33-1-.67-2-1-3h-1v-2c-0.67-.33-1.33-0.67-2-1-0.33-1.33-.67-2.67-1-4-0.67-.33-1.33-0.67-2-1-0.33-1.33-.67-2.67-1-4h-1c-0.33-1-.67-2-1-3-0.67-.33-1.33-0.67-2-1v-2q-3.495-3-7-6v-2c-0.67-.33-1.33-0.67-2-1-0.33-1.33-.67-2.67-1-4-0.67-.33-1.33-0.67-2-1-0.33-2-.67-4-1-6-0.67-.33-1.33-0.67-2-1-0.33-1.33-.67-2.67-1-4-0.67-.33-1.33-0.67-2-1v-2h-1a8.263,8.263,0,0,1-2-4h-2c-0.33-1.33-.67-2.67-1-4-0.67-.33-1.33-0.67-2-1-0.33-1.33-.67-2.67-1-4-0.67-.33-1.33-0.67-2-1-0.33-1.33-.67-2.67-1-4-0.67-.33-1.33-0.67-2-1v-2c-2-1.67-4-3.33-6-5v-3c-1-.67-2-1.33-3-2l-3-9c-0.67-.33-1.33-0.67-2-1v-2h-1v-2c-0.67-.33-1.33-0.67-2-1-0.33-1-.67-2-1-3h-1a8.178,8.178,0,0,1-2-4h-2c-0.33-1.33-.67-2.67-1-4-0.67-.33-1.33-0.67-2-1-0.33-1.33-.67-2.67-1-4-0.67-.33-1.33-0.67-2-1v-2h-1v-2h-1v-2h-1v-2c-1-.67-2-1.33-3-2v-2c-1-.67-2-1.33-3-2-0.33-1.33-.67-2.67-1-4-0.67-.33-1.33-0.67-2-1-0.33-1.33-.67-2.67-1-4-1.73-3.21-4.02-5.78-5-10h-2c-1.12-4.69-6.09-7.81-8-12q-1.995-6-4-12c-0.67-.33-1.33-0.67-2-1v-2c-1-.67-2-1.33-3-2-0.33-1.33-.67-2.67-1-4-1-.67-2-1.33-3-2v-3c-0.67-.33-1.33-0.67-2-1-0.33-1.67-.67-3.33-1-5-0.67-.33-1.33-0.67-2-1v-2h-1v-2c-1-.67-2-1.33-3-2-0.33-1-.67-2-1-3-0.67-.33-1.33-0.67-2-1q-4.5-10.995-9-22c-1-.67-2-1.33-3-2v-2c-0.67-.33-1.33-0.67-2-1v-2c-1-.67-2-1.33-3-2-0.33-1.33-.67-2.67-1-4h-1v-2h-1v-2h-1v-2c-0.67-.33-1.33-0.67-2-1v-2c-0.67-.33-1.33-0.67-2-1v-2c-0.67-.33-1.33-0.67-2-1v-2c-0.67-.33-1.33-0.67-2-1v-2c-0.67-.33-1.33-0.67-2-1v-3h-1v-3h-1v-2h-1v-4h-1v-2h-1v-2c-0.67-.33-1.33-0.67-2-1v-2c-0.67-.33-1.33-0.67-2-1v-2c-0.67-.33-1.33-0.67-2-1-0.33-1.33-.67-2.67-1-4-0.67-.33-1.33-0.67-2-1-0.33-1.67-.67-3.33-1-5-0.67-.33-1.33-0.67-2-1v-2h-1v-3c-0.67-.33-1.33-0.67-2-1-0.33-1.33-.67-2.67-1-4-0.67-.33-1.33-0.67-2-1-0.33-1.67-.67-3.33-1-5-0.67-.33-1.33-0.67-2-1q-1.995-7.005-4-14h-2c-0.53-5.07-2.08-3.28-4-6v-2c-0.67-.33-1.33-0.67-2-1v-2c-0.67-.33-1.33-0.67-2-1-0.33-2-.67-4-1-6h-1c-0.33-1.33-.67-2.67-1-4h-1v-3c-0.67-.33-1.33-0.67-2-1-0.33-1.33-.67-2.67-1-4h-1c-0.67-2-1.33-4-2-6h-1c-0.67-3.33-1.33-6.67-2-10-0.67-.33-1.33-0.67-2-1-0.33-1.67-.67-3.33-1-5-1-.67-2-1.33-3-2v-2c-0.67-.33-1.33-0.67-2-1-0.33-1.33-.67-2.67-1-4-0.67-.33-1.33-0.67-2-1v-2h-1v-2h-1v-2h-1v-3h-1c-0.33-1.33-.67-2.67-1-4h-1v-2c-0.67-.33-1.33-0.67-2-1-0.33-1.67-.67-3.33-1-5h-1v-2h-1v-3h-1v-5h-1v-3h-1v-3h-1v-3c-1.67-1.33-3.33-2.67-5-4-0.33-1.33-.67-2.67-1-4-0.67-.33-1.33-0.67-2-1v-2h-1v-3c-0.67-.33-1.33-0.67-2-1v-2h-1c-0.33-1.33-.67-2.67-1-4h-1v-3c-0.67-.33-1.33-0.67-2-1-0.33-1.33-.67-2.67-1-4h-1c-0.33-1.33-.67-2.67-1-4h-1v-6h-1v-4h-1v-3h-1v-3h-1v-2c-0.67-.33-1.33-0.67-2-1v-3c-0.67-.33-1.33-0.67-2-1v-2h-1v-2h-1v-2h-1v-2h-1v-3h-1v-2c-0.67-.33-1.33-0.67-2-1v-2h-1v-2h-1c-0.33-1-.67-2-1-3-0.67-.33-1.33-0.67-2-1v-3h-1v-4h-1v-4h-1v-6h-1v-3h-1c-0.33-1.33-.67-2.67-1-4h-1v-3h-1v-2h-1v-3h-1v-2h-1v-3h-1c-0.67-2-1.33-4-2-6h-1v-2h-1a8.4,8.4,0,0,1-2-4h-2c-0.67-2-1.33-4-2-6h-1q-1.5-7.005-3-14h-1c-0.33-1.33-.67-2.67-1-4h-1v-3h-1q-1.5-9.495-3-19c-0.67-.33-1.33-0.67-2-1v-3c-0.67-.33-1.33-0.67-2-1-0.67-2-1.33-4-2-6-0.67-.33-1.33-0.67-2-1v-3h-1v-2c-0.67-.33-1.33-0.67-2-1v-3c-0.67-.33-1.33-0.67-2-1-0.33-1.67-.67-3.33-1-5-0.67-.33-1.33-0.67-2-1v-2h-1v-4h-1v-4h-1v-7l-6-18v-6h-1c-0.33-1.33-.67-2.67-1-4h-1v-2c-0.67-.33-1.33-0.67-2-1-0.33-1.67-.67-3.33-1-5-1-.67-2-1.33-3-2v-2h-1v-2h-1v-3h-1v-3h-1v-3h-1v-2h-1c-0.33-1.67-.67-3.33-1-5h-1c-0.33-3-.67-6-1-9h-1q-0.495-6-1-12h-1v-4h-1v-3h-1v-4h-1v-5h-1v-3h-1v-3h-1v-2h-1v-2c-0.67-.33-1.33-0.67-2-1v-2c-0.67-.33-1.33-0.67-2-1v-2c-0.67-.33-1.33-0.67-2-1l-9-24v-6h-1v-12h-1v-5h-1v-10h-1c-0.33-3.67-.67-7.33-1-11h-1v-2h-1c-0.33-1.67-.67-3.33-1-5-0.67-.33-1.33-0.67-2-1v-3c-0.67-.33-1.33-0.67-2-1-0.33-1.33-.67-2.67-1-4-0.67-.33-1.33-0.67-2-1-0.33-1.33-.67-2.67-1-4-0.67-.33-1.33-0.67-2-1-0.33-1-.67-2-1-3h-1c-1.27-2.06-1.03-5.56-2-8h-1v-3h-1v-7h-1v-5h-1v-3h-1v-22h-1c-0.33-3.67-.67-7.33-1-11h-1c-0.33-3.33-.67-6.67-1-10h-1v-2h-1v-3c-0.67-.33-1.33-0.67-2-1v-2h-1c-0.33-1.33-.67-2.67-1-4h-1c-0.33-2-.67-4-1-6h-1v-2h-1v-4h-1v-3h-1v-2h-1c-0.67-3-1.33-6-2-9h-1v-9h-1v-6h-1v-5h-1v-10h-1v-11h-1v-5h-1q-0.495-6.495-1-13h-1v-5h-1v-4h-1c-0.33-1.33-.67-2.67-1-4h-1c-0.33-2.33-.67-4.67-1-7h-1v-2h-1v-4h-1c-0.33-1.33-.67-2.67-1-4h-1v-3h-1c-0.33-1.33-.67-2.67-1-4h-1v-4h-1v-4h-1v-8h-1v-5h-1v-5h-1v-16h-1v-8h-1v-12h-1q-0.495-10.005-1-20h-1v-7h-1v-7h-1v-4h-1v-3h-1v-4h-1c-0.33-3-.67-6-1-9h-1v-3c-0.67-.33-1.33-0.67-2-1-0.33-1.67-.67-3.33-1-5h-1v-2h-1c-0.33-3-.67-6-1-9h-1v-3h-1v-5h-1v-4h-1v-5h-1v-17h-1v-11h-1v-14h-1v-18h-1v-20h-1q-0.495-10.5-1-21v-11h-1v-8h-1v-8h-1v-10c-5.08-17.5-5.87-38.59-11-56v-8h-1v-15h-1v-10h-1q-1.005-46.995-2-94c-1.95-6.93-1-18.38-1-27V4219c0-11.98-1.8-30.06,1-40v-11c0-8.92-.31-19.67,1-27-0.33-1.67-.67-3.33-1-5h1v-15c0-6.55-.4-15.04,1-20v-18h1v-14h1v-11h1v-8h1v-8h1v-7h1q0.495-6.495,1-13h1v-5h1v-4h1v-5h1v-6h1v-10h1v-6h1v-8h1v-8h1v-8h1v-16h1v-11h1q1.5-35.49,3-71h1v-8h1v-8h1v-6h1v-4h1v-2h1v-4h1v-3h1v-3h1c0.33-2.67.67-5.33,1-8h1v-2h1v-3h1c0.33-1.33.67-2.67,1-4h1v-4h1v-4h1v-6h1c0.33-3.67.67-7.33,1-11h1q0.495-10.5,1-21h1v-10h1v-12h1v-14h1v-10h1v-5h1v-5h1v-3h1c0.33-3,.67-6,1-9h1v-2h1v-3h1v-2c0.67-.33,1.33-0.67,2-1v-3h1c0.33-1.33.67-2.67,1-4h1v-4h1v-3h1q1.5-7.005,3-14h1q0.495-8.505,1-17h1v-5h1v-13h1v-8h1c0.33-3.33.67-6.67,1-10h1v-5h1v-4h1v-5h1c0.33-1.33.67-2.67,1-4h1v-3c0.67-.33,1.33-0.67,2-1v-3c0.67-.33,1.33-0.67,2-1,0.33-2,.67-4,1-6h1v-2h1c0.33-2,.67-4,1-6h1c0.33-1.33.67-2.67,1-4h1v-4h1q1.005-10.5,2-21v-10h1v-10h1c0.33-2.67.67-5.33,1-8h1v-3h1c0.33-3,.67-6,1-9,0.67-.33,1.33-0.67,2-1,0.33-1.67.67-3.33,1-5,1.67-1.33,3.33-2.67,5-4v-2c0.67-.33,1.33-0.67,2-1v-2h1c0.67-2,1.33-4,2-6h1c0.67-3,1.33-6,2-9h1q0.495-7.005,1-14h1v-12h1v-5h1v-8h1v-5h1v-5h1c0.33-1.33.67-2.67,1-4h1c0.33-1.33.67-2.67,1-4,0.67-.33,1.33-0.67,2-1v-2h1v-2h1v-2h1v-2c0.67-.33,1.33-0.67,2-1,0.67-2,1.33-4,2-6,0.67-.33,1.33-0.67,2-1v-3h1c0.33-1.33.67-2.67,1-4h1q0.495-6.495,1-13h1c0.33-3.33.67-6.67,1-10h1v-3h1q1.005-7.5,2-15,3.495-7.005,7-14c1-.67,2-1.33,3-2v-3h1v-3h1c0.33-1.33.67-2.67,1-4h1v-2c0.67-.33,1.33-0.67,2-1v-4h1v-3h1v-7h1v-8h1c0.67-3.33,1.33-6.67,2-10h1v-3h1c0.33-2.67.67-5.33,1-8h1c0.33-1.33.67-2.67,1-4h1v-2c0.67-.33,1.33-0.67,2-1v-2c1-.67,2-1.33,3-2v-2c0.67-.33,1.33-0.67,2-1,0.33-1.67.67-3.33,1-5,0.67-.33,1.33-0.67,2-1,0.33-2.33.67-4.67,1-7h1c0.33-1.33.67-2.67,1-4h1v-3h1v-3h1v-5h1v-7h1c0.67-3,1.33-6,2-9h1c0.67-2,1.33-4,2-6h1v-2h1v-3h1v-2c0.67-.33,1.33-0.67,2-1,0.33-1.67.67-3.33,1-5h2c0.68-3.07,2.69-4.68,4-7v-2c0.67-.33,1.33-0.67,2-1q1.005-6.495,2-13h1v-4h1c0.33-1.33.67-2.67,1-4h1v-3h1v-2h1c0.33-2.33.67-4.67,1-7h1v-2h1v-3h1v-2h1v-2c0.67-.33,1.33-0.67,2-1v-2c0.67-.33,1.33-0.67,2-1v-2c1-.67,2-1.33,3-2v-2h1q1.005-5.505,2-11h1v-3h1c0.67-2,1.33-4,2-6h1v-2h1v-3h1v-2h1c0.67-3,1.33-6,2-9h1c0.33-1.33.67-2.67,1-4h1v-2c0.67-.33,1.33-0.67,2-1v-2c0.67-.33,1.33-0.67,2-1,0.33-1.33.67-2.67,1-4,0.67-.33,1.33-0.67,2-1,0.33-2,.67-4,1-6,0.67-.33,1.33-0.67,2-1v-3h1v-2h1v-3c0.67-.33,1.33-0.67,2-1v-3c0.67-.33,1.33-0.67,2-1v-3h1v-2h1c0.33-2.33.67-4.67,1-7h1c0.67-2,1.33-4,2-6h1v-3h1c0.33-1,.67-2,1-3,1-.67,2-1.33,3-2v-3c0.67-.33,1.33-0.67,2-1,0.33-1.67.67-3.33,1-5,0.67-.33,1.33-0.67,2-1v-2h1v-3c0.67-.33,1.33-0.67,2-1v-3c1-.67,2-1.33,3-2v-3c0.67-.33,1.33-0.67,2-1,0.33-2.33.67-4.67,1-7h1c0.67-2,1.33-4,2-6h1v-3c0.67-.33,1.33-0.67,2-1v-3c1-.67,2-1.33,3-2v-3c0.67-.33,1.33-0.67,2-1,0.33-1.33.67-2.67,1-4h1c0.33-1.33.67-2.67,1-4h1v-4h1v-2c0.67-.33,1.33-0.67,2-1v-3c1-.67,2-1.33,3-2v-2c0.67-.33,1.33-0.67,2-1,0.33-1.33.67-2.67,1-4,0.67-.33,1.33-0.67,2-1,0.33-2,.67-4,1-6h1v-2h1v-3c0.67-.33,1.33-0.67,2-1,0.33-1.33.67-2.67,1-4,1-.67,2-1.33,3-2l3-9c0.67-.33,1.33-0.67,2-1v-2h1v-4c0.67-.33,1.33-0.67,2-1v-3h1v-2h1a8.4,8.4,0,0,0,2-4h2q1.995-5.505,4-11c0.67-.33,1.33-0.67,2-1v-2h1v-3c0.67-.33,1.33-0.67,2-1v-2c1-.67,2-1.33,3-2v-2c1-.67,2-1.33,3-2l3-9h1v-2h1v-3h1v-2c0.67-.33,1.33-0.67,2-1v-2c1-.67,2-1.33,3-2v-2c1-.67,2-1.33,3-2v-3h1v-2h1v-2h1v-2h1v-2h1c0.67-2,1.33-4,2-6,0.67-.33,1.33-0.67,2-1v-2c1.67-1.33,3.33-2.67,5-4,0.33-1.33.67-2.67,1-4h1v-2c0.67-.33,1.33-0.67,2-1v-3h1v-3h1v-2h1v-2c0.67-.33,1.33-0.67,2-1v-2c1-.67,2-1.33,3-2v-2c0.67-.33,1.33-0.67,2-1l3-9h1c0.67-2,1.33-4,2-6,0.67-.33,1.33-0.67,2-1v-2h1c0.33-1,.67-2,1-3h2c0.33-1,.67-2,1-3,1-.67,2-1.33,3-2v-2h1v-2c0.67-.33,1.33-0.67,2-1v-2h1v-2h1v-2h1v-2h1v-2h1c0.33-1,.67-2,1-3,0.67-.33,1.33-0.67,2-1v-2c1-.67,2-1.33,3-2,0.33-1,.67-2,1-3,0.67-.33,1.33-0.67,2-1,0.33-1.67.67-3.33,1-5,0.67-.33,1.33-0.67,2-1,0.33-1.67.67-3.33,1-5,0.67-.33,1.33-0.67,2-1v-2h1v-2c1.67-1.33,3.33-2.67,5-4,0.33-1,.67-2,1-3,0.67-.33,1.33-0.67,2-1v-3c1-.67,2-1.33,3-2v-3h1v-2c0.67-.33,1.33-0.67,2-1v-2c0.67-.33,1.33-0.67,2-1v-2q4.005-3.495,8-7v-2c0.67-.33,1.33-0.67,2-1v-2h1v-2h1v-2h1v-2c0.67-.33,1.33-0.67,2-1v-3c1-.67,2-1.33,3-2v-3c0.67-.33,1.33-0.67,2-1v-2c1-.67,2-1.33,3-2q3.495-7.995,7-16h1c1.9-2.35,4.06-3.69,5-7h2c0.67-2.62,1.59-3.23,3-5h1c0.33-1.33.67-2.67,1-4,0.67-.33,1.33-0.67,2-1,0.33-1.33.67-2.67,1-4,1-.67,2-1.33,3-2v-2q3.495-3,7-6v-2c1-.67,2-1.33,3-2v-2c0.67-.33,1.33-0.67,2-1,0.33-1.33.67-2.67,1-4,0.67-.33,1.33-0.67,2-1,0.33-1.33.67-2.67,1-4,0.67-.33,1.33-0.67,2-1,0.33-1.33.67-2.67,1-4,1.33-1,2.67-2,4-3v-2c1.33-1,2.67-2,4-3,0.33-1,.67-2,1-3,0.67-.33,1.33-0.67,2-1v-2c0.67-.33,1.33-0.67,2-1,0.33-1.33.67-2.67,1-4,0.67-.33,1.33-0.67,2-1v-2c1-.67,2-1.33,3-2v-2c2-1.67,4-3.33,6-5v-3c0.67-.33,1.33-0.67,2-1,0.33-1.33.67-2.67,1-4,0.67-.33,1.33-0.67,2-1,0.33-1.33.67-2.67,1-4,1-.67,2-1.33,3-2v-2c0.67-.33,1.33-0.67,2-1,0.67-1,1.33-2,2-3h2c1.67-2,3.33-4,5-6h1v-2h2c1.06-5.25,4.7-7.19,6-12h2v-2h1c2.15-2.76,4.89-3.02,6-7h2c0.67-1,1.33-2,2-3h1v-2c0.67-.33,1.33-0.67,2-1v-2l11-14c1-.33,2-0.67,3-1,1.67-2,3.33-4,5-6,0.67-.33,1.33-0.67,2-1,0.33-1.33.67-2.67,1-4,1.33-1,2.67-2,4-3v-2c0.67-.33,1.33-0.67,2-1v-2h1a8.134,8.134,0,0,0,2-4h2c0.98-3.37,1.21-1.91,3-4h1v-2h2c0.68-2.59,1.57-3.27,3-5h1v-2c0.67-.33,1.33-0.67,2-1,0.67-1,1.33-2,2-3h1v-2h1a8.051,8.051,0,0,0,2-4h2a30.505,30.505,0,0,1,6-8c0.67-.33,1.33-0.67,2-1v-2c1.67-1.33,3.33-2.67,5-4v-2q7.005-6.495,14-13v-2c1.33-1,2.67-2,4-3v-2c0.67-.33,1.33-0.67,2-1,2.19-2.31,5.04-4.55,6-8,2.76-.72,2.24-0.28,3-3h2c2.85-4.79,8.39-5.7,10-12h2c0.87-3.43,2.07-2.57,3-6h2c1.85-6.92,11.22-9.78,15-15v-2c1.67-1.33,3.33-2.67,5-4v-2q3.495-3,7-6c0.33-.67.67-1.33,1-2h2c1-1.33,2-2.67,3-4h2c0.33-.67.67-1.33,1-2,1.67-1.33,3.33-2.67,5-4v-2c1-.67,2-1.33,3-2,4.26-4.33,8.4-11.26,15-13v-2h2c1.67-2,3.33-4,5-6h1v-2c1-.67,2-1.33,3-2q3.495-4.005,7-8h2v-2c1-.33,2-0.67,3-1,0.67-1,1.33-2,2-3h2c0.33-.67.67-1.33,1-2,2-1.67,4-3.33,6-5q6-6.495,12-13h2c0.67-1,1.33-2,2-3h2q5.505-6,11-12c1-.33,2-0.67,3-1,1-1.33,2-2.67,3-4h2c0.33-.67.67-1.33,1-2,2.39-2.26,5.58-6.07,9-7v-2h2c1-1.33,2-2.67,3-4h2c1.33-1.67,2.67-3.33,4-5h2c0.33-.67.67-1.33,1-2h2q3.495-4.005,7-8h1v-2h2v-2h2c2.29-3.83,6.37-4.47,10-7,0.33-.67.67-1.33,1-2,1-.33,2-0.67,3-1v-1a7.929,7.929,0,0,1,4-2c0.72-2.76.28-2.24,3-3a7.538,7.538,0,0,1,6-6v-2h2c2.14-3.25,5.79-3.77,9-6,0.67-1,1.33-2,2-3h2v-1c1.33-1,2.67-2,4-3v-2q3.495-3,7-6c0.67-1,1.33-2,2-3h2c0.67-1,1.33-2,2-3,2-.67,4-1.33,6-2,0.67-1,1.33-2,2-3h2c0.33-.67.67-1.33,1-2,2.4-2.27,5.57-6.06,9-7v-2a12.44,12.44,0,0,0,6-3v-1h2c0.33-.67.67-1.33,1-2h2c0.33-.67.67-1.33,1-2h2c1.33-1.67,2.67-3.33,4-5h2c1-1.33,2-2.67,3-4,1.33-.33,2.67-0.67,4-1v-1c1-.33,2-0.67,3-1,0.33-.67.67-1.33,1-2,1.33-.33,2.67-0.67,4-1,1-1.33,2-2.67,3-4,1-.33,2-0.67,3-1v-2h2c1.52-4.76.83-1.07,4-3,0.67-1,1.33-2,2-3,1-.33,2-0.67,3-1v-1c2-.67,4-1.33,6-2,0.33-.67.67-1.33,1-2h2c0.33-.67.67-1.33,1-2h2v-1c1.33-1,2.67-2,4-3v-2h1c0.67-1,1.33-2,2-3h2c0.67-1,1.33-2,2-3h2c0.33-.67.67-1.33,1-2,2-.67,4-1.33,6-2v-1c1-.33,2-0.67,3-1,0.33-.67.67-1.33,1-2h2v-1c2.57-2.14,4.38-5,8-6v-2a7.811,7.811,0,0,0,4-2v-1c1.33-.33,2.67-0.67,4-1,0.33-.67.67-1.33,1-2h2c0.33-.67.67-1.33,1-2h2v-1c1-.33,2-0.67,3-1,0.33-.67.67-1.33,1-2h2c0.67-1,1.33-2,2-3,1.33-.33,2.67-0.67,4-1,0.33-.67.67-1.33,1-2,1.33-.33,2.67-0.67,4-1,2.85-1.54,5.48-4.06,9-5v-2h2c3.4-5.89,14.38-13.37,22-15v-2h2c0.67-1,1.33-2,2-3h2c1.67-2,3.33-4,5-6,1.33-.33,2.67-0.67,4-1,0.33-.67.67-1.33,1-2,1.33-.33,2.67-0.67,4-1,0.33-.67.67-1.33,1-2,1.33-.33,2.67-0.67,4-1,0.33-.67.67-1.33,1-2h2c0.33-.67.67-1.33,1-2h2c0.33-.67.67-1.33,1-2h2c0.33-.67.67-1.33,1-2l9-3c0.33-.67.67-1.33,1-2,1.33-.33,2.67-0.67,4-1v-1a8.263,8.263,0,0,1,4-2c0.72-2.76.28-2.24,3-3v-2a7.851,7.851,0,0,0,4-2v-1c2-.67,4-1.33,6-2v-1h3v-1c1.33-.33,2.67-0.67,4-1v-1h3c0.33-.67.67-1.33,1-2,1-.67,2-1.33,3-2v-1h2c1-1.33,2-2.67,3-4h2c0.67-1,1.33-2,2-3h2c0.33-.67.67-1.33,1-2h2c0.67-1,1.33-2,2-3,1.33-.33,2.67-0.67,4-1,0.67-1,1.33-2,2-3,1.33-.33,2.67-0.67,4-1,0.33-.67.67-1.33,1-2l18-6v-2h3c2.64-4.42,6.7-6.19,11-9,0.33-.67.67-1.33,1-2,1.67-.33,3.33-0.67,5-1,0.33-.67.67-1.33,1-2h2v-1h3c0.33-.67.67-1.33,1-2,1.33-.33,2.67-0.67,4-1,0.33-.67.67-1.33,1-2h2v-1c1.33-.33,2.67-0.67,4-1v-1c1.67-.33,3.33-0.67,5-1v-1h2v-1h2v-1h2v-1c2.07-1.67,3.03-3.17,6-4v-2c3.11-.7,4.57-2.9,7-4h3v-1h2v-1h4v-1h3c0.33-.67.67-1.33,1-2h3c0.33-.67.67-1.33,1-2h2c0.33-.67.67-1.33,1-2h2c0.33-.67.67-1.33,1-2,1.33-.33,2.67-0.67,4-1,0.33-.67.67-1.33,1-2h3c0.67-1,1.33-2,2-3h2c0.67-1,1.33-2,2-3h2c0.67-1,1.33-2,2-3h2c0.33-.67.67-1.33,1-2h2v-1l21-6c0.33-.67.67-1.33,1-2,1-.33,2-0.67,3-1v-1c2-.67,4-1.33,6-2,0.33-.67.67-1.33,1-2h3c0.67-1,1.33-2,2-3h2c0.33-.67.67-1.33,1-2h2c0.67-1,1.33-2,2-3h2v-1c2-.67,4-1.33,6-2v-1c2-.33,4-0.67,6-1v-1c2.33-.33,4.67-0.67,7-1v-1c1.33-.33,2.67-0.67,4-1v-1h3c0.67-1,1.33-2,2-3h3c0.33-.67.67-1.33,1-2,1.33-.33,2.67-0.67,4-1,0.33-.67.67-1.33,1-2,1.67-.33,3.33-0.67,5-1,0.33-.67.67-1.33,1-2h3c0.67-1,1.33-2,2-3h2v-1c1.33-.33,2.67-0.67,4-1v-1l21-6c0.33-.67.67-1.33,1-2,1.33-.33,2.67-0.67,4-1,0.33-.67.67-1.33,1-2h3v-1h2c0.33-.67.67-1.33,1-2,1.33-.33,2.67-0.67,4-1,0.33-.67.67-1.33,1-2,1.33-.33,2.67-0.67,4-1,0.33-.67.67-1.33,1-2h2c0.67-1,1.33-2,2-3h2v-1h4v-1h2v-1c3.33-.33,6.67-0.67,10-1v-1h2v-1c2-.33,4-0.67,6-1,0.33-.67.67-1.33,1-2h4v-1c1.33-.33,2.67-0.67,4-1v-1h3v-1h2c0.33-.67.67-1.33,1-2h3c0.67-1,1.33-2,2-3h2c0.67-1,1.33-2,2-3h2c0.33-.67.67-1.33,1-2h2v-1h4v-1h3v-1h4v-1h4v-1h2v-1h4v-1h3v-1h3v-1c3-.33,6-0.67,9-1v-1h2v-1h3c0.33-.67.67-1.33,1-2h2c0.33-.67.67-1.33,1-2h2c0.33-.67.67-1.33,1-2h3c0.33-.67.67-1.33,1-2,1.67-.33,3.33-0.67,5-1v-1c1.33-.33,2.67-0.67,4-1v-1h3v-1c1.33-.33,2.67-0.67,4-1v-1h3v-1h2v-1q6.495-.495,13-1v-1c2.33-.33,4.67-0.67,7-1v-1c2-.67,4-1.33,6-2v-1h2v-1c2-.33,4-0.67,6-1,0.33-.67.67-1.33,1-2h2c0.33-.67.67-1.33,1-2h2c0.33-.67.67-1.33,1-2h2c0.67-1,1.33-2,2-3h2v-1c1.33-.33,2.67-0.67,4-1v-1h5c7.94-2.53,17.79-3.59,26-6h7v-1h2v-1h3v-1c2-.67,4-1.33,6-2v-1h2v-1h2v-1h2v-1h2v-1h2v-1h2c0.33-.67.67-1.33,1-2,2-.67,4-1.33,6-2,0.33-.67.67-1.33,1-2h2v-1h2v-1q21.495-3.495,43-7v-1c1.33-.33,2.67-0.67,4-1v-1h3v-1c1.33-.33,2.67-0.67,4-1v-1h4v-1c1.33-.33,2.67-0.67,4-1v-1h2c0.33-.67.67-1.33,1-2h2v-1h3c0.33-.67.67-1.33,1-2,1.67-.33,3.33-0.67,5-1v-1q22.005-3.495,44-7v-1h2v-1c2.67-.33,5.33-0.67,8-1v-1c1.33-.33,2.67-0.67,4-1v-1h3v-1h2v-1h3c0.33-.67.67-1.33,1-2h2c0.33-.67.67-1.33,1-2h2v-1h2v-1h3v-1h5v-1h3v-1h6v-1h2v-1h3v-1h12v-1h8v-1h5v-1q7.995-.495,16-1v-1c2.67-.33,5.33-0.67,8-1v-1h3v-1h3v-1c3.33-.67,6.67-1.33,10-2v-1h2v-1h2v-1c2-.67,4-1.33,6-2v-1c2.33-.33,4.67-0.67,7-1v-1h3v-1h7v-1h3v-1h2v-1l59-6v-1h5v-1h5v-1h5v-1h2v-1h3v-1h6v-1h4v-1h4v-1c2-.33,4-0.67,6-1v-1h2v-1c2.33-.33,4.67-0.67,7-1v-1c3.67-.33,7.33-0.67,11-1v-1h4v-1h4v-1h5v-1h10c5.59-1.6,12.84-1.99,20-2h10v-1h12v-1h11v-1h6v-1h5v-1h7v-1h6v-1h3v-1h5v-1h5v-1q8.505-1.005,17-2v-1h2v-1q9-.495,18-1v-1h3v-1h6c8.3-2.45,20.54-1.6,29-4h11v-1q60.99-1.995,122-4c12.89-3.62,33.1-2,49-2q22.995-.495,46-1h18c5.24,1.47,14.15,1,21,1h45c7.73,0,17.91-.71,24,1q150.48,1.005,301,2,318.975,1.005,638,2,217.98,1.005,436,2,54.495,0.495,109,1h38c6.55,0,15.04-.39,20,1h11c11.27,0,26.53-1.66,36,1h41q29.49,0.495,59,1c11.27,0,26.53-1.66,36,1h26v1h4v-1h28c10.68,3,30.22,1,43,1q37.5,0.495,75,1h36c7.22,2.03,19.09.99,28,1h9c6.93,1.95,18.38,1,27,1q18.495,0.495,37,1h34c6.37,1.79,16.97,1,25,1h38v1h27c6.93,1.95,18.38,1,27,1h60v1q49.5,0.495,99,1h57v1q13.005-.495,26-1v-1q16.005,1.005,32,2v1h2v1C6618,1647.33,6619,1647.67,6620,1648Z"/>
</svg>
