<svg xmlns="http://www.w3.org/2000/svg" viewBox="0 0 176.23 38.95"><defs><style>.cls-1{fill:#da0d29;}</style></defs><g id="Capa_2" data-name="Capa 2"><g id="Capa_1-2" data-name="Capa 1"><path class="cls-1" d="M21.5,11.13A10.15,10.15,0,0,1,11.17,21.25H6.74v9.27H0V1H11.17A10.14,10.14,0,0,1,21.5,11.13Zm-6.75,0a3.61,3.61,0,0,0-3.58-3.8H6.74v7.59h4.43A3.6,3.6,0,0,0,14.75,11.13Z"></path><path class="cls-1" d="M34.1,25.46a5.51,5.51,0,0,0,4-1.6l5.06,2.91C41.14,29.63,38,31.11,34,31.11c-7.21,0-11.68-4.85-11.68-11.13A10.81,10.81,0,0,1,33.55,8.85c6.16,0,10.71,4.77,10.71,11.13A12.13,12.13,0,0,1,44,22.51H29C29.84,24.7,31.78,25.46,34.1,25.46ZM38,17.79a4.34,4.34,0,0,0-4.47-3.33,4.35,4.35,0,0,0-4.59,3.33Z"></path><path class="cls-1" d="M55.22,15.51V23c0,1.82,1.56,2,4.34,1.82v5.73c-8.26.84-10.67-1.65-10.67-7.55V15.51H45.52V9.44h3.37v-4l6.33-1.9v5.9h4.34v6.07Z"></path><path class="cls-1" d="M76.21,9v7.17c-2.62-.42-6.32.63-6.32,4.8v9.53H63.56V9.44h6.33v3.75C70.73,10.37,73.55,9,76.21,9Z"></path><path class="cls-1" d="M77.89,20A11.17,11.17,0,1,1,89.06,31.11,11,11,0,0,1,77.89,20Zm16,0a4.85,4.85,0,1,0-9.7,0,4.85,4.85,0,1,0,9.7,0Z"></path><path class="cls-1" d="M126.07,20c0,6.28-4.55,11.13-10.07,11.13a7.91,7.91,0,0,1-6.28-2.57V39h-6.33V9.44h6.33v2A7.91,7.91,0,0,1,116,8.85C121.52,8.85,126.07,13.7,126.07,20Zm-6.32,0a5,5,0,1,0-10,0,5,5,0,1,0,10,0Z"></path><path class="cls-1" d="M142.3,9.44v7.17c-2.61-.42-6.32.63-6.32,4.8v9.11h-6.33V9.44H136v4.17C136.82,10.79,139.64,9.44,142.3,9.44Z"></path><path class="cls-1" d="M144.62,3.79a3.79,3.79,0,0,1,7.58,0,3.79,3.79,0,1,1-7.58,0Zm.63,5.65h6.32V30.52h-6.32Z"></path><path class="cls-1" d="M169,30.52,165.06,25l-3.92,5.57h-7.25l7.55-10.71-7.3-10.37h7.25l3.67,5.23,3.67-5.23H176l-7.29,10.37,7.54,10.71Z"></path></g></g></svg>