<svg xmlns="http://www.w3.org/2000/svg" xmlns:xlink="http://www.w3.org/1999/xlink" width="1471.03" height="1513" viewBox="0 0 1471.03 1513">
  <defs>
    <style>
      .cls-1 {
        fill-rule: evenodd;
        fill: url(#linear-gradient);
      }
    </style>
    <linearGradient id="linear-gradient" x1="1000.015" y1="1756.5" x2="1000.015" y2="243.5" gradientUnits="userSpaceOnUse">
      <stop offset="0" stop-color="#b61128"/>
      <stop offset="0.473" stop-color="#b61128"/>
      <stop offset="0.596"/>
      <stop offset="1"/>
    </linearGradient>
  </defs>
  <path id="Relleno_degradado_1" data-name="Relleno degradado 1" class="cls-1" d="M1382.96,1647.99c-9.48.64-15.4,8.98-22.59,12.45-8.73,4.2-16.1,7.47-24.33,12.44-1.86,1.13-4.28,4.4-6.08,5.34-3.49,1.82-6.14,1.13-9.56,2.67-5.49,2.47-11.56,6.62-16.51,9.78-2.03.3-4.05,0.59-6.08,0.89-4.09,1.63-9.14,5.59-13.04,7.11h-4.34c-44.39,21.38-94.91,33.42-147.72,47.13-10.05,2.61-18.49.25-28.67,2.67-32.29,7.66-69.92,7.99-109.484,8-25.917.01-51.656,0.59-72.99-4.44H908.533c-3.977-.97-9.057-2.6-13.034-3.56H884.2c-29.545-8.27-61.551-10.26-89.5-20.45-27.873-10.17-57.381-19.56-82.547-32.02-7.406-3.66-14.63-4.22-21.723-8-19.943-10.61-40.178-22.3-59.087-33.79-5.037-3.06-9.907-3.87-14.772-7.11-2.233-1.49-4.541-4.71-6.951-6.23-2.634-1.65-6.36-1.54-8.689-3.55-7.576-6.57-15.368-11.42-24.33-16.9-6.864-4.19-12.726-12.13-19.116-16.9-33.179-24.73-65.576-51.22-91.237-83.58-6.064-7.65-27.714-25.52-29.543-34.68-1.8-.33-1.672-0.22-2.607-0.89-8.045-8.4-13.443-18.42-19.985-28.46-1.26-1.93-4.575-3.56-6.082-5.33-5.831-6.85-8.262-16.05-13.9-23.12-1.528-1.92-4.709-3.29-6.082-5.34-1.852-2.76-1.665-5.99-3.476-8.89-2.424-3.89-6.888-7.88-9.558-11.56-3.022-4.17-4.358-10.45-6.952-15.12-3.637-6.55-9.435-13.86-13.033-20.45-1.691-3.1-1.131-5.66-2.607-8.89-0.6-1.32-2.934-2.48-3.476-3.56-4.222-8.45-6.152-15.65-10.427-24.01-1.338-2.62-4.912-6.21-6.082-8.89-7.811-17.87-12.889-34.57-19.985-53.36-1.246-3.29-4.944-7.46-6.083-10.67-2.543-7.16-2.073-11.81-4.345-18.67-1.4-4.23-4.9-9.36-6.082-13.34v-7.11c-3.91-13.42-9.061-29.68-13.034-43.57q-0.434-5.79-.869-11.56c-3.747-12.05-4.94-27.01-6.951-39.13-1.077-6.49-3.637-18.13-5.214-24.9v-16.89c-0.411-1.69-2.186-5.43-2.606-7.12q-0.435-15.555-.869-31.12c-2.163-10.01-2.517-31.59-.869-39.13v-40.9c1.954-8.789-.392-19.934,1.738-29.345,4.655-20.566,4.738-44.969,9.558-64.025,2.531-10.008.856-17.232,3.475-26.677,5.238-18.884,10.1-40.232,15.641-57.8,2.288-7.258,1.353-13.044,4.345-19.563,7.43-16.192,11.612-34.384,18.247-51.575,4.6-11.919,12.49-24.933,17.378-36.459a620.489,620.489,0,0,1,49.529-94.258c88.9-138.228,214.271-237.626,377.111-300.561,5.874-2.27,9.459-1.555,15.641-3.557,3.9-1.262,10.01-4.736,13.9-6.224,10.64-4.068,19.967-3.979,31.281-7.114,23.562-6.529,52.2-10.318,77.334-16.9l21.723-.889c16.757-3.905,44.16-5.7,61.694-4.446,19.511,1.39,42.661-2.466,60.821,1.779h19.99c18.14,4.331,40.61,3.534,57.35,8.892q8.25,0.889,16.51,1.778c14.11,3.93,28.77,5.337,43.44,9.782,31.47,9.537,64.25,19.807,92.11,32.9l6.08,0.89c5.4,2.319,11.32,6.339,16.51,8.892l6.08,0.889a1137.934,1137.934,0,0,1,125.13,74.7c9.49,6.5,17.85,16.162,26.93,23.12,12.78,9.782,25.97,19.012,37.37,30.234,2,1.969,3.05,5.318,5.21,7.113,20.27,16.818,36.68,36.929,53.87,56.911,4.88,5.663,9.32,10.6,13.91,16.9q3.9,3.556,7.82,7.113c13.97,22.267,32.09,42.142,45.18,64.914,14.56,25.34,28.87,51.293,42.58,77.364,2.07,3.951,1.4,7.607,3.47,11.56,11.04,21.023,20.99,46.334,29.55,69.36,2.2,5.92,1.32,10.154,3.47,16.006,13.17,35.8,18.51,76.261,28.68,116.489q0.435,8,.87,16.006c3.13,13.652,2.91,32.194,6.08,46.24v20.453c1.61,7.51-.98,18.952.87,27.566,2.51,11.717,1.64,36.747-.87,48.017v20.45c-0.77,3.44-1.9,10.65-2.61,13.34v16.9c-2.81,12.37-3.84,29.21-6.95,40.9v9.78c-3.19,12.42-7.06,28.71-10.43,40.91-1.86,6.75-.61,10.63-2.6,16.89-12.23,38.44-24.22,76.13-39.11,112.05-2.05,4.95-6.98,11.92-9.55,16.89-1.58,3.04-1.17,6.05-2.61,8.89-2.94,5.8-7.57,12.03-10.43,17.79-2.12,4.28-1.78,8.7-4.34,12.45-18.75,27.44-34.66,56.94-53.01,84.48-3.42,5.13-9.41,9.18-13.03,14.22-12.14,16.91-24.8,35.13-39.1,49.8-3.75,3.85-8.49,6.76-12.17,10.67-1.47,1.57-1.91,3.87-3.47,5.34-1.16.59-2.32,1.18-3.48,1.78-6.45,7.77-13.27,16.59-20.85,23.12-6.9,5.93-13.59,11.28-20.86,16.89-4.18,3.23-6.81,9.57-11.29,12.45-4.28,2.75-8.58,4.57-12.17,8-2.32,2.23-4.38,6.16-6.95,8.01-10.2,7.35-20.19,13.43-29.54,21.34-1.79,1.51-4.11,1.29-6.08,2.67-5.73,3.98-11.32,9.62-17.38,13.33C1390.75,1641.78,1384.49,1642.46,1382.96,1647.99ZM892.892,355.043c-3.432,2.02-9.775.508-13.9,1.778-12.136,3.735-25.292,4.857-38.232,8.893-38.669,12.06-77.091,23.517-111.222,40.9-163.614,83.35-271.642,209.838-336.272,394.819-3.725,10.663-3.692,19.966-6.951,31.123-28.462,97.432-28.846,249.21,3.475,343.24,4.781,13.91,5.812,26.14,10.427,40.02,5.786,17.4,15.018,35.59,21.723,51.57,2.123,5.07,1.939,9.33,4.345,14.23,73.642,150.09,191.241,270.92,353.65,329.91,6.848,2.48,15.021,6.93,21.723,9.78,9.876,4.2,19.234,3.52,29.544,7.11,19.361,6.75,43.952,11.35,65.169,16.9,11.261,2.94,23.411,1.98,33.888,4.44h16.509c15.257,3.41,35.18,2.67,53.875,2.67,18.07,0.01,37.65.66,52.13-2.67h13.91c6.42-1.77,19.22-2.57,26.06-4.44h9.56c19.22-5.48,41.48-7.17,60.83-13.34,22.35-7.13,45.73-15.46,66.03-24.01,7.89-3.32,14.96-3.28,22.6-7.11,103.09-51.82,192.02-116.72,254.59-209.86,3.18-4.73,8.98-8.62,12.16-13.34,13.66-20.28,25.86-42.16,38.24-63.14,1.03-1.74-.22-4.15.87-6.22,4.6-8.79,12.53-18.89,16.51-28.46,16.34-39.31,29.29-80.42,42.57-123.6v-8c5.58-18.19,8.26-41.15,13.04-60.47v-15.12c0.5-2.28,2.11-6.85,2.6-8.89v-18.67c3.29-15.54,5.54-50.154,1.74-67.585l-0.87-34.68c-4.61-20.936-4.78-43.955-9.56-63.135-2.38-9.569-1.02-15.619-3.47-24.9-3.87-14.635-8.53-31.477-13.04-45.351q-0.435-4-.86-8c-6.91-17.2-12.09-35.772-19.12-53.354-7.27-18.16-17.93-36.395-26.07-53.353-8.57-17.853-16.45-34.573-26.94-50.687-17.39-26.725-37.78-51.092-56.47-76.474-6.05-8.2-15.72-14.1-21.73-22.23-8.97-12.146-21.15-23.728-33.02-32.9q-3.465-4-6.95-8c-16.81-12.94-33.09-26.663-49.53-40.015-4-3.251-8.58-4.332-13.03-7.114l-2.61-3.557c-8.12-5.66-16.76-10.032-24.33-16.006-6.72-5.3-15.68-6.348-22.59-11.56-9.85-7.428-22.94-13.543-33.89-19.564-4.52-2.485-8.27-2.289-13.03-4.446-16.03-7.258-34.36-15.715-51.27-22.231-14.53-5.6-29.39-8.222-43.44-13.338-40.47-14.73-103.84-13.521-124.26,17.785-11.96,18.342-10.97,55.4-4.34,79.141,10.25,36.743,29.91,67.8,42.57,102.262,5.12,13.934,6.13,29,9.56,44.462,2.66,11.952-.55,28.951-2.6,37.347-1.92,7.839-1.01,12.582-3.48,19.563-5.18,14.667-17.43,31.24-29.54,39.127-3.77,2.45-7.1,2.324-11.3,4.446-6.9,3.487-21.08,9.16-33.02,6.224-49.214-12.1-75.585-41.682-75.594-104.04V583.576a242.982,242.982,0,0,1,6.082-28.456q0.435-4.446.869-8.892c6.452-16.172,12.177-32.679,19.985-48.019,7.21-14.164,15.925-29.382,21.723-45.351,3.34-9.2,2.811-18.708,5.214-28.455,2.035-8.256,1.126-22.547-.869-29.345q-0.435-5.779-.869-11.56C970.419,356.5,931.837,354.863,892.892,355.043ZM1526.33,969.5c5.87-1.1,9.73-5.507,14.78-7.114,6.9-2.2,15.53,1.238,19.11,2.668,34.44,13.734,16.68,56.534,8.69,83.584a108.454,108.454,0,0,0-4.34,20.46c11.37-.4,27.53.29,30.41,8.89,5.27,7.31.8,17.87,0,25.79-5.3,3.76-9.33,9.55-16.51,11.56h-18.25c-24.75,0-36.96-2.34-41.71-22.23-1.43-6.02,1.62-10.22,2.61-13.34,0.29-2.97.58-5.93,0.87-8.9,3.47-10,6.1-19.86,9.56-31.12,2.8-9.13,9.34-19.85,5.21-31.12-3.4-1.77-4.31-3.29-9.56-3.56-5.02,4.49-10.23,6.53-13.9,12.45-5.77,9.32-6.29,20.86-10.43,32.01-4.43,11.95-9.23,27-13.03,39.13-1.67,5.34-1.07,9.44-3.48,14.23-3.04,6.05-14.99,19.32-25.19,14.22-18.9-5.99-9.97-35.12-4.35-50.68,20.11-55.68,33.96-116.256,53.87-172.513,5.52-15.579,7.06-31.46,17.38-41.793,2.82-2.822,10.84-8.761,17.38-4.447,12.34,5.027,11.25,23.169,6.95,36.459-4.9,15.17-10.5,32.338-15.64,47.129l-1.74,10.671C1532.11,949.988,1527.37,960.1,1526.33,969.5Zm-978.4,160.948c258.766,0.21,535.2.73,788.109,0,64.66-.18,119.1.01,183.34,0,17.19,0,36.46,2.36,51.27,0,5.11-.81,18.35-1.37,21.72.89,4.41,2.96,2.7,34.61,2.61,43.57-0.7.91-.31,0.25-0.87,1.78-2.37,1.2-2.9,2.08-6.08,2.67-0.93-.52-17.85,0-23.46,0q-26.94-.45-53.88-0.89H605.28q-22.59.45-45.184,0.89c-15.074.01-34.4-.56-44.315,1.78a52.2,52.2,0,0,1-4.345,7.11c-2.15-1.23-3.046-.12-5.213.89,0.025,1.78.889,0.25,0,1.78-7,5.03-15.625,8.72-24.33,11.56-4.378,1.43-10.15.89-15.641,0.89-22.513.01-35.286-5.24-45.183-17.78-9.113-11.55-17.177-21.58-22.592-37.35-3-8.74-.432-16.45-2.607-26.68-7.541-35.45,12.351-83.58,25.2-102.26,17.38-25.274,41.68-41.213,72.989-52.466,4.382-1.574,13.47-1.123,16.509-.889,1.8,0.139,6.355-1.705,9.558-.889,14.243,3.626,21.134,13.24,20.854,32.012-4.862,5.562-4.823,12.842-11.3,16.892-6.716,4.21-15.627,2.1-24.33,4.45a198.4,198.4,0,0,0-21.723,7.11c-28.43,11.62-56.032,62.25-40.839,104.04,3.439,9.47,10.956,12.43,17.378,18.68,34.819-.45,38.742-21.88,49.528-46.24,4.236-9.57,9.523-21.95,13.034-32.01,3.438-9.86,3.549-17.82,6.952-27.57,7.559-21.67,15.8-46.28,22.591-68.472,1.98-6.466,1.184-10.329,3.476-16.895,4.214-12.069,7.8-25.654,12.165-39.126,2.063-6.37,5.765-13.271,6.951-20.453a13.382,13.382,0,0,0-4.344-.889c-3.713,2.526-16.633-.163-21.723-0.889-3.08-3.955-7.887-7.009-9.558-12.449-2.954-9.616,3.1-19.533,6.082-24.01,7.641-11.473,21.821-10.671,40.839-10.67,30.441,0,58.411-1.366,75.6,11.56,5.314,4,7.692,10.942,10.427,17.784,14.363,35.932-1.878,88.1-29.543,99.594-9.537,3.961-20.651,3.774-32.15,6.225-6.9,1.471-13.816-3.087-19.116.889-1.329,2.042-.577,4.4-1.738,7.114-5.728,13.387-7.918,28.377-13.034,43.577-4.06,12.06-9.247,26.53-13.034,38.23-1.964,6.07-1.292,10.76-3.475,16.9C555.807,1102.49,548.22,1115.36,547.931,1130.45Zm68.644-232.976c-0.421,13.826-8.832,22.475-9.558,36.459,2.317,0.821,6.023.935,9.558,0.889,3.913-2.489,10.709-2.855,14.772-4.446,5.036-7.975,7.675-17.02,5.214-28.455l-6.083-4.447h-13.9Zm227.658,66.693c5.577,0.113,10.305,1.558,14.771,2.667,1.868,3,5,5.068,6.083,8.893,1.359,4.8-.5,9.805,1.737,13.338v-0.889c3.486-5.41,2.03-11.61,4.345-18.674,4.705-14.356,7.874-31.6,27.805-31.123v0.889c8.576,3.681,7.935,14.143,11.3,23.12,12.032,5.256,31.551-1.842,46.053,1.779,2.537,0.633,6.492,2.021,9.558,2.667,1.362,2.318,4.34,4.773,5.214,7.114,3.714,9.956.34,25.37-6.083,30.232-5.223,3.96-10.492,1.55-16.509,4.45-4.407,2.12-6.837,10.06-9.558,14.23-6.4,9.8-18.449,25.88-12.165,42.68q3.041,1.77,6.082,3.56c12.449,3.72,33.627-4.81,38.233,8,3.288,3.91,5.6,17.37,1.738,23.12-4.991,15.19-20.619,15.12-40.84,15.12H913.746c-7.963-2.62-15.74-8.52-19.985-15.12-11.56-17.97-9.237-48.28-.869-67.58,3.353-7.74,11.259-14.41,13.034-23.12q-4.344-.45-8.689-0.89c-4.927,9.34-9.01,32.74-18.248,36.46-4.2,3.24-11.2,1.16-15.64,0-11.406-17.51-6.662-28.29.869-48.022H862.48c-2.478,4.022-6.781,8.942-11.3,10.672-6.218,2.38-15.749-.77-19.985,1.78-2.452,1.47-3.254,10.47-4.345,14.23-4.048,13.93-12.714,29.17-13.034,45.35h1.738c3.46,1.28,14.793,1.5,21.723,1.77,1.752,2.6,5.4,3.68,6.952,6.23,1.432,2.35.863,3.58,2.606,5.33,0.462,12.3-2.922,27.8-13.034,30.24-4.76,3.92-15.883,2.67-24.329,2.67-30.281,0-40.645-3.72-39.971-35.57,2.344-3.46,1.874-7.98,3.476-12.45,4.528-12.65,8.673-26.68,13.034-40.02,1.342-4.1,5.75-15.39,4.344-17.78-2.291-1.54-7.643-2.08-10.427-2.67-2.481-3.84-5.621-8.292-6.951-13.339-2.375-9.012,7.473-24.214,12.165-26.677,5.538-2.906,14.7-2.242,19.985-2.667,3.605-19.376,12.045-50.042,32.15-52.465,4.468,3.483,10.277,4.643,13.034,9.782C857.928,935.672,845.376,950.869,844.233,964.167Zm556.107-25.788,9.56,0.889c2.75,3.774,7.25,6.443,8.69,11.56q-0.435,15.561-.87,31.123c3.52,11.2,10.94,21.749,16.51,31.119,10.12,17.04,15.17,49.25,6.08,71.14-4.19,10.11-15.15,24.49-25.2,28.46-10.43,4.12-24.95,1.51-37.36,1.78-7.52.16-17.43,1.98-23.46-1.78-4.82-3-5.35-7.88-8.69-12.45V1102c-4.57,4.76-8.14,9.73-14.77,12.45-2.82,1.15-31.17,1.48-33.02.89-4.73-1.51-9.77-6.51-12.17-10.67-6.42,3.55-9.7,8.55-18.24,10.67h-13.04c-24.27-.03-30.73-11.53-38.23-28.46-0.58-1.32-3.12-3.07-3.48-4.45,0.29-2.07.58-4.15,0.87-6.22-1.24-6.78-3.9-20.91-1.73-30.23,7.12-30.71,15.6-56.654,38.23-73.81,6.62-5.023,19.27-14.406,34.75-9.782,8.32,2.483,12.42,12.52,19.12,14.228,9.11-20.667,39.63-13.582,33.02,15.117-2.61,11.327-7.08,22.467-10.43,32.9-2.27,7.1-1.87,12.26-4.34,19.57-1.9,5.62-9.06,19.41-6.95,24.9,4.93,2.83,16.75-1.24,22.59,2.66,7.14,2.52,6.55,8.92,11.3,11.56v-0.89c3.64-3.78,6.91-9.59,12.16-11.56,14.36-5.38,38.99,4.55,44.31-9.78,6.85-7.72-3.64-29.87-5.21-36.46h-1.74v0.89c-6.64,10.14-5.9,22.26-22.59,22.23-7.33-5.11-12.51-6.54-14.77-16.89-1.94-8.91,6.31-24.36,8.69-30.23,6.8-16.817,10.54-39.131,19.98-53.359C1392.54,943.321,1396.95,941.557,1400.34,938.379ZM706.074,962.388c11.424-.156,23.036-0.648,30.412,3.557,21.576,12.3,31.041,52.975,13.9,78.255-7.955,11.73-22.89,14.22-42.577,14.23-6.189,0-14.336-.66-19.116.88,0.548,1.56.167,0.87,0.869,1.78,1.158,2.08,2.317,4.15,3.475,6.23,3.594,0.4,6.968,1.96,9.559,2.67,10.338,2.82,24.976-1.73,33.019,0,7.849,1.68,14.475-2.45,20.854,1.77,16.725,5.29,9.891,31.9,0,39.13-12.3,9-73.481,5.62-84.286-1.78-19.305-13.23-26.437-52.72-18.247-85.36,4.2-16.73,13.9-31.851,23.461-43.577,3.889-4.768,12.592-11.668,18.247-14.228C699.357,964.266,703.046,964.554,706.074,962.388Zm328.456,0c36.06-.6,50.24,14.658,58.21,41.792,10.22,34.77-8.26,79.73-23.46,95.15-4.53,4.6-8.35,10.73-14.77,13.34-7.01,2.84-28.89,5.27-38.23,2.67-7.25-2.02-15.38-4.79-20.855-8.9-21.368-16.03-21.662-73.38-8.69-99.59,7.513-15.177,19.945-30.459,33.885-39.126Zm119.91,0c24.5-.614,31.64,4.987,40.84,19.563,1.77,2.813,4.97,6.156,6.08,9.782q0.435,6.669.87,13.337c4.24,21.72-7.16,41.6-27.81,36.46-2.07-3.45-4.84-6.09-6.08-10.67-2.56-9.45,3.61-21.17-5.21-24.9-1.47-1.02-4.26-.95-6.96-0.89-1.82,1.52-5.22,1.86-6.95,3.56-0.29,1.18-.58,2.37-0.87,3.56-12.7,14.37-13.5,29.44-8.68,49.79q3.03,2.67,6.08,5.34c5.52,2.29,25.02,4.41,33.02,2.67,1.8-.4,6.4-1.59,9.55-0.89a63.449,63.449,0,0,0,12.17,1.77,23.548,23.548,0,0,0,7.82,7.12c0.24,4.94,2.07,6.71,2.61,9.78,1.1,6.37-6.49,19.28-9.56,22.23-5.95,5.73-18.06,5.34-29.54,5.34-22.86,0-40.95,1.09-53.88-8.9-19.26-14.87-22.65-60.38-13.9-88.92,3.52-11.49,10.31-22.592,16.51-32.012,3.38-5.142,16.76-17.132,22.59-19.563C1147.22,964.243,1151.06,964.676,1154.44,962.388Zm119.04,40.9c-3.73,3.58-9.22,5.44-12.17,9.78-10.5,15.52-14.89,32.43-10.42,53.36q2.595,2.22,5.21,4.44,6.51-.435,13.03-0.88c1.88-2.75,5.27-4.24,6.96-7.12,2.36-4.05,1.76-8.54,3.47-13.34,4.3-12.03,11.71-25.14,8.69-41.79a15.818,15.818,0,0,1-6.95-4.45h-7.82Zm-576.095,16.9c9.037,0.35,22.229,1.7,25.2-4.45,1.773-2.51.65-7.06-.869-8.89-9.737-9.844-19.961,5.08-24.33,9.78v3.56Zm342.355-15.12c-2.19,2.05-5.15,1.77-7.82,3.56-13.02,8.74-17.37,31.21-14.77,53.35,12.86,8.43,9.16,9.05,26.07,5.34,2.15-3.2,5.86-5.69,7.82-8.89,7.61-12.45,12.69-50.35-6.96-52.47C1042.96,1005.18,1041.94,1005.17,1039.74,1005.07Zm497.02,521.09h1.74v0.89C1536.98,1526.49,1537.66,1526.88,1536.76,1526.16Z" transform="translate(-264.5 -243.5)"/>
</svg>
