<?xml version="1.0" encoding="UTF-8" standalone="no"?>
<!-- Created with Inkscape (http://www.inkscape.org/) -->

<svg
   xmlns:dc="http://purl.org/dc/elements/1.1/"
   xmlns:cc="http://creativecommons.org/ns#"
   xmlns:rdf="http://www.w3.org/1999/02/22-rdf-syntax-ns#"
   xmlns:svg="http://www.w3.org/2000/svg"
   xmlns="http://www.w3.org/2000/svg"
   xmlns:sodipodi="http://sodipodi.sourceforge.net/DTD/sodipodi-0.dtd"
   xmlns:inkscape="http://www.inkscape.org/namespaces/inkscape"
   version="1.1"
   id="svg2"
   xml:space="preserve"
   width="4096"
   height="4096"
   viewBox="0 0 4096 4095.9998"
   sodipodi:docname="shell-logo.svg"
   inkscape:version="0.92.2 (5c3e80d, 2017-08-06)"
   inkscape:export-filename="G:\Users\suitedoalex\sites\shell-logo-0.png"
   inkscape:export-xdpi="96"
   inkscape:export-ydpi="96"><metadata
     id="metadata8"><rdf:RDF><cc:Work
         rdf:about=""><dc:format>image/svg+xml</dc:format><dc:type
           rdf:resource="http://purl.org/dc/dcmitype/StillImage" /><dc:title></dc:title></cc:Work></rdf:RDF></metadata><defs
     id="defs6"><clipPath
       clipPathUnits="userSpaceOnUse"
       id="clipPath18"><path
         d="M 236.215,793.701 0,595.493 V 0 h 558.062 l 51.386,43.118 v 656.396 l -81.875,94.187 z"
         id="path16"
         inkscape:connector-curvature="0" /></clipPath><clipPath
       clipPathUnits="userSpaceOnUse"
       id="clipPath36"><path
         d="m 0,684.984 h 145.032 v 72.65 H 0 Z"
         id="path34"
         inkscape:connector-curvature="0" /></clipPath></defs><sodipodi:namedview
     pagecolor="#ffffff"
     bordercolor="#666666"
     borderopacity="1"
     objecttolerance="10"
     gridtolerance="10"
     guidetolerance="10"
     inkscape:pageopacity="0"
     inkscape:pageshadow="2"
     inkscape:window-width="1600"
     inkscape:window-height="837"
     id="namedview4"
     showgrid="false"
     inkscape:zoom="0.078844494"
     inkscape:cx="-641.73554"
     inkscape:cy="2297.339"
     inkscape:window-x="-8"
     inkscape:window-y="-8"
     inkscape:window-maximized="1"
     inkscape:current-layer="g10" /><g
     id="g10"
     inkscape:groupmode="layer"
     inkscape:label="shell-sustainability-report-2017"
     transform="matrix(1.3333333,0,0,-1.3333333,0,4096.0001)"><g
       id="g30"
       transform="matrix(37.825872,0,0,37.825872,-2548.5246,-25748.354)"
       inkscape:export-filename="G:\Users\suitedoalex\sites\shell-logo-5.png"
       inkscape:export-xdpi="6.329988"
       inkscape:export-ydpi="6.329988"><g
         id="g32"
         clip-path="url(#clipPath36)"><g
           id="g38"
           transform="translate(111.3963,695.8921)"><path
             d="m 0,0 h 14.744 l 1.366,10.929 8.944,6.504 c 0.39,1.911 0.586,3.859 0.586,5.81 0,16.038 -13.016,29.054 -29.053,29.054 -16.038,0 -29.055,-13.016 -29.055,-29.054 0,-1.951 0.196,-3.899 0.586,-5.81 L -22.94,10.929 -21.572,0 H -6.83 l 0.852,-0.619 c 0.746,-0.542 1.643,-0.833 2.565,-0.833 0.92,0 1.818,0.291 2.562,0.833 z"
             style="fill:none;stroke:#ffffff;stroke-width:2.03299999;stroke-linecap:butt;stroke-linejoin:miter;stroke-miterlimit:40;stroke-dasharray:none;stroke-opacity:1"
             id="path40"
             inkscape:connector-curvature="0" /></g><g
           id="g42"
           transform="translate(111.3963,695.8921)"><path
             d="m 0,0 h 14.744 l 1.366,10.929 8.944,6.504 c 0.39,1.911 0.586,3.859 0.586,5.81 0,16.038 -13.016,29.054 -29.053,29.054 -16.038,0 -29.055,-13.016 -29.055,-29.054 0,-1.951 0.196,-3.899 0.586,-5.81 L -22.94,10.929 -21.572,0 H -6.83 l 0.852,-0.619 c 0.746,-0.542 1.643,-0.833 2.565,-0.833 0.92,0 1.818,0.291 2.562,0.833 z"
             style="fill:#fbce07;fill-opacity:1;fill-rule:nonzero;stroke:none"
             id="path44"
             inkscape:connector-curvature="0" /></g><g
           id="g46"
           transform="translate(110.9355,700.9766)"><path
             d="m 0,0 h 10.716 l 1.084,8.66 8.826,6.42 c 0.259,1.006 0.39,2.04 0.39,3.078 0,1.736 -0.364,3.45 -1.072,5.035 L 4.315,7.391 19.509,26.147 c -0.598,2.433 -1.92,4.626 -3.794,6.289 L 2.095,8.928 14.162,34.664 c -1.56,2.079 -3.739,3.61 -6.22,4.377 L -0.385,9.863 5.699,40.244 c -1.85,1.045 -3.941,1.593 -6.066,1.593 -0.45,0 -0.9,-0.024 -1.346,-0.073 L -2.952,10.168 -4.195,41.764 c -0.444,0.049 -0.894,0.073 -1.345,0.073 -2.124,0 -4.214,-0.548 -6.065,-1.593 l 6.086,-30.381 -8.33,29.178 c -2.482,-0.767 -4.659,-2.298 -6.22,-4.377 L -8.002,8.928 -21.621,32.436 c -1.873,-1.663 -3.197,-3.856 -3.795,-6.289 l 15.195,-18.756 -15.63,15.802 c -0.706,-1.585 -1.071,-3.299 -1.071,-5.035 0,-1.038 0.129,-2.072 0.39,-3.078 L -17.706,8.66 -16.623,0 h 10.717 l 1.585,-1.154 c 0.399,-0.289 0.877,-0.443 1.369,-0.443 0.49,0 0.968,0.154 1.366,0.443 z m 0.462,-5.085 h 14.743 l 1.366,10.929 8.944,6.504 c 0.389,1.911 0.586,3.86 0.586,5.81 0,16.039 -13.016,29.055 -29.053,29.055 -16.039,0 -29.055,-13.016 -29.055,-29.055 0,-1.95 0.196,-3.899 0.587,-5.81 l 8.942,-6.504 1.367,-10.929 h 14.742 l 0.853,-0.618 c 0.745,-0.542 1.642,-0.834 2.564,-0.834 0.92,0 1.819,0.292 2.562,0.834 z"
             style="fill:#dd1d21;fill-opacity:1;fill-rule:evenodd;stroke:none"
             id="path48"
             inkscape:connector-curvature="0" /></g></g></g></g></svg>